<svg width="220" height="165" viewBox="0 0 220 165" fill="none" xmlns="http://www.w3.org/2000/svg">
<mask id="mask0_2257_1194" style="mask-type:alpha" maskUnits="userSpaceOnUse" x="0" y="0" width="221" height="165">
<rect x="0.573242" y="0.182617" width="219.427" height="164.132" rx="5.26625" fill="#D9D9D9"/>
</mask>
<g mask="url(#mask0_2257_1194)">
<path d="M184.454 84.5662C146.507 84.5662 115.746 115.328 115.746 153.274C115.746 191.221 146.507 221.982 184.454 221.982C222.4 221.982 253.162 191.221 253.162 153.274C253.162 115.328 222.4 84.5662 184.454 84.5662Z" fill="url(#paint0_linear_2257_1194)"/>
<path d="M184.454 50.212C143.977 50.2119 111.165 83.0244 111.165 123.501C111.165 163.977 143.977 196.789 184.453 196.789C224.93 196.789 257.742 163.977 257.742 123.501C257.742 83.0244 224.93 50.212 184.454 50.212Z" fill="url(#paint1_linear_2257_1194)"/>
<path d="M156.834 127.726L152.443 116.585H154.34L157.79 125.456L161.21 116.585H163.106L158.686 127.726H156.834ZM164.599 127.652V116.585H166.556L172.38 124.575V116.585H174.142V127.652H172.485L166.361 119.273V127.652H164.599ZM176.558 127.652V116.585H181.636C183.09 116.585 184.13 116.879 184.758 117.466C185.395 118.054 185.713 118.935 185.713 120.11C185.713 121.324 185.39 122.255 184.743 122.902C184.105 123.55 183.045 123.873 181.562 123.873H178.321V127.652H176.558ZM178.321 122.23H181.636C182.413 122.23 182.985 122.076 183.354 121.767C183.722 121.449 183.906 120.926 183.906 120.199C183.906 119.463 183.727 118.95 183.369 118.661C183.01 118.372 182.423 118.228 181.606 118.228H178.321V122.23ZM190.428 127.652V118.318H186.44V116.585H196.237V118.318H192.25V127.652H190.428Z" fill="white"/>
<path d="M140.482 142.207V131.14H142.274V142.207H140.482ZM144.825 142.207V131.14H146.781L152.606 139.13V131.14H154.368V142.207H152.71L146.587 133.828V142.207H144.825ZM160.249 142.281L155.858 131.14H157.755L161.205 140.011L164.625 131.14H166.521L162.101 142.281H160.249ZM172.64 142.386C168.836 142.386 166.935 140.479 166.935 136.666C166.935 132.863 168.836 130.961 172.64 130.961C176.453 130.961 178.36 132.863 178.36 136.666C178.36 140.479 176.453 142.386 172.64 142.386ZM172.64 140.698C173.994 140.698 174.979 140.36 175.597 139.683C176.224 139.006 176.538 138.01 176.538 136.696C176.538 135.391 176.224 134.401 175.597 133.724C174.979 133.047 173.994 132.708 172.64 132.708C170.051 132.708 168.757 134.037 168.757 136.696C168.757 138.01 169.065 139.006 169.683 139.683C170.31 140.36 171.296 140.698 172.64 140.698ZM180.283 142.207V131.14H182.075V142.207H180.283ZM189.569 142.371C187.648 142.371 186.239 141.893 185.343 140.937C184.447 139.981 183.999 138.558 183.999 136.666C183.999 134.744 184.481 133.316 185.447 132.38C186.423 131.434 187.832 130.961 189.674 130.961C191.386 130.961 192.755 131.464 193.781 132.469L192.466 133.769C191.71 133.062 190.774 132.708 189.659 132.708C187.1 132.708 185.821 134.032 185.821 136.681C185.821 138.005 186.124 139.001 186.732 139.668C187.349 140.335 188.33 140.668 189.674 140.668C190.381 140.668 190.938 140.579 191.346 140.399C191.764 140.21 192.173 139.927 192.571 139.548L193.855 140.773C193.367 141.271 192.795 141.664 192.138 141.953C191.491 142.231 190.634 142.371 189.569 142.371ZM195.681 142.207V131.14H203.492V132.872H197.488V135.65H203.342V137.368H197.488V140.504H203.551V142.207H195.681Z" fill="white"/>
</g>
<defs>
<linearGradient id="paint0_linear_2257_1194" x1="184.454" y1="221.982" x2="184.454" y2="-56.0708" gradientUnits="userSpaceOnUse">
<stop stop-color="#0D52FF" stop-opacity="0"/>
<stop offset="1" stop-color="#1F99FF"/>
</linearGradient>
<linearGradient id="paint1_linear_2257_1194" x1="184.453" y1="196.789" x2="184.453" y2="-99.8008" gradientUnits="userSpaceOnUse">
<stop stop-color="#0D52FF" stop-opacity="0"/>
<stop offset="1" stop-color="#1F99FF"/>
</linearGradient>
</defs>
</svg>
