<svg width="128" height="96" viewBox="0 0 128 96" fill="none" xmlns="http://www.w3.org/2000/svg">
<mask id="mask0_2257_1286" style="mask-type:alpha" maskUnits="userSpaceOnUse" x="0" y="0" width="128" height="96">
<rect width="127.181" height="95.1316" fill="#D9D9D9"/>
</mask>
<g mask="url(#mask0_2257_1286)">
<path d="M106.578 48.9092C84.5838 48.9092 66.7541 66.7388 66.7541 88.7328C66.7541 110.727 84.5838 128.556 106.578 128.556C128.572 128.556 146.401 110.727 146.401 88.7328C146.401 66.7388 128.572 48.9092 106.578 48.9092Z" fill="url(#paint0_linear_2257_1286)"/>
<path d="M106.577 28.9973C83.1169 28.9973 64.0986 48.0156 64.0986 71.4758C64.0986 94.9361 83.1169 113.954 106.577 113.954C130.037 113.954 149.056 94.9361 149.056 71.4758C149.056 48.0156 130.037 28.9973 106.577 28.9973Z" fill="url(#paint1_linear_2257_1286)"/>
<path d="M53.9932 73.7875C42.2631 94.1046 49.2242 120.084 69.5414 131.814C89.8586 143.544 115.838 136.583 127.568 116.266C139.298 95.9488 132.337 69.9694 112.02 58.2393C91.7028 46.5091 65.7233 53.4703 53.9932 73.7875Z" fill="url(#paint2_linear_2257_1286)"/>
</g>
<defs>
<linearGradient id="paint0_linear_2257_1286" x1="106.578" y1="128.556" x2="106.578" y2="-32.6048" gradientUnits="userSpaceOnUse">
<stop stop-color="#0D52FF" stop-opacity="0"/>
<stop offset="1" stop-color="#1F99FF"/>
</linearGradient>
<linearGradient id="paint1_linear_2257_1286" x1="106.577" y1="113.954" x2="106.577" y2="-57.9509" gradientUnits="userSpaceOnUse">
<stop stop-color="#0D52FF" stop-opacity="0"/>
<stop offset="1" stop-color="#1F99FF"/>
</linearGradient>
<linearGradient id="paint2_linear_2257_1286" x1="127.568" y1="116.266" x2="-21.3063" y2="30.3135" gradientUnits="userSpaceOnUse">
<stop stop-color="#0D52FF" stop-opacity="0"/>
<stop offset="1" stop-color="#1F99FF"/>
</linearGradient>
</defs>
</svg>
