<svg xmlns="http://www.w3.org/2000/svg" width="28" height="28" viewBox="0 0 28 28" fill="none">
  <path fill-rule="evenodd" clip-rule="evenodd" d="M17.7177 16.8834H18.6394L23.586 21.8534C24.0644 22.3317 24.0644 23.1134 23.586 23.5917C23.1077 24.07 22.326 24.07 21.8477 23.5917L16.8894 18.6334V17.7117L16.5744 17.385C14.941 18.785 12.7127 19.5084 10.3444 19.1117C7.10103 18.5634 4.51103 15.8567 4.11436 12.59C3.50769 7.65505 7.66103 3.50171 12.596 4.10838C15.8627 4.50505 18.5694 7.09505 19.1177 10.3384C19.5144 12.7067 18.791 14.935 17.391 16.5684L17.7177 16.8834ZM6.38936 11.6334C6.38936 14.5384 8.73436 16.8834 11.6394 16.8834C14.5444 16.8834 16.8894 14.5384 16.8894 11.6334C16.8894 8.72838 14.5444 6.38338 11.6394 6.38338C8.73436 6.38338 6.38936 8.72838 6.38936 11.6334Z" fill="#3470D1"/>
</svg>
