<svg width="71" height="17" viewBox="0 0 71 17" fill="none" xmlns="http://www.w3.org/2000/svg">
<path d="M15.129 6.43311C15.1891 6.86414 15.2141 7.32424 15.2141 7.7795C15.2141 11.7945 11.9313 15.0587 7.80273 15.1604C7.80273 15.1604 10.0747 14.1579 12.5318 11.0196C14.9489 7.96838 15.129 6.43311 15.129 6.43311Z" fill="#196FB0"/>
<path d="M3.508 16.2012C3.12267 16.2594 2.77237 16.2109 2.50214 16.0511C1.22105 15.3101 2.12182 13.0629 2.20189 12.8304C2.9175 10.7866 4.77409 8.15679 5.02931 6.37936C5.31955 4.46632 4.65398 3.99653 4.11352 3.73016C3.79325 3.54128 2.17686 3.07634 0.895767 5.6432C-0.430368 8.21491 0.755647 10.9949 0.755647 10.9949C0.265227 10.0311 0 8.94138 0 7.78871C0 3.73501 3.43294 0.427141 7.60151 0.417455C8.91263 0.427141 10.1387 0.756474 11.2146 1.29891C11.2146 1.29891 14.052 -0.638349 15.158 0.218886C15.9286 0.843651 15.9086 2.10287 14.9278 4.74238C13.6117 8.09383 10.514 11.3145 8.98269 12.8449C7.58149 14.2301 5.1344 15.9881 3.508 16.2012ZM14.3773 0.974416C13.6617 0.228572 11.7 1.57497 11.7 1.57497C12.6008 2.13193 13.3714 2.86324 13.962 3.73016C13.962 3.735 15.0679 1.68151 14.3773 0.974416Z" fill="#196FB0"/>
<path d="M25.0781 12.1529L20.7344 4.18592H22.9763L26.099 9.7749H26.129L29.0515 4.18592L31.3034 4.17139L27.0948 12.1529H25.0781Z" fill="#196FB0"/>
<path d="M36.9567 4.17139L42.2763 9.51337H42.3263L42.2713 4.17139H44.3381V12.1432H42.1512L36.6615 6.67529L36.6465 6.6995L36.6565 12.1432H34.5697L34.5547 4.17139H36.9567Z" fill="#196FB0"/>
<path d="M55.2676 4.15674C55.8982 4.15674 56.4136 4.23907 56.854 4.37952C57.3044 4.51029 57.6747 4.69917 57.9549 4.94617C58.2001 5.18833 58.4153 5.44986 58.5354 5.75982C58.6405 6.07462 58.7306 6.38458 58.7156 6.71876C58.7156 7.03356 58.6455 7.33868 58.5504 7.65833C58.4203 7.96829 58.2051 8.23466 57.9599 8.48166C57.6797 8.73351 57.3094 8.91754 56.869 9.05799C56.4436 9.20329 55.9032 9.28078 55.2826 9.28078L51.7596 9.29047L51.7696 12.1382H49.5527L49.5627 4.17127L55.2676 4.15674ZM54.6621 7.91986C54.9424 7.91986 55.1675 7.90533 55.3877 7.86658C55.648 7.83268 55.8481 7.76003 56.0083 7.68739C56.2034 7.60021 56.3436 7.48882 56.4486 7.30962C56.5537 7.17401 56.5988 6.96092 56.5988 6.71392C56.5938 6.45723 56.5537 6.24897 56.4486 6.09884C56.3486 5.93417 56.2034 5.81309 56.0083 5.72592C55.8481 5.64842 55.6329 5.57093 55.3977 5.56125C55.1675 5.53219 54.9273 5.51766 54.6571 5.51766H51.7596V7.9247L54.6621 7.91986Z" fill="#196FB0"/>
<path d="M60.9668 5.84215L60.9718 4.15674H70.1597V5.84215H66.6016V12.1285L64.3947 12.1382L64.3897 5.84215H60.9668Z" fill="#196FB0"/>
</svg>
