<svg width="58" height="58" viewBox="0 0 58 58" fill="none" xmlns="http://www.w3.org/2000/svg">
<g clip-path="url(#clip0_3970_93)">
<path d="M22.915 35.5848L27.7487 21.0835C27.9277 20.5463 27.6374 19.9656 27.1001 19.7865C26.563 19.6074 25.9822 19.8977 25.8031 20.435L20.9694 34.9363C20.7904 35.4735 21.0807 36.0542 21.6179 36.2333C21.7255 36.2691 21.8348 36.2862 21.9423 36.2862C22.3716 36.2862 22.7717 36.0145 22.915 35.5848Z" fill="#ECA1D2"/>
<path d="M30.1595 31.0861C31.8557 31.0861 33.2356 29.7062 33.2356 28.01C33.2356 26.3138 31.8557 24.9338 30.1595 24.9338C28.4633 24.9338 27.0833 26.3138 27.0833 28.01C27.0833 29.7062 28.4633 31.0861 30.1595 31.0861ZM30.1595 26.9846C30.7249 26.9846 31.1849 27.4446 31.1849 28.01C31.1849 28.5754 30.7249 29.0354 30.1595 29.0354C29.5941 29.0354 29.1341 28.5754 29.1341 28.01C29.1341 27.4446 29.5941 26.9846 30.1595 26.9846Z" fill="#ECA1D2"/>
<path d="M18.5585 24.9338C16.8623 24.9338 15.4823 26.3138 15.4823 28.01C15.4823 29.7062 16.8623 31.0861 18.5585 31.0861C20.2547 31.0861 21.6347 29.7062 21.6347 28.01C21.6347 26.3138 20.2548 24.9338 18.5585 24.9338ZM18.5585 29.0354C17.9931 29.0354 17.5331 28.5754 17.5331 28.01C17.5331 27.4446 17.9931 26.9846 18.5585 26.9846C19.1239 26.9846 19.5839 27.4446 19.5839 28.01C19.5839 28.5754 19.124 29.0354 18.5585 29.0354Z" fill="#ECA1D2"/>
<path d="M43.7951 24.7151L40.2195 19.9475L40.359 18.9711C40.4046 18.6516 40.2972 18.3292 40.0689 18.101L37.8937 15.9258L40.0689 13.7506C40.4693 13.3503 40.4693 12.701 40.0689 12.3005C39.6685 11.9001 39.0192 11.9001 38.6188 12.3005L36.4436 14.4757L34.2684 12.3005C34.0403 12.0723 33.7179 11.9652 33.3984 12.0105L23.2475 13.4606C23.0278 13.492 22.8243 13.5938 22.6675 13.7506L10.0997 26.3184C8.63375 27.7843 8.63375 30.1696 10.0997 31.6355L20.7339 42.2698C20.9514 42.4873 21.1896 42.6718 21.4416 42.8247V43.2405C21.4416 45.3136 23.1283 47.0002 25.2014 47.0002H40.2405C42.3136 47.0002 44.0002 45.3136 44.0002 43.2405V25.3303C44.0002 25.1085 43.9282 24.8925 43.7951 24.7151ZM11.5498 30.1854C10.8835 29.519 10.8835 28.4348 11.5498 27.7685L23.8758 15.4425L33.1808 14.1132L34.9935 15.9259L33.5434 17.376L32.8183 16.6509C32.4179 16.2505 31.7686 16.2505 31.3682 16.6509C30.9677 17.0513 30.9677 17.7006 31.3682 18.101L34.2684 21.0013C34.4687 21.2015 34.7311 21.3017 34.9935 21.3017C35.2558 21.3017 35.5183 21.2015 35.7185 21.0013C36.1189 20.6009 36.1189 19.9517 35.7185 19.5512L34.9934 18.8261L36.4435 17.376L38.2562 19.1887L36.9269 28.4936L24.6009 40.8196C24.2781 41.1424 23.849 41.3202 23.3925 41.3202C22.936 41.3202 22.5068 41.1424 22.184 40.8196L11.5498 30.1854ZM41.9494 43.2405C41.9494 44.1828 41.1828 44.9494 40.2405 44.9494H25.2014C24.3015 44.9494 23.5624 44.2503 23.4975 43.3666C24.425 43.3409 25.3447 42.976 26.051 42.2698L38.6187 29.702C38.7756 29.5451 38.8774 29.3416 38.9087 29.122L39.8092 22.8186L41.9494 25.6721V43.2405Z" fill="#ECA1D2"/>
</g>
<circle cx="29" cy="29" r="27.5" stroke="#8FD3FF" stroke-width="3"/>
<defs>
<clipPath id="clip0_3970_93">
<rect width="35" height="35" fill="white" transform="translate(9 12)"/>
</clipPath>
</defs>
</svg>
