<svg width="47" height="54" viewBox="0 0 47 54" fill="none" xmlns="http://www.w3.org/2000/svg">
<g clip-path="url(#clip0_1909_225)">
<path d="M0.00011876 17.8072C0.0471599 15.1376 0.176523 12.468 0.47053 9.81051C0.494051 9.58152 0.541092 9.35253 0.594014 9.12956C0.711617 8.6535 0.970343 8.32206 1.44663 8.14128C5.8391 6.4841 10.2198 4.79679 14.6182 3.15166C17.4112 2.10311 20.2278 1.11483 23.0327 0.0903917C23.3561 -0.0301306 23.6442 -0.0301306 23.9676 0.0903917C27.8955 1.52461 31.8294 2.93472 35.7514 4.39304C38.9737 5.59223 42.1725 6.85169 45.3948 8.05691C46.0887 8.31604 46.4474 8.76799 46.5121 9.47908C46.6591 11.088 46.8531 12.697 46.9119 14.306C46.9942 16.4995 47.0354 18.7051 46.9707 20.8986C46.812 26.2799 46.0005 31.5467 44.1012 36.6026C42.0079 42.1768 38.6915 46.7988 33.8286 50.1614C31.1531 52.0114 28.2072 53.2407 25.026 53.8614C23.5031 54.1567 22.0213 53.9397 20.5512 53.53C13.8655 51.6619 8.84386 47.5641 5.28637 41.5199C2.94607 37.5427 1.58776 33.2099 0.811579 28.6602C0.205924 25.0686 -0.00576139 21.4469 0.00011876 17.8072ZM43.7072 18.1024C43.7366 18.1024 43.7602 18.0964 43.7896 18.0964C43.6602 15.7703 43.525 13.4443 43.4015 11.1242C43.3897 10.8952 43.3074 10.7988 43.1016 10.7205C36.8745 8.41245 30.6474 6.11048 24.4321 3.77837C23.8441 3.55541 23.3443 3.56746 22.7739 3.77837C16.4822 6.11048 10.1904 8.42451 3.89866 10.7385C3.72813 10.7988 3.65169 10.8832 3.63993 11.076C3.58113 12.1185 3.46352 13.161 3.44 14.2035C3.36944 17.8373 3.22832 21.471 3.65169 25.0988C3.96922 27.8226 4.44551 30.5162 5.23933 33.1436C6.41536 37.0485 8.21468 40.61 10.9019 43.6592C13.9949 47.1604 17.7523 49.5226 22.2976 50.4747C22.821 50.5832 23.3737 50.6736 23.897 50.6073C25.7669 50.3663 27.531 49.7275 29.2362 48.9079C33.8345 46.7024 37.2038 43.1892 39.5735 38.6274C41.6257 34.6743 42.7135 30.4198 43.278 26.0087C43.6132 23.3813 43.7072 20.7419 43.7072 18.1024Z" fill="#8FD3FF"/>
<path d="M16.6944 22.7908C16.6944 22.6281 16.6944 22.5075 16.6944 22.393C16.7297 20.7178 16.7827 19.0425 16.7885 17.3612C16.7885 15.1557 18.8407 12.7814 21.181 12.7091C22.7275 12.6609 24.2798 12.6247 25.8204 12.7151C27.7962 12.8356 29.131 13.9926 29.9189 15.8125C30.1129 16.2585 30.207 16.7767 30.2305 17.2708C30.2952 18.9762 30.3129 20.6816 30.3481 22.387C30.3481 22.5075 30.3481 22.622 30.3481 22.7546C30.7186 22.7847 31.0714 22.7968 31.4183 22.851C32.3827 23.0017 33.3411 24.0321 33.347 25.0265C33.3647 28.6421 33.3647 32.2518 33.3411 35.8674C33.3353 36.8437 32.2474 37.8922 31.289 37.9163C26.138 38.0609 20.9811 38.0489 15.8301 37.9284C15.3655 37.9163 14.9951 37.7596 14.654 37.4644C14.1013 36.9702 13.6779 36.4279 13.6838 35.6023C13.7015 32.1312 13.725 28.6542 13.6721 25.1831C13.6544 24.0743 14.9363 22.7426 16.0712 22.7968C16.2593 22.7968 16.4534 22.7908 16.6944 22.7908ZM27.0141 22.7727C27.02 22.6883 27.0317 22.616 27.0317 22.5497C27.0141 21.0854 26.9965 19.615 26.9671 18.1507C26.9612 17.8192 26.9259 17.4878 26.8671 17.1624C26.7671 16.5959 26.2908 16.1319 25.7264 16.1138C24.3151 16.0716 22.9039 16.0475 21.4985 16.0656C20.7282 16.0777 20.2578 16.5658 20.1285 17.3432C20.0932 17.5721 20.0638 17.8011 20.0579 18.0301C20.0403 19.5487 20.0226 21.0613 20.0109 22.5799C20.0109 22.6401 20.0226 22.6943 20.0344 22.7667C22.3629 22.7727 24.6679 22.7727 27.0141 22.7727ZM22.4923 32.0951C22.4982 32.0951 22.4982 32.0951 22.504 32.0951C22.504 32.6073 22.504 33.1195 22.504 33.6317C22.504 33.68 22.5099 33.7342 22.5099 33.7824C22.5511 34.4995 22.6687 34.614 23.3625 34.62C23.4331 34.62 23.4978 34.62 23.5683 34.62C24.4033 34.62 24.515 34.5176 24.5327 33.6558C24.5503 32.77 24.568 31.8902 24.5386 31.0044C24.5209 30.4741 24.568 30.01 25.0266 29.6846C25.056 29.6605 25.0795 29.6244 25.1031 29.5942C25.6793 28.8591 25.7205 27.8467 25.1971 27.0753C24.7091 26.3522 23.6624 26.0087 22.8098 26.2919C22.0571 26.545 21.4456 27.467 21.4691 28.3348C21.4809 28.9434 21.7396 29.4436 22.1689 29.8413C22.4276 30.0763 22.5217 30.3355 22.504 30.6789C22.4746 31.149 22.4923 31.625 22.4923 32.0951Z" fill="#87C8FF"/>
</g>
<defs>
<clipPath id="clip0_1909_225">
<rect width="47" height="54" fill="white"/>
</clipPath>
</defs>
</svg>
