<svg width="63" height="61" viewBox="0 0 63 61" fill="none" xmlns="http://www.w3.org/2000/svg">
<circle cx="33" cy="32" r="27.5" stroke="#8FD3FF" stroke-width="3"/>
<path d="M14.4516 38C10.1505 38.5652 1.23871 39.8087 0 40.2609V51L16 48.7391L14.4516 38Z" fill="white"/>
<path d="M43.3819 43.3344C45.1363 43.2043 47.0821 43.1067 49.0279 42.8139C49.4106 42.7488 49.9848 41.9355 49.9848 41.4475C50.0486 33.5744 50.0486 25.7339 49.9848 17.8608C49.9848 17.4053 49.2511 16.5269 48.9003 16.5595C46.6674 16.592 44.4664 16.8523 42.1379 17.0149C42.1379 22.8709 42.1379 28.5968 42.1379 34.4528C41.4361 34.4528 40.8939 34.4528 40.1921 34.4528C40.1921 28.7595 40.1921 23.0987 40.1921 17.2101C37.1618 17.4704 34.291 17.6981 31.1969 17.9584C31.1969 22.2528 31.1969 26.4496 31.1969 30.744C27.7838 31.0368 24.594 31.2971 21.181 31.5899C21.181 27.2629 21.181 23.1312 21.181 18.8368C19.7775 18.9344 18.5653 19.032 17.3532 19.1296C16.3644 19.1947 16.2049 19.8779 16.2049 20.7237C16.2368 23.3915 16.2049 26.0267 16.2049 28.6944C16.2049 29.2149 16.2049 29.768 16.2049 30.3861C15.535 30.3861 14.9928 30.3861 14.291 30.3861C14.291 26.7749 14.1953 23.1637 14.3548 19.5525C14.4186 18.056 15.6307 17.2752 17.1299 17.1451C23.1586 16.6245 29.1873 16.0715 35.216 15.5835C39.5542 15.2256 43.8923 14.8677 48.2304 14.5099C50.9417 14.3147 52.0263 15.3883 52.0263 18.1861C52.0263 25.8315 52.0263 33.4768 52.0263 41.1221C52.0263 43.7248 51.165 44.6683 48.7089 44.9285C47.114 45.0912 45.5191 45.1563 43.9561 45.4165C43.5095 45.4816 42.8715 45.9371 42.744 46.3275C41.3723 50.3616 38.5972 52.6715 34.4824 52.8667C30.4952 53.0619 27.5924 51.0448 25.8381 47.3685C25.8062 47.2709 25.7105 47.2059 25.5829 46.9781C23.2224 47.1408 20.7982 47.336 18.3739 47.5312C15.2479 47.7915 14.1953 46.8155 14.1953 43.5947C14.1953 43.0091 14.1953 42.4235 14.1953 41.7728C14.8971 41.7728 15.4074 41.7728 16.0454 41.7728C16.0773 42.1957 16.173 42.5861 16.173 43.0091C16.2049 45.6443 16.2049 45.6768 18.8843 45.4816C20.9258 45.3515 22.9991 45.1237 25.0087 44.9611C25.9975 36.3723 32.6323 31.9803 38.5015 35.9819C38.2464 36.4373 37.9912 36.8928 37.6403 37.5109C35.3436 36.5675 32.9194 36.1445 30.7822 37.6085C29.602 38.4219 28.4856 39.5931 27.8157 40.8619C26.3484 43.6597 27.2416 47.2384 29.6339 49.2229C31.9944 51.2075 35.4074 51.4027 37.9593 49.6784C40.5111 47.9541 41.6275 44.7659 40.7344 41.9029C38.661 44.0827 36.5877 46.2299 34.5143 48.4096C32.9832 46.848 31.803 45.6443 30.4952 44.3104C30.846 43.9525 31.2607 43.5621 31.7392 43.0741C32.5685 43.8549 33.3022 44.5381 34.2272 45.4165C36.5239 42.944 38.7886 40.5365 41.3404 37.8363C42.106 39.8208 42.7121 41.48 43.3819 43.3344ZM23.2862 18.6416C23.2862 22.2853 23.2862 25.7989 23.2862 29.3776C25.2958 29.1824 27.1778 29.0197 28.996 28.8571C28.996 25.1808 28.996 21.7323 28.996 18.1536C27.0183 18.3163 25.1363 18.4789 23.2862 18.6416Z" fill="#87C8FF"/>
<path d="M12.378 44.9611C9.34769 45.5792 6.50877 46.1323 3.47847 46.7504C3.31898 46.1648 3.19139 45.5792 3 44.7984C6.0303 44.2128 8.90112 43.6272 11.8676 43.0416C12.0271 43.6272 12.1866 44.1803 12.378 44.9611Z" fill="#87C8FF"/>
<path d="M16.0468 37.4784C16.1106 38.3568 16.1425 38.8773 16.2063 39.4955C13.8778 39.8859 11.6768 40.2763 9.34828 40.6341C9.25258 39.9509 9.15689 39.4304 9.0293 38.6496C11.3578 38.2592 13.5907 37.8688 16.0468 37.4784Z" fill="#87C8FF"/>
<path d="M12.3782 35.5589C12.2506 34.7781 12.1549 34.2576 12.0273 33.5744C14.0369 33.2491 15.9189 32.9237 17.9604 32.5659C18.088 33.2165 18.1517 33.7696 18.3112 34.5504C16.3017 34.8757 14.4197 35.2011 12.3782 35.5589Z" fill="#87C8FF"/>
</svg>
