<svg width="62" height="62" viewBox="0 0 62 62" fill="none" xmlns="http://www.w3.org/2000/svg">
<path d="M42.945 19.373C46.5511 19.373 49.8333 20.8538 52.2115 23.2393C54.5898 25.6205 56.0657 28.9065 56.0657 32.5204V38.5693C56.0657 42.2854 54.4847 46.3571 51.9626 49.3903C49.6182 52.2151 46.446 54.1667 42.945 54.1667C39.4444 54.1667 36.2727 52.2151 33.9274 49.3903C31.4076 46.3571 29.8242 42.2854 29.8242 38.5693V32.5204C29.8242 28.907 31.2996 25.6205 33.6794 23.2393C36.0576 20.8538 39.3388 19.373 42.945 19.373ZM50.8427 24.6009C48.818 22.5709 46.0217 21.3125 42.945 21.3125C39.8692 21.3125 37.0729 22.5709 35.0472 24.6009C33.0216 26.6333 31.7637 29.4369 31.7637 32.5204V38.5693C31.7637 41.8529 33.1703 45.4595 35.4105 48.1585C37.4115 50.5653 40.0668 52.2272 42.945 52.2272C45.8231 52.2272 48.4785 50.5649 50.4804 48.1585C52.7206 45.4595 54.1292 41.8529 54.1292 38.5693V32.5204C54.1292 29.4369 52.8708 26.6329 50.8427 24.6009Z" fill="#87C8FF"/>
<path d="M24.8579 33.3254H27.8242C28.9087 33.3254 29.8925 33.7691 30.6065 34.4807C30.6254 34.5025 30.6447 34.5214 30.6612 34.5432C31.3417 35.2499 31.7622 36.2099 31.7622 37.2629V39.8616C31.7622 40.9413 31.32 41.9221 30.6065 42.639H30.604L30.6016 42.6409L30.5992 42.6438C29.8848 43.3554 28.9039 43.7971 27.8242 43.7971H25.5007C25.0565 43.7971 24.653 43.6155 24.3614 43.3239C24.3353 43.2982 24.311 43.2721 24.2902 43.2425C24.0393 42.9587 23.8887 42.5886 23.8887 42.1847V34.2942C23.8882 33.7594 24.3227 33.3254 24.8579 33.3254ZM27.8242 35.2639H25.8252V41.8606H27.8242C28.3759 41.8606 28.8748 41.6354 29.2357 41.275L29.2405 41.2731C29.6014 40.9117 29.8232 40.4133 29.8232 39.8616V37.2629C29.8232 36.733 29.6154 36.2506 29.2788 35.8902C29.2643 35.8781 29.2497 35.8665 29.2357 35.8515C28.8748 35.4891 28.3735 35.2639 27.8242 35.2639Z" fill="#87C8FF"/>
<path d="M25.8257 34.2942C25.8257 34.8294 25.3936 35.2639 24.8584 35.2639C24.3232 35.2639 23.8887 34.8299 23.8887 34.2942V31.4073C23.8887 26.8174 25.7327 21.9838 29.4653 18.5137C32.6176 15.5833 37.1058 13.6317 42.945 13.6317C48.7841 13.6317 53.2709 15.5833 56.4232 18.5137C60.1562 21.9838 62.0003 26.8174 62.0003 31.4073V34.2942C62.0003 34.8294 61.5677 35.2639 61.0325 35.2639C60.4977 35.2639 60.0637 34.8299 60.0637 34.2942V31.4073C60.0637 27.3163 58.4251 23.0126 55.1076 19.93C52.2919 17.3125 48.2489 15.5687 42.9454 15.5687C37.644 15.5687 33.6004 17.3125 30.7823 19.93C27.4643 23.0126 25.8262 27.3163 25.8262 31.4068L25.8257 34.2942Z" fill="#87C8FF"/>
<path d="M60.0625 35.2639H58.0635C57.5118 35.2639 57.0133 35.4862 56.652 35.8466L56.65 35.8495L56.652 35.8514C56.2897 36.2147 56.0654 36.7141 56.0654 37.2629V39.8616C56.0654 40.4104 56.2897 40.9098 56.652 41.2731C57.0153 41.6354 57.5147 41.8606 58.0635 41.8606H60.0625V35.2639ZM58.0635 33.3254H61.0322C61.5674 33.3254 62 33.7594 62 34.2942V42.1851C62 42.5862 61.8484 42.9543 61.6028 43.2382C61.579 43.2692 61.5553 43.2977 61.5272 43.3244C61.2356 43.616 60.8317 43.7976 60.387 43.7976H58.0635C56.9794 43.7976 55.9952 43.3559 55.2812 42.6414C54.5697 41.9299 54.125 40.9432 54.125 39.8621V37.2629C54.125 36.1789 54.5697 35.1946 55.2812 34.4807L55.2841 34.4836C56.0005 33.7691 56.9843 33.3245 58.0635 33.3245V33.3254Z" fill="#87C8FF"/>
<path d="M30.4765 34.7311C29.9723 34.5573 29.7073 34.0055 29.8817 33.5013C30.0585 32.998 30.6078 32.7321 31.1115 32.907C31.128 32.9138 37.1057 35.0707 39.0025 28.1829C39.1434 27.667 39.6734 27.3638 40.1868 27.5047C40.5133 27.5929 40.7545 27.8414 40.8528 28.1398C40.8606 28.1611 43.1526 35.7319 55.0058 34.5834C55.5357 34.533 56.0084 34.922 56.0588 35.4529C56.1092 35.9828 55.7173 36.4555 55.1864 36.5059C45.9804 37.3991 41.7988 33.418 40.0773 30.8217C37.049 37.1012 30.4978 34.7389 30.4765 34.7311Z" fill="#87C8FF"/>
<path d="M57.8573 42.8274C57.8573 42.2927 58.2913 41.8606 58.827 41.8606C59.3617 41.8606 59.7957 42.2931 59.7957 42.8274C59.7957 47.7874 58.3872 51.4004 56.4288 54.0039C53.493 57.9065 49.3337 59.5059 46.8208 59.9869C46.2976 60.0871 45.7895 59.7428 45.6893 59.2177C45.589 58.6917 45.9324 58.1855 46.4585 58.0852C48.6648 57.6653 52.3145 56.263 54.8842 52.8462C56.6124 50.5464 57.8573 47.3176 57.8573 42.8274Z" fill="#87C8FF"/>
<path d="M40.257 56.0703H45.6336C46.1727 56.0703 46.6677 56.2946 47.0261 56.6501L47.0281 56.6549C47.3865 57.0105 47.6079 57.5055 47.6079 58.0475V60.0247C47.6079 60.5668 47.3865 61.0589 47.0281 61.4173L47.0261 61.4222C46.6677 61.7777 46.1727 62 45.6336 62H40.257C39.713 62 39.218 61.7777 38.8605 61.4222C38.8368 61.3975 38.815 61.3718 38.7932 61.3476C38.4755 60.9964 38.2793 60.5338 38.2793 60.0252V58.048C38.2793 57.506 38.5016 57.011 38.8601 56.6554L38.8649 56.6506C39.2214 56.2946 39.715 56.0703 40.257 56.0703ZM45.6336 58.0097H40.257C40.2459 58.0097 40.2362 58.0117 40.2284 58.0194C40.2216 58.0262 40.2187 58.0354 40.2187 58.048V60.0252C40.2187 60.033 40.2187 60.0393 40.2216 60.0441L40.2313 60.0519C40.2381 60.0587 40.2473 60.063 40.257 60.063H45.6336C45.6432 60.063 45.6525 60.0582 45.6592 60.0533C45.667 60.0465 45.6689 60.0373 45.6689 60.0247V58.0475C45.6689 58.0354 45.667 58.0257 45.6592 58.018C45.6525 58.0112 45.6432 58.0083 45.6336 58.0083V58.0097Z" fill="#87C8FF"/>
<path d="M38.1025 38.7054C38.8402 38.7054 39.4404 39.3022 39.4404 40.0423C39.4404 40.781 38.8407 41.3782 38.1025 41.3782C37.3643 41.3782 36.7676 40.7815 36.7676 40.0423C36.7676 39.3027 37.3648 38.7054 38.1025 38.7054ZM47.7842 38.7054C48.5219 38.7054 49.122 39.3022 49.122 40.0423C49.122 40.781 48.5224 41.3782 47.7842 41.3782C47.046 41.3782 46.4473 40.7815 46.4473 40.0423C46.4478 39.3027 47.0465 38.7054 47.7842 38.7054Z" fill="#87C8FF"/>
<path d="M44.7183 46.2428C45.1319 45.9014 45.7398 45.959 46.0813 46.3697C46.4209 46.7824 46.3632 47.3913 45.9525 47.7328C45.5185 48.0931 45.0375 48.3876 44.5221 48.5882C44.0208 48.7858 43.4899 48.8967 42.943 48.8967C42.3962 48.8967 41.8692 48.7858 41.3649 48.5882C40.8486 48.3876 40.3686 48.0936 39.9346 47.7328C39.5229 47.3913 39.4662 46.7819 39.8048 46.3697C40.1463 45.958 40.7556 45.9014 41.1688 46.2428C41.4507 46.4763 41.7534 46.6657 42.0692 46.7868C42.3482 46.8977 42.6418 46.9587 42.9435 46.9587C43.2463 46.9587 43.5379 46.8972 43.8178 46.7868C44.1336 46.6657 44.4373 46.4763 44.7183 46.2428Z" fill="#87C8FF"/>
<path d="M20.9604 23.512C21.4951 23.512 21.9301 23.9465 21.9301 24.4813C21.9301 25.016 21.4956 25.451 20.9604 25.451H18.2067V32.8929C18.2067 33.2867 18.0827 33.6592 17.8604 33.9716L17.8628 33.9745C17.6429 34.285 17.33 34.5263 16.9531 34.6595C16.5758 34.7936 16.1815 34.8033 15.8187 34.7001C15.4535 34.595 15.1212 34.3805 14.8684 34.0671L7.91663 25.451H2.78661C2.02227 25.451 1.32719 25.1381 0.821016 24.6319H0.818594L0.816172 24.6295L0.81375 24.6271C0.31 24.1204 0 23.4253 0 22.6639V2.78661C0 2.02227 0.312906 1.32719 0.816656 0.821016L0.818594 0.819078L0.821016 0.816656L0.823438 0.814234C1.32767 0.310484 2.02227 0 2.78661 0H34.2395C35.0058 0 35.7028 0.312906 36.2075 0.816656C36.7122 1.32041 37.0242 2.01791 37.0242 2.78661V9.66473C37.0242 10.1995 36.5916 10.634 36.0574 10.634C35.5221 10.634 35.0876 10.1995 35.0876 9.66473V2.78661C35.0876 2.55266 34.9922 2.34002 34.8387 2.18744C34.6837 2.03195 34.4715 1.93653 34.24 1.93653H2.78661C2.55023 1.93653 2.33759 2.03195 2.18744 2.18259L2.18259 2.18744C2.03195 2.33808 1.93653 2.55072 1.93653 2.78661V22.6639C1.93653 22.9003 2.03195 23.11 2.18259 23.2631L2.18744 23.2655C2.33808 23.4181 2.55072 23.5116 2.78661 23.5116H7.94036C8.18642 23.5116 8.4228 23.5595 8.64706 23.6501C8.68291 23.6617 8.71633 23.6763 8.74975 23.6932C8.99823 23.8128 9.21766 23.9867 9.40172 24.2139L16.2677 32.7258V25.389C16.2677 24.9114 16.4513 24.4745 16.7502 24.1398C16.7715 24.1136 16.7957 24.0875 16.8194 24.0633C17.1585 23.7242 17.6288 23.5116 18.1447 23.5116L20.9604 23.512Z" fill="#8FD3FF"/>
<path d="M8.9878 61.0332C8.9878 61.568 8.55573 62.0001 8.0205 62.0001C7.48527 62.0001 7.05078 61.5675 7.05078 61.0332V51.9265C7.05078 51.3918 7.48527 50.9568 8.0205 50.9568H14.3992C14.934 50.9568 15.3685 51.3918 15.3685 51.9265V61.0332C15.3685 61.568 14.934 62.0001 14.3992 62.0001C13.8645 62.0001 13.4319 61.5675 13.4319 61.0332V52.8943H8.9878V61.0332Z" fill="#8FD3FF"/>
<path d="M3.99903 41.0818L6.09831 37.8191C6.28721 37.526 6.55943 37.3129 6.87234 37.1957C7.18282 37.0814 7.52673 37.0649 7.86095 37.1628C8.19517 37.2611 8.47514 37.4616 8.67276 37.7266C8.87329 37.9944 8.98809 38.3209 8.98809 38.6667V45.0552C8.98809 45.1196 9.01425 45.1772 9.05736 45.2198L9.07867 45.2416C9.11693 45.2726 9.16973 45.2901 9.22446 45.2901H11.2119H13.1963C13.2608 45.2901 13.3203 45.2634 13.3634 45.2198L13.3848 45.199C13.4138 45.1603 13.4327 45.1099 13.4327 45.0552V38.6667C13.4327 38.3204 13.5451 37.9959 13.7456 37.7266H13.7432C13.9418 37.4616 14.2232 37.2611 14.5599 37.1628C14.8941 37.0644 15.238 37.0814 15.5509 37.1957C15.8614 37.3129 16.1336 37.526 16.3225 37.8191L18.4218 41.0818L18.493 41.1961C18.694 41.4892 18.8776 41.7619 18.9299 42.2322L19.5126 47.4533C19.5509 47.8045 19.5053 48.1479 19.3837 48.4705C19.2597 48.795 19.0612 49.0818 18.7962 49.3162C18.7797 49.3303 18.7628 49.3472 18.7439 49.3617L15.0399 52.6473C14.8558 52.81 14.6291 52.8914 14.4 52.8914V52.8933H11.2119H8.02128C7.74422 52.8933 7.49331 52.779 7.31651 52.5925L3.62654 49.3162C3.35917 49.0769 3.16106 48.7902 3.03657 48.4705C2.915 48.1479 2.86946 47.8045 2.90773 47.4533L3.49043 42.2322C3.54275 41.7619 3.72681 41.4926 3.92492 41.1961H3.92298L3.99903 41.0818ZM7.05107 39.9116L5.62507 42.1271C5.56792 42.2162 5.54903 42.2472 5.52723 42.2778L5.52481 42.2758L5.52239 42.2778C5.46523 42.362 5.41243 42.4405 5.41243 42.4434L4.83021 47.6655C4.82537 47.7139 4.82779 47.7546 4.8399 47.7827C4.84959 47.8093 4.87332 47.8403 4.90675 47.8718L8.38165 50.9568H11.2119H14.0396L17.4642 47.9164C17.4782 47.9004 17.4952 47.8858 17.5121 47.8708C17.548 47.8379 17.5717 47.8064 17.5833 47.7827C17.593 47.7541 17.5954 47.7134 17.5906 47.6655L17.0079 42.4424C17.0079 42.4405 16.9556 42.362 16.8979 42.2778C16.8384 42.1896 16.8069 42.147 16.7952 42.1271L15.3697 39.9116V45.0552C15.3697 45.6161 15.1522 46.13 14.7962 46.5194C14.7773 46.5432 14.7555 46.5669 14.7318 46.5901C14.3399 46.982 13.7955 47.2276 13.1963 47.2276H11.2119H9.22446C8.66065 47.2276 8.14528 47.0082 7.75826 46.6521C7.73453 46.6333 7.71031 46.6115 7.689 46.5897C7.2952 46.1959 7.05156 45.6538 7.05156 45.0542V39.9116H7.05107Z" fill="#8FD3FF"/>
<path d="M28.3662 6.58899C28.901 6.58899 29.3335 7.02347 29.3335 7.55871C29.3335 8.09346 28.901 8.52794 28.3662 8.52794H7.11183C6.57708 8.52794 6.14453 8.09346 6.14453 7.55871C6.14453 7.02396 6.57708 6.58899 7.11183 6.58899H28.3662Z" fill="#8FD3FF"/>
<path d="M21.1849 15.3799C21.7196 15.3799 22.1522 15.8144 22.1522 16.3491C22.1522 16.8839 21.7196 17.3184 21.1849 17.3184H7.11183C6.57708 17.3184 6.14453 16.8839 6.14453 16.3491C6.14453 15.8144 6.57708 15.3799 7.11183 15.3799H21.1849Z" fill="#8FD3FF"/>
<path d="M28.3662 10.9856C28.901 10.9856 29.3335 11.4181 29.3335 11.9529C29.3335 12.4876 28.901 12.9221 28.3662 12.9221H7.11183C6.57708 12.9221 6.14453 12.4876 6.14453 11.9529C6.14453 11.4181 6.57708 10.9856 7.11183 10.9856H28.3662Z" fill="#8FD3FF"/>
</svg>
