<svg width="63" height="61" viewBox="0 0 63 61" fill="none" xmlns="http://www.w3.org/2000/svg">
<circle cx="33" cy="32" r="27.5" stroke="#8FD3FF" stroke-width="3"/>
<path d="M14.4516 38C10.1505 38.5652 1.23871 39.8087 0 40.2609V51L16 48.7391L14.4516 38Z" fill="white"/>
<path d="M43.3828 43.3344C45.1372 43.2043 47.0829 43.1067 49.0287 42.8139C49.4115 42.7488 49.9856 41.9355 49.9856 41.4475C50.0494 33.5744 50.0494 25.7339 49.9856 17.8608C49.9856 17.4053 49.252 16.5269 48.9011 16.5595C46.6683 16.592 44.4673 16.8523 42.1388 17.0149C42.1388 22.8709 42.1388 28.5968 42.1388 34.4528C41.437 34.4528 40.8947 34.4528 40.193 34.4528C40.193 28.7595 40.193 23.0987 40.193 17.2101C37.1627 17.4704 34.2919 17.6981 31.1978 17.9584C31.1978 22.2528 31.1978 26.4496 31.1978 30.744C27.7847 31.0368 24.5949 31.2971 21.1818 31.5899C21.1818 27.2629 21.1818 23.1312 21.1818 18.8368C19.7783 18.9344 18.5662 19.032 17.3541 19.1296C16.3652 19.1947 16.2057 19.8779 16.2057 20.7237C16.2376 23.3915 16.2057 26.0267 16.2057 28.6944C16.2057 29.2149 16.2057 29.768 16.2057 30.3861C15.5359 30.3861 14.9936 30.3861 14.2919 30.3861C14.2919 26.7749 14.1962 23.1637 14.3557 19.5525C14.4195 18.056 15.6316 17.2752 17.1308 17.1451C23.1595 16.6245 29.1882 16.0715 35.2169 15.5835C39.555 15.2256 43.8931 14.8677 48.2313 14.5099C50.9426 14.3147 52.0271 15.3883 52.0271 18.1861C52.0271 25.8315 52.0271 33.4768 52.0271 41.1221C52.0271 43.7248 51.1659 44.6683 48.7097 44.9285C47.1148 45.0912 45.5199 45.1563 43.9569 45.4165C43.5104 45.4816 42.8724 45.9371 42.7448 46.3275C41.3732 50.3616 38.5981 52.6715 34.4832 52.8667C30.496 53.0619 27.5933 51.0448 25.8389 47.3685C25.807 47.2709 25.7113 47.2059 25.5837 46.9781C23.2233 47.1408 20.799 47.336 18.3748 47.5312C15.2488 47.7915 14.1962 46.8155 14.1962 43.5947C14.1962 43.0091 14.1962 42.4235 14.1962 41.7728C14.8979 41.7728 15.4083 41.7728 16.0462 41.7728C16.0781 42.1957 16.1738 42.5861 16.1738 43.0091C16.2057 45.6443 16.2057 45.6768 18.8852 45.4816C20.9266 45.3515 23 45.1237 25.0096 44.9611C25.9984 36.3723 32.6332 31.9803 38.5024 35.9819C38.2472 36.4373 37.992 36.8928 37.6411 37.5109C35.3445 36.5675 32.9202 36.1445 30.7831 37.6085C29.6029 38.4219 28.4864 39.5931 27.8166 40.8619C26.3493 43.6597 27.2424 47.2384 29.6348 49.2229C31.9952 51.2075 35.4083 51.4027 37.9601 49.6784C40.512 47.9541 41.6284 44.7659 40.7352 41.9029C38.6619 44.0827 36.5885 46.2299 34.5151 48.4096C32.984 46.848 31.8038 45.6443 30.496 44.3104C30.8469 43.9525 31.2616 43.5621 31.74 43.0741C32.5694 43.8549 33.303 44.5381 34.2281 45.4165C36.5247 42.944 38.7895 40.5365 41.3413 37.8363C42.1069 39.8208 42.7129 41.48 43.3828 43.3344ZM23.2871 18.6416C23.2871 22.2853 23.2871 25.7989 23.2871 29.3776C25.2966 29.1824 27.1786 29.0197 28.9968 28.8571C28.9968 25.1808 28.9968 21.7323 28.9968 18.1536C27.0191 18.3163 25.1372 18.4789 23.2871 18.6416Z" fill="#ECA1D2"/>
<path d="M12.378 44.9611C9.34769 45.5792 6.50877 46.1323 3.47847 46.7504C3.31898 46.1648 3.19139 45.5792 3 44.7984C6.0303 44.2128 8.90112 43.6272 11.8676 43.0416C12.0271 43.6272 12.1866 44.1803 12.378 44.9611Z" fill="#ECA1D2"/>
<path d="M16.0462 37.4784C16.11 38.3568 16.1419 38.8773 16.2057 39.4955C13.8772 39.8859 11.6762 40.2763 9.34768 40.6341C9.25199 39.9509 9.15629 39.4304 9.0287 38.6496C11.3573 38.2592 13.5901 37.8688 16.0462 37.4784Z" fill="#ECA1D2"/>
<path d="M12.378 35.5589C12.2504 34.7781 12.1547 34.2576 12.0271 33.5744C14.0367 33.2491 15.9187 32.9237 17.9601 32.5659C18.0877 33.2165 18.1515 33.7696 18.311 34.5504C16.3014 34.8757 14.4195 35.2011 12.378 35.5589Z" fill="#ECA1D2"/>
</svg>
