<svg width="47" height="54" viewBox="0 0 47 54" fill="none" xmlns="http://www.w3.org/2000/svg">
<g clip-path="url(#clip0_1909_225)">
<path d="M-4.90863e-05 17.8072C0.0469921 15.1376 0.176355 12.468 0.470363 9.81051C0.493883 9.58152 0.540924 9.35253 0.593846 9.12956C0.711449 8.6535 0.970175 8.32206 1.44647 8.14128C5.83894 6.4841 10.2196 4.79679 14.618 3.15166C17.4111 2.10311 20.2277 1.11483 23.0325 0.0903917C23.3559 -0.0301306 23.644 -0.0301306 23.9674 0.0903917C27.8954 1.52461 31.8292 2.93472 35.7512 4.39304C38.9736 5.59223 42.1724 6.85169 45.3947 8.05691C46.0885 8.31604 46.4472 8.76799 46.5119 9.47908C46.6589 11.088 46.853 12.697 46.9118 14.306C46.9941 16.4995 47.0352 18.7051 46.9706 20.8986C46.8118 26.2799 46.0003 31.5467 44.101 36.6026C42.0077 42.1768 38.6913 46.7988 33.8284 50.1614C31.153 52.0114 28.207 53.2407 25.0259 53.8614C23.5029 54.1567 22.0211 53.9397 20.5511 53.53C13.8653 51.6619 8.84369 47.5641 5.2862 41.5199C2.9459 37.5427 1.58759 33.2099 0.811411 28.6602C0.205756 25.0686 -0.00592923 21.4469 -4.90863e-05 17.8072ZM43.7071 18.1024C43.7365 18.1024 43.76 18.0964 43.7894 18.0964C43.66 15.7703 43.5248 13.4443 43.4013 11.1242C43.3895 10.8952 43.3072 10.7988 43.1014 10.7205C36.8743 8.41245 30.6473 6.11048 24.432 3.77837C23.8439 3.55541 23.3441 3.56746 22.7738 3.77837C16.482 6.11048 10.1902 8.42451 3.89849 10.7385C3.72796 10.7988 3.65152 10.8832 3.63976 11.076C3.58096 12.1185 3.46336 13.161 3.43984 14.2035C3.36927 17.8373 3.22815 21.471 3.65152 25.0988C3.96905 27.8226 4.44534 30.5162 5.23916 33.1436C6.41519 37.0485 8.21451 40.61 10.9017 43.6592C13.9947 47.1604 17.7521 49.5226 22.2975 50.4747C22.8208 50.5832 23.3735 50.6736 23.8969 50.6073C25.7668 50.3663 27.5308 49.7275 29.236 48.9079C33.8343 46.7024 37.2036 43.1892 39.5733 38.6274C41.6255 34.6743 42.7133 30.4198 43.2778 26.0087C43.613 23.3813 43.7071 20.7419 43.7071 18.1024Z" fill="#8FD3FF"/>
<path d="M16.6937 22.7908C16.6937 22.6281 16.6937 22.5075 16.6937 22.393C16.729 20.7178 16.7819 19.0425 16.7878 17.3612C16.7878 15.1557 18.84 12.7814 21.1803 12.7091C22.7268 12.6609 24.2791 12.6247 25.8197 12.7151C27.7954 12.8356 29.1302 13.9926 29.9182 15.8125C30.1122 16.2585 30.2063 16.7767 30.2298 17.2708C30.2945 18.9762 30.3121 20.6816 30.3474 22.387C30.3474 22.5075 30.3474 22.622 30.3474 22.7546C30.7179 22.7847 31.0707 22.7968 31.4176 22.851C32.382 23.0017 33.3404 24.0321 33.3463 25.0265C33.3639 28.6421 33.3639 32.2518 33.3404 35.8674C33.3345 36.8437 32.2467 37.8922 31.2883 37.9163C26.1372 38.0609 20.9804 38.0489 15.8294 37.9284C15.3648 37.9163 14.9944 37.7596 14.6533 37.4644C14.1006 36.9702 13.6772 36.4279 13.6831 35.6023C13.7007 32.1312 13.7243 28.6542 13.6713 25.1831C13.6537 24.0743 14.9356 22.7426 16.0704 22.7968C16.2586 22.7968 16.4526 22.7908 16.6937 22.7908ZM27.0134 22.7727C27.0193 22.6883 27.031 22.616 27.031 22.5497C27.0134 21.0854 26.9957 19.615 26.9663 18.1507C26.9605 17.8192 26.9252 17.4878 26.8664 17.1624C26.7664 16.5959 26.2901 16.1319 25.7256 16.1138C24.3144 16.0716 22.9032 16.0475 21.4978 16.0656C20.7275 16.0777 20.2571 16.5658 20.1277 17.3432C20.0925 17.5721 20.0631 17.8011 20.0572 18.0301C20.0395 19.5487 20.0219 21.0613 20.0101 22.5799C20.0101 22.6401 20.0219 22.6943 20.0337 22.7667C22.3622 22.7727 24.6672 22.7727 27.0134 22.7727ZM22.4916 32.0951C22.4974 32.0951 22.4974 32.0951 22.5033 32.0951C22.5033 32.6073 22.5033 33.1195 22.5033 33.6317C22.5033 33.68 22.5092 33.7342 22.5092 33.7824C22.5504 34.4995 22.668 34.614 23.3618 34.62C23.4324 34.62 23.4971 34.62 23.5676 34.62C24.4026 34.62 24.5143 34.5176 24.532 33.6558C24.5496 32.77 24.5672 31.8902 24.5378 31.0044C24.5202 30.4741 24.5672 30.01 25.0259 29.6846C25.0553 29.6605 25.0788 29.6244 25.1023 29.5942C25.6786 28.8591 25.7198 27.8467 25.1964 27.0753C24.7084 26.3522 23.6617 26.0087 22.8091 26.2919C22.0564 26.545 21.4449 27.467 21.4684 28.3348C21.4802 28.9434 21.7389 29.4436 22.1681 29.8413C22.4269 30.0763 22.521 30.3355 22.5033 30.6789C22.4739 31.149 22.4916 31.625 22.4916 32.0951Z" fill="#ECA1D2"/>
</g>
<defs>
<clipPath id="clip0_1909_225">
<rect width="47" height="54" fill="white"/>
</clipPath>
</defs>
</svg>
