<svg width="54" height="54" viewBox="0 0 54 54" fill="none" xmlns="http://www.w3.org/2000/svg">
<path d="M49.0039 11.5059C50.084 9.68347 49.8414 7.28902 48.2762 5.72376C46.7111 4.1586 44.3165 3.91599 42.494 4.99602C17.557 -11.9328 -11.9268 17.5782 4.99612 42.494C3.91618 44.3165 4.15858 46.7108 5.72395 48.2762C7.2926 49.8449 9.68737 50.0816 11.506 49.0039C36.4433 65.9328 65.927 36.4221 49.0039 11.5059ZM27.0001 50.7545C22.0058 50.7545 17.3678 49.204 13.539 46.561C14.1579 44.8758 13.7932 42.908 12.4426 41.5573C11.092 40.2065 9.12401 39.8419 7.43882 40.4609C-7.16017 18.626 18.644 -7.15541 40.4611 7.43894C39.8422 9.12414 40.2067 11.0921 41.5574 12.4428C42.9021 13.7874 44.8648 14.162 46.5611 13.539C57.4267 28.8953 45.9471 50.937 27.0001 50.7545Z" fill="#8FD3FF"/>
<path d="M27 22.249C24.3803 22.249 22.2491 24.3804 22.2491 26.9999C22.488 33.294 31.5131 33.2922 31.7509 26.9998C31.7509 24.3803 29.6196 22.249 27 22.249Z" fill="#CF148F" fill-opacity="0.4"/>
<path d="M42.1341 22.3324C40.5934 17.3474 36.6526 13.4065 31.6677 11.8659C30.6187 6.738 23.3794 6.74169 22.3323 11.8659C17.3474 13.4065 13.4066 17.3474 11.866 22.3324C6.7382 23.3811 6.74179 30.6207 11.8659 31.6676C13.4066 36.6526 17.3474 40.5934 22.3323 42.134C23.3815 47.2618 30.6206 47.2583 31.6677 42.134C36.6526 40.5934 40.5935 36.6526 42.1341 31.6676C47.2619 30.6187 47.2583 23.3793 42.1341 22.3324ZM31.1627 38.9657C29.3537 35.6861 24.6488 35.6818 22.8374 38.9657C19.1947 37.6949 16.3052 34.8053 15.0343 31.1627C18.314 29.3537 18.3185 24.6488 15.0344 22.8374C16.3052 19.1948 19.1949 16.3052 22.8374 15.0343C24.6466 18.3139 29.3512 18.3183 31.1627 15.0343C34.8054 16.3052 37.695 19.1948 38.9658 22.8373C35.6861 24.6465 35.6819 29.3513 38.9658 31.1627C37.695 34.8054 34.8054 37.6949 31.1627 38.9657Z" fill="#ECA1D2"/>
</svg>
