<svg width="20" height="20" viewBox="0 0 20 20" fill="none" xmlns="http://www.w3.org/2000/svg">
<circle cx="10" cy="10" r="10" fill="#8FD3FF"/>
<path d="M8.8616 12.6621C9.28916 12.2187 12.9472 8.56066 14.3408 7.18295C14.4358 7.10377 14.5625 7.00876 14.6892 6.97708C14.9267 6.91374 15.1642 7.04043 15.2751 7.24629C15.3859 7.45216 15.3543 7.70553 15.1642 7.89556C14.7367 8.32312 10.8094 12.2029 9.28916 13.7231C9.09913 13.9132 8.89327 14.0082 8.6399 13.9132C8.54488 13.8656 8.4657 13.8181 8.38652 13.739C7.51556 12.8838 6.64459 12.0287 5.77362 11.1736C5.52025 10.9202 5.50441 10.6035 5.72611 10.3659C5.94781 10.1442 6.2962 10.1601 6.53374 10.3976C7.26218 11.1102 8.78242 12.5988 8.8616 12.6621Z" fill="#175AC7" stroke="#175AC7"/>
</svg>
