<svg xmlns="http://www.w3.org/2000/svg" width="24" height="24" viewBox="0 0 24 24" fill="none">
  <g clip-path="url(#clip0_2257_1705)">
    <path d="M24 12C24 9.7 23.9 7.6 23.5 6.4C23.1 5 22.6 3.7 21.4 2.5C19.9 1.1 18.6 0.7 16.6 0.3C15.2 0.1 13.5 0 12.5 0C12.2 0 11.9 0 11.6 0C10.5 0 8.9 0.1 7.4 0.3C5.4 0.7 4 1.2 2.6 2.5C1.3 3.7 0.9 5 0.5 6.4C0.1 7.6 0 9.7 0 12C0 14.3 0.1 16.4 0.5 17.6C0.9 19 1.4 20.3 2.6 21.5C4.1 22.9 5.4 23.3 7.4 23.7C9 24 11 24 12 24C13 24 15 24 16.7 23.7C18.6 23.3 20 22.9 21.5 21.5C22.7 20.4 23.2 19.1 23.6 17.6C23.9 16.4 24 14.3 24 12Z" fill="#09B4FF"/>
    <path d="M11.9997 7.3999C9.39966 7.3999 7.39966 9.3999 7.39966 11.9999C7.39966 13.4999 7.99966 14.8999 9.19966 15.6999V19.3999C9.19966 20.3999 9.99966 21.1999 10.9997 21.1999H12.7997C13.7997 21.1999 14.5997 20.3999 14.5997 19.3999V15.6999C16.5997 14.0999 17.0997 11.2999 15.4997 9.2999C14.8997 7.9999 13.4997 7.3999 11.9997 7.3999Z" fill="white"/>
    <path d="M12.0001 6.50005C12.6001 6.50005 12.9001 6.10005 12.9001 5.60005V3.70005C12.9001 3.10005 12.5001 2.80005 12.0001 2.80005C11.5001 2.80005 11.1001 3.20005 11.1001 3.70005V5.50005C11.1001 6.10005 11.4001 6.50005 12.0001 6.50005Z" fill="white"/>
    <path d="M20.3001 11.1001H18.5001C17.9001 11.1001 17.6001 11.5001 17.6001 12.0001C17.6001 12.5001 18.0001 12.9001 18.5001 12.9001H20.3001C20.9001 12.9001 21.2001 12.5001 21.2001 12.0001C21.2001 11.5001 20.8001 11.1001 20.3001 11.1001Z" fill="white"/>
    <path d="M5.60005 11.1001H3.70005C3.10005 11.1001 2.80005 11.5001 2.80005 12.0001C2.80005 12.5001 3.20005 12.9001 3.70005 12.9001H5.50005C6.10005 12.9001 6.40005 12.5001 6.40005 12.0001C6.40005 11.5001 6.10005 11.1001 5.60005 11.1001Z" fill="white"/>
    <path d="M8.0001 6.80005L6.7001 5.60005C6.3001 5.20005 5.8001 5.20005 5.4001 5.60005C5.0001 6.00005 5.0001 6.50005 5.4001 6.80005L6.7001 8.10005C7.0001 8.30005 7.2001 8.40005 7.4001 8.40005C7.7001 8.40005 7.9001 8.30005 8.0001 8.10005C8.4001 7.80005 8.4001 7.20005 8.0001 6.80005Z" fill="white"/>
    <path d="M18.6004 5.60005C18.2004 5.20005 17.7004 5.20005 17.3004 5.60005L16.0004 6.90005C15.6004 7.30005 15.6004 7.80005 16.0004 8.20005C16.2004 8.40005 16.4004 8.50005 16.6004 8.50005C16.9004 8.50005 17.1004 8.40005 17.2004 8.20005L18.5004 6.90005C19.0004 6.60005 19.0004 5.90005 18.6004 5.60005Z" fill="white"/>
  </g>
  <defs>
    <clipPath id="clip0_2257_1705">
      <rect width="24" height="24" fill="white"/>
    </clipPath>
  </defs>
</svg>
