<svg width="34" height="34" viewBox="0 0 34 34" fill="none" xmlns="http://www.w3.org/2000/svg">
<path d="M17 2.32851e-06C7.61116 1.50771e-06 -1.50771e-06 7.61116 -2.32851e-06 17C-3.14931e-06 26.3888 7.61116 34 17 34C26.3888 34 34 26.3888 34 17C34 7.61116 26.3888 3.14931e-06 17 2.32851e-06Z" fill="url(#paint0_linear_3911_705)"/>
<g clip-path="url(#clip0_3911_705)">
<path d="M13.4346 23.9182H9.27087V25.1078C9.27175 25.436 9.5375 25.7016 9.86569 25.7027H15.8138C16.1419 25.7016 16.4076 25.436 16.4087 25.1078V23.9182H13.4346Z" fill="#BDDBFF"/>
<path d="M15.8138 13.8062H9.86569C9.5375 13.8072 9.27175 14.0729 9.27087 14.401V14.9958H16.4087V14.401C16.4076 14.0729 16.1419 13.8072 15.8138 13.8062Z" fill="#BDDBFF"/>
<path d="M16.4086 23.9182V14.4011C16.4076 14.0731 16.1419 13.8073 15.8138 13.8063H13.4346V8.453C14.1393 8.453 14.1393 9.20247 14.8473 9.20247C15.555 9.20247 15.552 8.29834 16.2599 8.29834C16.9677 8.29834 16.9647 9.20247 17.6696 9.20247C18.3745 9.20247 18.3774 8.29834 19.0823 8.29834C19.7872 8.29834 19.7872 9.20247 20.4949 9.20247C21.2027 9.20247 21.1998 8.29834 21.9076 8.29834C22.6154 8.29834 22.6154 9.20247 23.3234 9.20247C24.0312 9.20247 24.0281 8.453 24.736 8.453V24.513H16.4086V23.9182Z" fill="#BDDBFF"/>
<rect x="9.16138" y="14.9678" width="6.96774" height="9.29032" fill="white"/>
<path d="M24.7361 8.15553C24.3728 8.16308 24.0325 8.3356 23.8116 8.62429C23.638 8.80872 23.5372 8.905 23.3234 8.905C23.1234 8.905 23.0235 8.78897 22.8496 8.56722C22.6646 8.21841 22.3021 8.00044 21.9074 8.00044C21.5127 8.00044 21.1502 8.21841 20.9652 8.56722C20.7924 8.78839 20.6928 8.90413 20.495 8.90413C20.2972 8.90413 20.1953 8.7881 20.0213 8.56563C19.8373 8.21768 19.476 8 19.0823 8C18.6888 8 18.3273 8.21768 18.1435 8.56563C17.9695 8.7881 17.8694 8.90413 17.6696 8.90413C17.4698 8.90413 17.3722 8.78839 17.1994 8.56664C17.0012 8.2322 16.6483 8.0196 16.26 8.00087C15.8704 8.01946 15.5163 8.23264 15.3174 8.56809C15.1447 8.78926 15.0451 8.905 14.8473 8.905C14.6314 8.905 14.5304 8.80843 14.3559 8.62313C14.1357 8.33545 13.7968 8.16352 13.4346 8.15553C13.2704 8.15553 13.1372 8.28869 13.1372 8.45294V12.914H13.732V8.84851C13.8003 8.90428 13.8642 8.96541 13.9228 9.0312C14.1437 9.31975 14.484 9.49226 14.8473 9.49982C15.2352 9.48108 15.5879 9.26877 15.7861 8.93477C15.9601 8.7123 16.06 8.59627 16.26 8.59627C16.4598 8.59627 16.5574 8.71201 16.7301 8.9339C16.9286 9.26805 17.2815 9.48036 17.6696 9.49894C18.0591 9.48036 18.4133 9.26732 18.6121 8.93172C18.7849 8.71055 18.8845 8.59481 19.0823 8.59481C19.2801 8.59481 19.3797 8.71055 19.5525 8.93172C19.7369 9.28025 20.099 9.49807 20.4932 9.49807C20.8875 9.49807 21.2494 9.28025 21.434 8.93172C21.6079 8.70939 21.7079 8.59336 21.9077 8.59336C22.1075 8.59336 22.2076 8.70939 22.3815 8.93114C22.5806 9.26572 22.9345 9.47789 23.3234 9.49633C23.6857 9.48849 24.025 9.31655 24.2453 9.02873C24.3048 8.96309 24.3694 8.90224 24.4387 8.84706V24.2155H17.3009V24.8103H24.7361C24.9003 24.8103 25.0335 24.6772 25.0335 24.5129V8.45294C25.0335 8.28869 24.9003 8.15553 24.7361 8.15553Z" fill="#3470D1"/>
<path d="M20.275 10.2373H23.2491V10.8321H20.275V10.2373Z" fill="#3470D1"/>
<path d="M20.275 11.427H23.2491V12.0218H20.275V11.427Z" fill="#3470D1"/>
<path d="M17.3009 13.2114H20.8698V13.8062H17.3009V13.2114Z" fill="#3470D1"/>
<path d="M21.4646 13.2114H23.249V13.8062H21.4646V13.2114Z" fill="#3470D1"/>
<path d="M17.3009 14.4011H20.8698V14.9959H17.3009V14.4011Z" fill="#3470D1"/>
<path d="M21.4646 14.4011H23.249V14.9959H21.4646V14.4011Z" fill="#3470D1"/>
<path d="M17.3009 15.5908H20.8698V16.1856H17.3009V15.5908Z" fill="#3470D1"/>
<path d="M21.4646 15.5908H23.249V16.1856H21.4646V15.5908Z" fill="#3470D1"/>
<path d="M17.3009 16.7803H20.8698V17.3751H17.3009V16.7803Z" fill="#3470D1"/>
<path d="M21.4646 16.7803H23.249V17.3751H21.4646V16.7803Z" fill="#3470D1"/>
<path d="M21.4646 19.7544H23.249V20.3492H21.4646V19.7544Z" fill="#3470D1"/>
<path d="M15.8139 13.5088H9.86573C9.37286 13.5088 8.97351 13.9083 8.97351 14.401V25.1077C8.97351 25.6004 9.37286 25.9999 9.86573 25.9999H15.8139C16.3066 25.9999 16.7061 25.6004 16.7061 25.1077V14.401C16.7061 13.9083 16.3066 13.5088 15.8139 13.5088ZM9.86573 14.1036H15.8139C15.9781 14.1036 16.1113 14.2368 16.1113 14.401V14.6984H9.56833V14.401C9.56833 14.2368 9.70149 14.1036 9.86573 14.1036ZM16.1113 15.2932V23.6206H9.56833V15.2932H16.1113ZM15.8139 25.4051H9.86573C9.70149 25.4051 9.56833 25.2719 9.56833 25.1077V24.2155H16.1113V25.1077C16.1113 25.2719 15.9781 25.4051 15.8139 25.4051Z" fill="#3470D1"/>
<path d="M12.245 24.5129H13.4346V25.1078H12.245V24.5129Z" fill="#3470D1"/>
<path d="M12.5424 19.457H13.1372V20.0518H12.5424V19.457Z" fill="#3470D1"/>
<path d="M13.7321 19.457H14.3269V20.0518H13.7321V19.457Z" fill="#3470D1"/>
<path d="M11.3528 19.457H11.9476V20.0518H11.3528V19.457Z" fill="#3470D1"/>
<path d="M22.6543 17.97H23.2491V18.5648H22.6543V17.97Z" fill="#3470D1"/>
<path d="M21.4646 17.97H22.0594V18.5648H21.4646V17.97Z" fill="#3470D1"/>
<path d="M20.275 17.97H20.8698V18.5648H20.275V17.97Z" fill="#3470D1"/>
<path d="M19.0853 17.97H19.6801V18.5648H19.0853V17.97Z" fill="#3470D1"/>
<path d="M17.3009 17.97H18.4905V18.5648H17.3009V17.97Z" fill="#3470D1"/>
</g>
<defs>
<linearGradient id="paint0_linear_3911_705" x1="17" y1="34" x2="17" y2="-34.7969" gradientUnits="userSpaceOnUse">
<stop stop-color="#0D52FF" stop-opacity="0"/>
<stop offset="1" stop-color="#1F99FF"/>
</linearGradient>
<clipPath id="clip0_3911_705">
<rect width="18" height="18" fill="white" transform="translate(8 8)"/>
</clipPath>
</defs>
</svg>
