<svg width="34" height="34" viewBox="0 0 34 34" fill="none" xmlns="http://www.w3.org/2000/svg">
<path d="M17 2.32851e-06C7.61116 1.50771e-06 -1.50771e-06 7.61116 -2.32851e-06 17C-3.14931e-06 26.3888 7.61116 34 17 34C26.3888 34 34 26.3888 34 17C34 7.61116 26.3888 3.14931e-06 17 2.32851e-06Z" fill="url(#paint0_linear_4903_948)"/>
<path d="M22.2188 7.9375H10.9688C10.6236 7.9375 10.3438 8.21732 10.3438 8.5625V25.4375C10.3438 25.7827 10.6236 26.0625 10.9688 26.0625H22.2188C22.5639 26.0625 22.8438 25.7827 22.8438 25.4375V8.5625C22.8438 8.21732 22.5639 7.9375 22.2188 7.9375Z" fill="white"/>
<path d="M20.9688 9.1875H12.2188C11.8736 9.1875 11.5938 9.46732 11.5938 9.8125V23.25C11.5938 23.5952 11.8736 23.875 12.2188 23.875H20.9688C21.3139 23.875 21.5938 23.5952 21.5938 23.25V9.8125C21.5938 9.46732 21.3139 9.1875 20.9688 9.1875Z" fill="#1F99FF"/>
<path d="M25.6562 17V22.2594C25.6561 22.3191 25.6389 22.3774 25.6065 22.4276C25.5741 22.4777 25.5281 22.5175 25.4737 22.5422C25.4194 22.5669 25.3591 22.5755 25.3001 22.5669C25.241 22.5583 25.1857 22.5329 25.1406 22.4938L24.4031 21.8625C24.3459 21.8141 24.2734 21.7875 24.1984 21.7875C24.1235 21.7875 24.051 21.8141 23.9938 21.8625L22.9437 22.7625C22.8871 22.8109 22.8151 22.8375 22.7406 22.8375C22.6661 22.8375 22.5941 22.8109 22.5375 22.7625L21.4875 21.8625C21.4309 21.8141 21.3589 21.7875 21.2844 21.7875C21.2099 21.7875 21.1379 21.8141 21.0813 21.8625L20.0281 22.7625C19.9715 22.8109 19.8995 22.8375 19.825 22.8375C19.7505 22.8375 19.6785 22.8109 19.6219 22.7625L18.5687 21.8625C18.5121 21.8141 18.4401 21.7875 18.3656 21.7875C18.2911 21.7875 18.2191 21.8141 18.1625 21.8625L17.4219 22.4969C17.3764 22.5354 17.3208 22.5602 17.2618 22.5683C17.2027 22.5763 17.1425 22.5674 17.0884 22.5424C17.0342 22.5175 16.9883 22.4776 16.9561 22.4275C16.9238 22.3773 16.9065 22.319 16.9062 22.2594V17C16.9067 16.8344 16.9727 16.6757 17.0898 16.5586C17.2069 16.4415 17.3656 16.3755 17.5312 16.375H25.0312C25.1135 16.3746 25.1949 16.3904 25.2709 16.4217C25.347 16.4529 25.4161 16.499 25.4742 16.5571C25.5323 16.6152 25.5783 16.6843 25.6096 16.7603C25.6408 16.8363 25.6567 16.9178 25.6562 17Z" fill="white"/>
<path d="M25.5875 16.7125L24.3906 19.35H16.9062V17C16.9067 16.8344 16.9727 16.6757 17.0898 16.5586C17.2069 16.4415 17.3656 16.3755 17.5312 16.375H25.0312C25.1459 16.3755 25.2582 16.4071 25.3562 16.4666C25.4542 16.526 25.5342 16.611 25.5875 16.7125Z" fill="#333333"/>
<path d="M23.4688 10.75H15.9688C15.6236 10.75 15.3438 11.0298 15.3438 11.375V19.1875C15.3438 19.5327 15.6236 19.8125 15.9688 19.8125H23.4688C23.8139 19.8125 24.0938 19.5327 24.0938 19.1875V11.375C24.0938 11.0298 23.8139 10.75 23.4688 10.75Z" fill="white"/>
<path d="M25.0312 16.0522H24.4062V11.3647C24.406 11.1162 24.3071 10.8779 24.1314 10.7021C23.9556 10.5264 23.7173 10.4275 23.4688 10.4272H23.1562V8.55225C23.156 8.30369 23.0571 8.06539 22.8814 7.88963C22.7056 7.71388 22.4673 7.61502 22.2188 7.61475H10.9688C10.7202 7.61502 10.4819 7.71388 10.3061 7.88963C10.1304 8.06539 10.0315 8.30369 10.0312 8.55225V25.4272C10.0315 25.6758 10.1304 25.9141 10.3061 26.0899C10.4819 26.2656 10.7202 26.3645 10.9688 26.3647H22.2188C22.4673 26.3645 22.7056 26.2656 22.8814 26.0899C23.0571 25.9141 23.156 25.6758 23.1562 25.4272V22.9817L24.2 22.0897L24.9366 22.7203C25.0275 22.797 25.1383 22.8462 25.256 22.8623C25.3738 22.8785 25.4937 22.8608 25.6019 22.8115C25.71 22.7621 25.8019 22.683 25.8668 22.5835C25.9318 22.4839 25.9671 22.368 25.9687 22.2491L25.9688 16.9897C25.9685 16.7412 25.8696 16.5029 25.6939 16.3271C25.5181 16.1514 25.2798 16.0525 25.0312 16.0522ZM23.4688 11.0522C23.5516 11.0523 23.631 11.0853 23.6896 11.1439C23.7482 11.2025 23.7812 11.2819 23.7812 11.3647V19.1772C23.7812 19.2601 23.7482 19.3395 23.6896 19.3981C23.631 19.4567 23.5516 19.4897 23.4688 19.4897H15.9688C15.8859 19.4897 15.8065 19.4567 15.7479 19.3981C15.6893 19.3395 15.6563 19.2601 15.6562 19.1772V11.3647C15.6563 11.2819 15.6893 11.2025 15.7479 11.1439C15.8065 11.0853 15.8859 11.0523 15.9688 11.0522H23.4688ZM22.5312 25.4272C22.5312 25.5101 22.4982 25.5895 22.4396 25.6481C22.381 25.7067 22.3016 25.7397 22.2188 25.7397H10.9688C10.8859 25.7397 10.8065 25.7067 10.7479 25.6481C10.6893 25.5895 10.6563 25.5101 10.6562 25.4272V8.55225C10.6563 8.46939 10.6893 8.38995 10.7479 8.33137C10.8065 8.27278 10.8859 8.23983 10.9688 8.23975H22.2188C22.3016 8.23983 22.381 8.27278 22.4396 8.33137C22.4982 8.38995 22.5312 8.46939 22.5312 8.55225V10.4272H15.9688C15.7202 10.4275 15.4819 10.5264 15.3061 10.7021C15.1304 10.8779 15.0315 11.1162 15.0312 11.3647V19.1772C15.0315 19.4258 15.1304 19.6641 15.3061 19.8399C15.4819 20.0156 15.7202 20.1145 15.9688 20.1147H16.5938V22.2491C16.594 22.3685 16.6284 22.4853 16.693 22.5858C16.7575 22.6863 16.8494 22.7662 16.9578 22.8161C17.0663 22.866 17.1867 22.8838 17.305 22.8675C17.4233 22.8511 17.5344 22.8013 17.6252 22.7238L18.3659 22.0898C20.0232 23.4971 19.6273 23.4972 21.2812 22.0922C21.6762 22.4553 22.0937 22.7932 22.5312 23.1036V25.4272ZM25.3438 22.2461L24.6046 21.6132C24.4906 21.5172 24.3462 21.4647 24.1972 21.4651C24.0481 21.4654 23.904 21.5185 23.7904 21.615L22.7406 22.515C21.0827 21.1011 21.4803 21.1131 19.825 22.5146L18.7733 21.6157C18.6599 21.5187 18.5156 21.4652 18.3664 21.4651C18.2171 21.465 18.0727 21.5181 17.9591 21.615L17.2188 22.2491V20.1147H23.4688C23.7173 20.1145 23.9556 20.0156 24.1314 19.8399C24.3071 19.6641 24.406 19.4258 24.4062 19.1772V16.6772H25.0312C25.1141 16.6773 25.1935 16.7103 25.2521 16.7689C25.3107 16.8275 25.3437 16.9069 25.3438 16.9897V22.2461Z" fill="#333333"/>
<path d="M15.6561 25.1147H17.5311C17.6129 25.1131 17.6908 25.0795 17.7481 25.0211C17.8054 24.9627 17.8375 24.8841 17.8375 24.8022C17.8375 24.7204 17.8054 24.6418 17.7481 24.5834C17.6908 24.525 17.6129 24.4913 17.5311 24.4897H15.6561C15.5743 24.4913 15.4963 24.525 15.439 24.5834C15.3817 24.6418 15.3496 24.7204 15.3496 24.8022C15.3496 24.8841 15.3817 24.9627 15.439 25.0211C15.4963 25.0795 15.5743 25.1132 15.6561 25.1147Z" fill="#1F99FF"/>
<path d="M21.4373 14.4897H22.5311C22.6129 14.4881 22.6908 14.4545 22.7481 14.3961C22.8054 14.3377 22.8375 14.2591 22.8375 14.1772C22.8375 14.0954 22.8054 14.0168 22.7481 13.9584C22.6908 13.9 22.6129 13.8663 22.531 13.8647H21.9061V13.5522C21.9061 13.4694 21.8731 13.3899 21.8145 13.3313C21.7559 13.2727 21.6764 13.2397 21.5936 13.2397C21.5107 13.2397 21.4312 13.2727 21.3726 13.3313C21.314 13.3899 21.2811 13.4694 21.2811 13.5522V13.8805C21.0098 13.9222 20.7641 14.0644 20.5929 14.279C20.4217 14.4935 20.3376 14.7647 20.3573 15.0385C20.377 15.3123 20.4991 15.5686 20.6992 15.7564C20.8993 15.9443 21.1629 16.0499 21.4373 16.0522H21.7498C21.8741 16.0522 21.9934 16.1016 22.0813 16.1895C22.1692 16.2774 22.2186 16.3967 22.2186 16.521C22.2186 16.6453 22.1692 16.7645 22.0813 16.8525C21.9934 16.9404 21.8741 16.9897 21.7498 16.9897H20.6561C20.5742 16.9913 20.4963 17.025 20.439 17.0834C20.3817 17.1418 20.3496 17.2204 20.3496 17.3023C20.3496 17.3841 20.3817 17.4627 20.439 17.5211C20.4963 17.5795 20.5743 17.6132 20.6561 17.6147H21.2811V17.9272C21.2811 18.0101 21.314 18.0896 21.3726 18.1482C21.4312 18.2068 21.5107 18.2397 21.5936 18.2397C21.6764 18.2397 21.7559 18.2068 21.8145 18.1482C21.8731 18.0896 21.9061 18.0101 21.9061 17.9272V17.599C22.1774 17.5573 22.4231 17.4151 22.5942 17.2005C22.7654 16.9859 22.8495 16.7148 22.8298 16.441C22.8101 16.1672 22.6881 15.9109 22.4879 15.723C22.2878 15.5352 22.0243 15.4296 21.7498 15.4272H21.4373C21.3142 15.4254 21.1967 15.3753 21.1103 15.2876C21.0238 15.1998 20.9754 15.0816 20.9754 14.9585C20.9754 14.8353 21.0238 14.7171 21.1103 14.6294C21.1967 14.5417 21.3142 14.4915 21.4373 14.4897Z" fill="#1F99FF"/>
<path d="M19.4061 12.3022H16.9061C16.8242 12.3038 16.7463 12.3375 16.689 12.3959C16.6317 12.4543 16.5996 12.5329 16.5996 12.6148C16.5996 12.6966 16.6317 12.7752 16.689 12.8336C16.7463 12.892 16.8243 12.9257 16.9061 12.9272H19.4061C19.4879 12.9257 19.5658 12.892 19.6231 12.8336C19.6804 12.7752 19.7125 12.6966 19.7125 12.6147C19.7125 12.5329 19.6804 12.4543 19.6231 12.3959C19.5658 12.3375 19.4879 12.3038 19.4061 12.3022Z" fill="#1F99FF"/>
<path d="M19.4061 13.5522H16.9061C16.8242 13.5538 16.7463 13.5875 16.689 13.6459C16.6317 13.7043 16.5996 13.7829 16.5996 13.8648C16.5996 13.9466 16.6317 14.0252 16.689 14.0836C16.7463 14.142 16.8243 14.1757 16.9061 14.1772H19.4061C19.4879 14.1757 19.5658 14.142 19.6231 14.0836C19.6804 14.0252 19.7125 13.9466 19.7125 13.8647C19.7125 13.7829 19.6804 13.7043 19.6231 13.6459C19.5658 13.5875 19.4879 13.5538 19.4061 13.5522Z" fill="#1F99FF"/>
<path d="M19.4061 14.8022H16.9061C16.8242 14.8038 16.7463 14.8375 16.689 14.8959C16.6317 14.9543 16.5996 15.0329 16.5996 15.1148C16.5996 15.1966 16.6317 15.2752 16.689 15.3336C16.7463 15.392 16.8243 15.4257 16.9061 15.4272H19.4061C19.4879 15.4257 19.5658 15.392 19.6231 15.3336C19.6804 15.2752 19.7125 15.1966 19.7125 15.1147C19.7125 15.0329 19.6804 14.9543 19.6231 14.8959C19.5658 14.8375 19.4879 14.8038 19.4061 14.8022Z" fill="#1F99FF"/>
<defs>
<linearGradient id="paint0_linear_4903_948" x1="17" y1="34" x2="17" y2="-34.7969" gradientUnits="userSpaceOnUse">
<stop stop-color="#0D52FF" stop-opacity="0"/>
<stop offset="1" stop-color="#1F99FF"/>
</linearGradient>
</defs>
</svg>
