<svg width="34" height="34" viewBox="0 0 34 34" fill="none" xmlns="http://www.w3.org/2000/svg">
<path d="M17 2.32851e-06C7.61116 1.50771e-06 -1.50771e-06 7.61116 -2.32851e-06 17C-3.14931e-06 26.3888 7.61116 34 17 34C26.3888 34 34 26.3888 34 17C34 7.61116 26.3888 3.14931e-06 17 2.32851e-06Z" fill="url(#paint0_linear_3911_703)"/>
<g clip-path="url(#clip0_3911_703)">
<path d="M25.1562 22.9062V24.5938C25.1558 24.7428 25.0964 24.8856 24.991 24.991C24.8856 25.0964 24.7428 25.1558 24.5938 25.1562H9.40625C9.2572 25.1558 9.11439 25.0964 9.00899 24.991C8.9036 24.8856 8.8442 24.7428 8.84375 24.5938V22.9062H25.1562Z" fill="#ACABB1"/>
<path d="M9.96875 13.9062H24.0312C24.1804 13.9062 24.3235 13.9655 24.429 14.071C24.5345 14.1765 24.5938 14.3196 24.5938 14.4688V22.9062H9.40625V14.4688C9.40625 14.3196 9.46551 14.1765 9.571 14.071C9.67649 13.9655 9.81957 13.9062 9.96875 13.9062Z" fill="#FDCFE6"/>
<path d="M18.6875 22.9062L18.4062 24.0312H15.5938L15.3125 22.9062H18.6875Z" fill="#57565C"/>
<path d="M23.1875 9.96875V21.5H10.8125V9.96875L11.6562 10.8125L12.7812 9.96875L13.9062 10.8125L15.0312 9.96875L16.1562 10.8125L17.2812 9.96875L18.4062 10.8125L19.5312 9.96875L20.6562 10.8125L21.5 9.96875L22.3438 10.8125L23.1875 9.96875Z" fill="white"/>
<path d="M25.1562 22.625H24.875V14.4687C24.8743 14.2452 24.7852 14.0309 24.6271 13.8728C24.469 13.7148 24.2548 13.6256 24.0312 13.625H23.4688V9.96873C23.469 9.91309 23.4525 9.85868 23.4214 9.81254C23.3903 9.7664 23.346 9.73067 23.2944 9.70998C23.2432 9.68844 23.1867 9.68256 23.1321 9.69307C23.0776 9.70358 23.0274 9.73002 22.9878 9.76904L22.3438 10.4159L21.6997 9.76904C21.6466 9.71635 21.5748 9.68678 21.5 9.68678C21.4252 9.68678 21.3534 9.71635 21.3003 9.76904L20.6309 10.4412L19.7 9.74373C19.6515 9.70678 19.5922 9.68677 19.5312 9.68677C19.4703 9.68677 19.411 9.70678 19.3625 9.74373L18.4062 10.4609L17.45 9.74373C17.4015 9.70678 17.3422 9.68677 17.2812 9.68677C17.2203 9.68677 17.161 9.70678 17.1125 9.74373L16.1562 10.4609L15.2 9.74373C15.1515 9.70678 15.0922 9.68677 15.0312 9.68677C14.9703 9.68677 14.911 9.70678 14.8625 9.74373L13.9062 10.4609L12.95 9.74373C12.9015 9.70678 12.8422 9.68677 12.7812 9.68677C12.7203 9.68677 12.661 9.70678 12.6125 9.74373L11.6816 10.4412L11.0122 9.76904C10.9726 9.73002 10.9224 9.70358 10.8679 9.69307C10.8133 9.68256 10.7568 9.68844 10.7056 9.70998C10.654 9.73067 10.6097 9.7664 10.5786 9.81254C10.5475 9.85868 10.531 9.91309 10.5312 9.96873V13.625H9.96875C9.74518 13.6256 9.53096 13.7148 9.37287 13.8728C9.21478 14.0309 9.12567 14.2452 9.125 14.4687V22.625H8.84375C8.76916 22.625 8.69762 22.6546 8.64488 22.7074C8.59213 22.7601 8.5625 22.8316 8.5625 22.9062V24.5937C8.56317 24.8173 8.65228 25.0315 8.81037 25.1896C8.96846 25.3477 9.18268 25.4368 9.40625 25.4375H24.5938C24.8173 25.4368 25.0315 25.3477 25.1896 25.1896C25.3477 25.0315 25.4368 24.8173 25.4375 24.5937V22.9062C25.4375 22.8316 25.4079 22.7601 25.3551 22.7074C25.3024 22.6546 25.2308 22.625 25.1562 22.625ZM11.0938 10.6465L11.4566 11.0122C11.5046 11.0601 11.5683 11.0891 11.636 11.0938C11.7038 11.0984 11.7709 11.0784 11.825 11.0375L12.7812 10.3203L13.7375 11.0375C13.786 11.0744 13.8453 11.0944 13.9062 11.0944C13.9672 11.0944 14.0265 11.0744 14.075 11.0375L15.0312 10.3203L15.9875 11.0375C16.036 11.0744 16.0953 11.0944 16.1562 11.0944C16.2172 11.0944 16.2765 11.0744 16.325 11.0375L17.2812 10.3203L18.2375 11.0375C18.286 11.0744 18.3453 11.0944 18.4062 11.0944C18.4672 11.0944 18.5265 11.0744 18.575 11.0375L19.5312 10.3203L20.4875 11.0375C20.5416 11.0784 20.6087 11.0984 20.6765 11.0938C20.7442 11.0891 20.8079 11.0601 20.8559 11.0122L21.5 10.3653L22.1441 11.0122C22.1972 11.0649 22.2689 11.0944 22.3438 11.0944C22.4186 11.0944 22.4903 11.0649 22.5434 11.0122L22.9062 10.6465V21.2187H11.0938V10.6465ZM9.6875 14.4687C9.6875 14.3941 9.71713 14.3226 9.76988 14.2699C9.82262 14.2171 9.89416 14.1875 9.96875 14.1875H10.5312V21.2187H10.25V21.7812H24.0312V21.2187H23.4688V14.1875H24.0312C24.1058 14.1875 24.1774 14.2171 24.2301 14.2699C24.2829 14.3226 24.3125 14.3941 24.3125 14.4687V22.625H9.6875V14.4687ZM18.3275 23.1875L18.1869 23.75H15.8131L15.6725 23.1875H18.3275ZM24.875 24.5937C24.875 24.6683 24.8454 24.7399 24.7926 24.7926C24.7399 24.8453 24.6683 24.875 24.5938 24.875H9.40625C9.33166 24.875 9.26012 24.8453 9.20738 24.7926C9.15463 24.7399 9.125 24.6683 9.125 24.5937V23.1875H15.0931L15.3209 24.0987C15.336 24.1597 15.3711 24.2139 15.4205 24.2526C15.47 24.2914 15.5309 24.3124 15.5938 24.3125H18.4062C18.4691 24.3124 18.5301 24.2914 18.5795 24.2526C18.6289 24.2139 18.664 24.1597 18.6791 24.0987L18.9069 23.1875H24.875V24.5937Z" fill="black"/>
<path d="M14.4688 12.5H15.5938V13.0625H14.4688V12.5Z" fill="black"/>
<path d="M14.4688 13.9062H15.5938V14.4688H14.4688V13.9062Z" fill="black"/>
<path d="M14.4688 15.3125H15.5938V15.875H14.4688V15.3125Z" fill="black"/>
<path d="M16.4375 12.5H22.0625V13.0625H16.4375V12.5Z" fill="black"/>
<path d="M16.4375 13.9062H22.0625V14.4688H16.4375V13.9062Z" fill="black"/>
<path d="M16.4375 15.3125H22.0625V15.875H16.4375V15.3125Z" fill="black"/>
<path d="M11.9375 16.7188H22.0625V17.2812H11.9375V16.7188Z" fill="black"/>
<path d="M11.9375 18.125H22.0625V18.6875H11.9375V18.125Z" fill="black"/>
<path d="M11.9375 19.5312H22.0625V20.0938H11.9375V19.5312Z" fill="black"/>
</g>
<defs>
<linearGradient id="paint0_linear_3911_703" x1="34.0001" y1="17" x2="0.000125976" y2="17" gradientUnits="userSpaceOnUse">
<stop stop-color="#F849A0"/>
<stop offset="1" stop-color="#F849A0" stop-opacity="0"/>
</linearGradient>
<clipPath id="clip0_3911_703">
<rect width="18" height="18" fill="white" transform="translate(8 8)"/>
</clipPath>
</defs>
</svg>
