<svg width="34" height="34" viewBox="0 0 34 34" fill="none" xmlns="http://www.w3.org/2000/svg">
<path d="M17 2.32851e-06C7.61116 1.50771e-06 -1.50771e-06 7.61116 -2.32851e-06 17C-3.14931e-06 26.3888 7.61116 34 17 34C26.3888 34 34 26.3888 34 17C34 7.61116 26.3888 3.14931e-06 17 2.32851e-06Z" fill="url(#paint0_linear_3911_702)" fill-opacity="0.6"/>
<path d="M21.5688 25.9729C20.9672 25.9729 20.489 25.4947 20.489 24.8932V13.9413C20.489 13.3398 20.9672 12.8616 21.5688 12.8616C22.1704 12.8616 22.6485 13.3398 22.6485 13.9413V24.8932C22.6485 25.4947 22.1704 25.9729 21.5688 25.9729Z" fill="#DDB4F8"/>
<path d="M21.569 26.4355C20.7206 26.4355 20.0265 25.7414 20.0265 24.893V13.9412C20.0265 13.0928 20.7206 12.3987 21.569 12.3987C22.4174 12.3987 23.1115 13.0928 23.1115 13.9412V24.893C23.1115 25.7414 22.4174 26.4355 21.569 26.4355ZM21.569 13.3242C21.2296 13.3242 20.952 13.6018 20.952 13.9412V24.893C20.952 25.2324 21.2296 25.51 21.569 25.51C21.9084 25.51 22.186 25.2324 22.186 24.893V13.9412C22.186 13.6018 21.9084 13.3242 21.569 13.3242Z" fill="#444B54"/>
<path d="M15.0904 11.6277V9.0054C15.0904 8.15702 14.3962 7.46289 13.5479 7.46289H20.4892C21.3375 7.46289 22.0317 8.15702 22.0317 9.0054V10.0852C22.0317 10.9335 22.7258 11.6277 23.5742 11.6277" fill="#DDB4F8"/>
<path d="M18.9467 25.9729H12.0054C11.157 25.9729 10.4629 25.2788 10.4629 24.4304V14.4041C10.4629 13.5557 11.157 12.8616 12.0054 12.8616H18.9467C19.7951 12.8616 20.4892 13.5557 20.4892 14.4041V24.4304C20.4892 25.2788 19.7951 25.9729 18.9467 25.9729Z" fill="white"/>
<path d="M20.4892 12.8616H10.4629V14.2498H20.4892V12.8616Z" fill="#DDB4F8"/>
<path d="M18.9467 17.1809H12.0054V20.2659H18.9467V17.1809Z" fill="#DDB4F8"/>
<path d="M21.5688 26.4355H11.5425C10.6941 26.4355 10 25.7414 10 24.893V13.9412C10 13.0928 10.6941 12.3987 11.5425 12.3987H21.5688C21.8311 12.3987 22.0316 12.5992 22.0316 12.8614C22.0316 13.1237 21.8311 13.3242 21.5688 13.3242C21.2295 13.3242 20.9518 13.6018 20.9518 13.9412V24.893C20.9518 25.2324 21.2295 25.51 21.5688 25.51C21.8311 25.51 22.0316 25.7106 22.0316 25.9728C22.0316 26.235 21.8311 26.4355 21.5688 26.4355ZM11.5425 13.3242C11.2032 13.3242 10.9255 13.6018 10.9255 13.9412V24.893C10.9255 25.2324 11.2032 25.51 11.5425 25.51H20.1497C20.0726 25.3249 20.0263 25.109 20.0263 24.893V13.9412C20.0263 13.7252 20.0726 13.5093 20.1497 13.3242H11.5425Z" fill="#444B54"/>
<path d="M18.9465 16.2549H12.0052C11.743 16.2549 11.5425 16.0543 11.5425 15.7921C11.5425 15.5299 11.743 15.3293 12.0052 15.3293H18.9465C19.2088 15.3293 19.4093 15.5299 19.4093 15.7921C19.4093 16.0543 19.2088 16.2549 18.9465 16.2549Z" fill="#444B54"/>
<path d="M18.0983 22.5023C18.4391 22.5023 18.7153 22.2261 18.7153 21.8853C18.7153 21.5446 18.4391 21.2683 18.0983 21.2683C17.7576 21.2683 17.4813 21.5446 17.4813 21.8853C17.4813 22.2261 17.7576 22.5023 18.0983 22.5023Z" fill="#C987F4"/>
<path d="M18.0983 24.662C18.4391 24.662 18.7153 24.3857 18.7153 24.045C18.7153 23.7042 18.4391 23.428 18.0983 23.428C17.7576 23.428 17.4813 23.7042 17.4813 24.045C17.4813 24.3857 17.7576 24.662 18.0983 24.662Z" fill="#DDB4F8"/>
<path d="M15.4761 22.5026C15.8169 22.5026 16.0931 22.2263 16.0931 21.8856C16.0931 21.5448 15.8169 21.2686 15.4761 21.2686C15.1354 21.2686 14.8591 21.5448 14.8591 21.8856C14.8591 22.2263 15.1354 22.5026 15.4761 22.5026Z" fill="#DDB4F8"/>
<path d="M15.4761 24.662C15.8169 24.662 16.0931 24.3857 16.0931 24.045C16.0931 23.7042 15.8169 23.428 15.4761 23.428C15.1354 23.428 14.8591 23.7042 14.8591 24.045C14.8591 24.3857 15.1354 24.662 15.4761 24.662Z" fill="#DDB4F8"/>
<path d="M12.8538 22.5023C13.1946 22.5023 13.4708 22.2261 13.4708 21.8853C13.4708 21.5446 13.1946 21.2683 12.8538 21.2683C12.5131 21.2683 12.2368 21.5446 12.2368 21.8853C12.2368 22.2261 12.5131 22.5023 12.8538 22.5023Z" fill="#DDB4F8"/>
<path d="M12.8538 24.662C13.1946 24.662 13.4708 24.3857 13.4708 24.045C13.4708 23.7042 13.1946 23.428 12.8538 23.428C12.5131 23.428 12.2368 23.7042 12.2368 24.045C12.2368 24.3857 12.5131 24.662 12.8538 24.662Z" fill="#DDB4F8"/>
<path d="M23.5743 12.0903C22.4637 12.0903 21.569 11.1956 21.569 10.085V9.00526C21.569 8.40369 21.0908 7.92551 20.4892 7.92551C20.227 7.92551 20.0265 7.72498 20.0265 7.46275C20.0265 7.20053 20.227 7 20.4892 7C21.5999 7 22.4945 7.89466 22.4945 9.00526V10.085C22.4945 10.6866 22.9727 11.1648 23.5743 11.1648C24.1758 11.1648 24.654 10.6866 24.654 10.085V9.15952C24.654 8.89729 24.8545 8.69676 25.1168 8.69676C25.379 8.69676 25.5795 8.89729 25.5795 9.15952V10.085C25.5795 11.1956 24.6849 12.0903 23.5743 12.0903Z" fill="#444B54"/>
<path d="M18.9467 14.8669V9.0054C18.9467 8.15702 19.6408 7.46289 20.4892 7.46289H13.5479C12.6995 7.46289 12.0054 8.15702 12.0054 9.0054V14.8669" fill="white"/>
<path d="M15.3832 12.9386C15.229 12.9386 15.1056 12.8615 15.013 12.7535L14.3498 11.8743C14.1955 11.6737 14.2418 11.3807 14.4423 11.2264C14.6428 11.0722 14.9359 11.1184 15.0902 11.319L15.3987 11.72L16.2625 10.6403C16.4167 10.4397 16.7098 10.4089 16.9103 10.5631C17.1108 10.7174 17.1417 11.0105 16.9874 11.211L15.7534 12.7535C15.6609 12.8769 15.5375 12.9386 15.3832 12.9386Z" fill="#C987F4"/>
<path d="M12.0052 14.7126C11.743 14.7126 11.5425 14.512 11.5425 14.2498V9.00526C11.5425 7.89466 12.4371 7 13.5477 7C13.81 7 14.0105 7.20053 14.0105 7.46275C14.0105 7.72498 13.81 7.92551 13.5477 7.92551C12.9462 7.92551 12.468 8.40369 12.468 9.00526V14.2498C12.468 14.512 12.2675 14.7126 12.0052 14.7126Z" fill="#444B54"/>
<path d="M18.9465 16.2551C18.6843 16.2551 18.4838 16.0545 18.4838 15.7923V9.00526C18.4838 8.60421 18.6072 8.23401 18.7923 7.92551H13.5477C13.2855 7.92551 13.085 7.72498 13.085 7.46275C13.085 7.20053 13.2855 7 13.5477 7H20.489C20.7512 7 20.9518 7.20053 20.9518 7.46275C20.9518 7.72498 20.7512 7.92551 20.489 7.92551C19.8874 7.92551 19.4093 8.40369 19.4093 9.00526V15.7923C19.4093 16.0545 19.2087 16.2551 18.9465 16.2551Z" fill="#444B54"/>
<defs>
<linearGradient id="paint0_linear_3911_702" x1="22.95" y1="-4.25" x2="31.638" y2="28.6982" gradientUnits="userSpaceOnUse">
<stop stop-color="#A131ED"/>
<stop offset="1" stop-color="#A131ED" stop-opacity="0"/>
</linearGradient>
</defs>
</svg>
