<svg width="34" height="34" viewBox="0 0 34 34" fill="none" xmlns="http://www.w3.org/2000/svg">
<path d="M17 2.32851e-06C7.61116 1.50771e-06 -1.50771e-06 7.61116 -2.32851e-06 17C-3.14931e-06 26.3888 7.61116 34 17 34C26.3888 34 34 26.3888 34 17C34 7.61116 26.3888 3.14931e-06 17 2.32851e-06Z" fill="url(#paint0_linear_3911_701)"/>
<path d="M25.7 22.9675V24.7675C25.6996 24.9265 25.6362 25.0788 25.5238 25.1913C25.4114 25.3037 25.259 25.3671 25.1 25.3675H8.90005C8.74106 25.3671 8.58873 25.3037 8.47631 25.1913C8.36389 25.0788 8.30052 24.9265 8.30005 24.7675V22.9675H25.7Z" fill="white"/>
<path d="M9.50002 13.3674H24.5C24.6592 13.3674 24.8118 13.4306 24.9243 13.5432C25.0368 13.6557 25.1 13.8083 25.1 13.9674V22.9674H8.90002V13.9674C8.90002 13.8083 8.96324 13.6557 9.07576 13.5432C9.18828 13.4306 9.34089 13.3674 9.50002 13.3674Z" fill="white"/>
<path d="M18.7998 22.9675L18.4998 24.1675H15.4998L15.1998 22.9675H18.7998Z" fill="#57565C"/>
<path d="M23.5998 9.16748V21.4675H10.3998V9.16748L11.2998 10.0675L12.4998 9.16748L13.6998 10.0675L14.8998 9.16748L16.0998 10.0675L17.2998 9.16748L18.4998 10.0675L19.6998 9.16748L20.8998 10.0675L21.7998 9.16748L22.6998 10.0675L23.5998 9.16748Z" fill="white"/>
<path d="M25.7 22.6675H25.4V13.9675C25.3993 13.729 25.3042 13.5005 25.1356 13.3319C24.967 13.1632 24.7385 13.0682 24.5 13.0675H23.9V9.16746C23.9002 9.10811 23.8826 9.05007 23.8494 9.00085C23.8163 8.95164 23.7691 8.91353 23.714 8.89146C23.6594 8.86849 23.5992 8.86221 23.541 8.87342C23.4828 8.88463 23.4292 8.91283 23.387 8.95446L22.7 9.64446L22.013 8.95446C21.9564 8.89825 21.8798 8.86671 21.8 8.86671C21.7202 8.86671 21.6436 8.89825 21.587 8.95446L20.873 9.67146L19.88 8.92746C19.8283 8.88805 19.765 8.8667 19.7 8.8667C19.635 8.8667 19.5717 8.88805 19.52 8.92746L18.5 9.69246L17.48 8.92746C17.4283 8.88805 17.365 8.8667 17.3 8.8667C17.235 8.8667 17.1717 8.88805 17.12 8.92746L16.1 9.69246L15.08 8.92746C15.0283 8.88805 14.965 8.8667 14.9 8.8667C14.835 8.8667 14.7717 8.88805 14.72 8.92746L13.7 9.69246L12.68 8.92746C12.6283 8.88805 12.565 8.8667 12.5 8.8667C12.435 8.8667 12.3717 8.88805 12.32 8.92746L11.327 9.67146L10.613 8.95446C10.5708 8.91283 10.5172 8.88463 10.459 8.87342C10.4008 8.86221 10.3406 8.86849 10.286 8.89146C10.2309 8.91353 10.1837 8.95164 10.1506 9.00085C10.1174 9.05007 10.0998 9.10811 10.1 9.16746V13.0675H9.5C9.26152 13.0682 9.03302 13.1632 8.86439 13.3319C8.69576 13.5005 8.60071 13.729 8.6 13.9675V22.6675H8.3C8.22044 22.6675 8.14413 22.6991 8.08787 22.7553C8.03161 22.8116 8 22.8879 8 22.9675V24.7675C8.00071 25.0059 8.09576 25.2344 8.26439 25.4031C8.43302 25.5717 8.66152 25.6667 8.9 25.6675H25.1C25.3385 25.6667 25.567 25.5717 25.7356 25.4031C25.9042 25.2344 25.9993 25.0059 26 24.7675V22.9675C26 22.8879 25.9684 22.8116 25.9121 22.7553C25.8559 22.6991 25.7796 22.6675 25.7 22.6675ZM10.7 9.89046L11.087 10.2805C11.1382 10.3316 11.2062 10.3625 11.2784 10.3675C11.3507 10.3725 11.4223 10.3511 11.48 10.3075L12.5 9.54246L13.52 10.3075C13.5717 10.3469 13.635 10.3682 13.7 10.3682C13.765 10.3682 13.8283 10.3469 13.88 10.3075L14.9 9.54246L15.92 10.3075C15.9717 10.3469 16.035 10.3682 16.1 10.3682C16.165 10.3682 16.2283 10.3469 16.28 10.3075L17.3 9.54246L18.32 10.3075C18.3717 10.3469 18.435 10.3682 18.5 10.3682C18.565 10.3682 18.6283 10.3469 18.68 10.3075L19.7 9.54246L20.72 10.3075C20.7777 10.3511 20.8493 10.3725 20.9216 10.3675C20.9938 10.3625 21.0618 10.3316 21.113 10.2805L21.8 9.59046L22.487 10.2805C22.5436 10.3367 22.6202 10.3682 22.7 10.3682C22.7798 10.3682 22.8564 10.3367 22.913 10.2805L23.3 9.89046V21.1675H10.7V9.89046ZM9.2 13.9675C9.2 13.8879 9.23161 13.8116 9.28787 13.7553C9.34413 13.6991 9.42044 13.6675 9.5 13.6675H10.1V21.1675H9.8V21.7675H24.5V21.1675H23.9V13.6675H24.5C24.5796 13.6675 24.6559 13.6991 24.7121 13.7553C24.7684 13.8116 24.8 13.8879 24.8 13.9675V22.6675H9.2V13.9675ZM18.416 23.2675L18.266 23.8675H15.734L15.584 23.2675H18.416ZM25.4 24.7675C25.4 24.847 25.3684 24.9233 25.3121 24.9796C25.2559 25.0359 25.1796 25.0675 25.1 25.0675H8.9C8.82044 25.0675 8.74413 25.0359 8.68787 24.9796C8.63161 24.9233 8.6 24.847 8.6 24.7675V23.2675H14.966L15.209 24.2395C15.2251 24.3045 15.2625 24.3623 15.3152 24.4036C15.3679 24.4449 15.433 24.4674 15.5 24.4675H18.5C18.567 24.4674 18.6321 24.4449 18.6848 24.4036C18.7375 24.3623 18.7749 24.3045 18.791 24.2395L19.034 23.2675H25.4V24.7675Z" fill="#3470D1"/>
<path d="M14.3002 11.8674H15.5002V12.4674H14.3002V11.8674Z" fill="#3470D1"/>
<path d="M14.3002 13.3674H15.5002V13.9674H14.3002V13.3674Z" fill="#3470D1"/>
<path d="M14.3002 14.8677H15.5002V15.4677H14.3002V14.8677Z" fill="#3470D1"/>
<path d="M16.3999 11.8674H22.3999V12.4674H16.3999V11.8674Z" fill="#3470D1"/>
<path d="M16.3999 13.3674H22.3999V13.9674H16.3999V13.3674Z" fill="#3470D1"/>
<path d="M16.3999 14.8677H22.3999V15.4677H16.3999V14.8677Z" fill="#3470D1"/>
<path d="M11.6 16.3674H22.4V16.9674H11.6V16.3674Z" fill="#3470D1"/>
<path d="M11.6 17.8674H22.4V18.4674H11.6V17.8674Z" fill="#3470D1"/>
<path d="M11.6 19.3677H22.4V19.9677H11.6V19.3677Z" fill="#3470D1"/>
<defs>
<linearGradient id="paint0_linear_3911_701" x1="17" y1="34" x2="17" y2="-34.7969" gradientUnits="userSpaceOnUse">
<stop stop-color="#0D52FF" stop-opacity="0"/>
<stop offset="1" stop-color="#1F99FF"/>
</linearGradient>
</defs>
</svg>
