<svg width="34" height="34" viewBox="0 0 34 34" fill="none" xmlns="http://www.w3.org/2000/svg">
<path d="M17 2.32851e-06C7.61116 1.50771e-06 -1.50771e-06 7.61116 -2.32851e-06 17C-3.14931e-06 26.3888 7.61116 34 17 34C26.3888 34 34 26.3888 34 17C34 7.61116 26.3888 3.14931e-06 17 2.32851e-06Z" fill="url(#paint0_linear_4903_950)"/>
<g clip-path="url(#clip0_4903_950)">
<path d="M13.4342 23.9182H9.27051V25.1078C9.27138 25.436 9.53713 25.7016 9.86532 25.7027H15.8135C16.1415 25.7016 16.4073 25.436 16.4083 25.1078V23.9182H13.4342Z" fill="#8FD3FF"/>
<path d="M15.8135 13.8062H9.86532C9.53713 13.8072 9.27138 14.0729 9.27051 14.401V14.9958H16.4083V14.401C16.4073 14.0729 16.1415 13.8072 15.8135 13.8062Z" fill="#8FD3FF"/>
<path d="M16.4086 23.9182V14.4011C16.4076 14.0731 16.1419 13.8073 15.8138 13.8063H13.4346V8.453C14.1393 8.453 14.1393 9.20247 14.8473 9.20247C15.555 9.20247 15.552 8.29834 16.2599 8.29834C16.9677 8.29834 16.9647 9.20247 17.6696 9.20247C18.3745 9.20247 18.3774 8.29834 19.0823 8.29834C19.7872 8.29834 19.7872 9.20247 20.4949 9.20247C21.2027 9.20247 21.1998 8.29834 21.9076 8.29834C22.6154 8.29834 22.6154 9.20247 23.3234 9.20247C24.0312 9.20247 24.0281 8.453 24.736 8.453V24.513H16.4086V23.9182Z" fill="#8FD3FF"/>
<rect x="9.16113" y="14.9678" width="6.96774" height="9.29032" fill="white"/>
<path d="M24.7366 8.15553C24.3732 8.16308 24.033 8.3356 23.8121 8.62429C23.6384 8.80872 23.5377 8.905 23.3239 8.905C23.1239 8.905 23.024 8.78897 22.8501 8.56722C22.665 8.21841 22.3026 8.00044 21.9079 8.00044C21.5132 8.00044 21.1507 8.21841 20.9657 8.56722C20.7929 8.78839 20.6933 8.90413 20.4955 8.90413C20.2977 8.90413 20.1957 8.7881 20.0218 8.56563C19.8378 8.21768 19.4765 8 19.0828 8C18.6893 8 18.3278 8.21768 18.144 8.56563C17.97 8.7881 17.8699 8.90413 17.6701 8.90413C17.4703 8.90413 17.3727 8.78839 17.1999 8.56664C17.0017 8.2322 16.6488 8.0196 16.2605 8.00087C15.8709 8.01946 15.5168 8.23264 15.3179 8.56809C15.1452 8.78926 15.0456 8.905 14.8478 8.905C14.6318 8.905 14.5309 8.80843 14.3564 8.62313C14.1362 8.33545 13.7973 8.16352 13.4351 8.15553C13.2709 8.15553 13.1377 8.28869 13.1377 8.45294V12.914H13.7325V8.84851C13.8008 8.90428 13.8647 8.96541 13.9233 9.0312C14.1442 9.31975 14.4845 9.49226 14.8478 9.49982C15.2357 9.48108 15.5884 9.26877 15.7866 8.93477C15.9606 8.7123 16.0605 8.59627 16.2605 8.59627C16.4603 8.59627 16.5579 8.71201 16.7305 8.9339C16.9291 9.26805 17.2819 9.48036 17.6701 9.49894C18.0596 9.48036 18.4138 9.26732 18.6126 8.93172C18.7854 8.71055 18.885 8.59481 19.0828 8.59481C19.2806 8.59481 19.3802 8.71055 19.553 8.93172C19.7374 9.28025 20.0995 9.49807 20.4937 9.49807C20.888 9.49807 21.2499 9.28025 21.4345 8.93172C21.6084 8.70939 21.7083 8.59336 21.9082 8.59336C22.108 8.59336 22.208 8.70939 22.382 8.93114C22.5811 9.26572 22.935 9.47789 23.3239 9.49633C23.6862 9.48849 24.0254 9.31655 24.2457 9.02873C24.3053 8.96309 24.3699 8.90224 24.4392 8.84706V24.2155H17.3014V24.8103H24.7366C24.9008 24.8103 25.034 24.6772 25.034 24.5129V8.45294C25.034 8.28869 24.9008 8.15553 24.7366 8.15553Z" fill="#151515"/>
<path d="M20.2754 10.2373H23.2495V10.8321H20.2754V10.2373Z" fill="#151515"/>
<path d="M20.2754 11.427H23.2495V12.0218H20.2754V11.427Z" fill="#151515"/>
<path d="M17.3008 13.2114H20.8697V13.8062H17.3008V13.2114Z" fill="#151515"/>
<path d="M21.4648 13.2114H23.2493V13.8062H21.4648V13.2114Z" fill="#151515"/>
<path d="M17.3008 14.4011H20.8697V14.9959H17.3008V14.4011Z" fill="#151515"/>
<path d="M21.4648 14.4011H23.2493V14.9959H21.4648V14.4011Z" fill="#151515"/>
<path d="M17.3008 15.5908H20.8697V16.1856H17.3008V15.5908Z" fill="#151515"/>
<path d="M21.4648 15.5908H23.2493V16.1856H21.4648V15.5908Z" fill="#151515"/>
<path d="M17.3008 16.7803H20.8697V17.3751H17.3008V16.7803Z" fill="#151515"/>
<path d="M21.4648 16.7803H23.2493V17.3751H21.4648V16.7803Z" fill="#151515"/>
<path d="M21.4648 19.7544H23.2493V20.3492H21.4648V19.7544Z" fill="#151515"/>
<path d="M15.814 13.5088H9.86585C9.37298 13.5088 8.97363 13.9083 8.97363 14.401V25.1077C8.97363 25.6004 9.37298 25.9999 9.86585 25.9999H15.814C16.3067 25.9999 16.7062 25.6004 16.7062 25.1077V14.401C16.7062 13.9083 16.3067 13.5088 15.814 13.5088ZM9.86585 14.1036H15.814C15.9782 14.1036 16.1114 14.2368 16.1114 14.401V14.6984H9.56845V14.401C9.56845 14.2368 9.70161 14.1036 9.86585 14.1036ZM16.1114 15.2932V23.6206H9.56845V15.2932H16.1114ZM15.814 25.4051H9.86585C9.70161 25.4051 9.56845 25.2719 9.56845 25.1077V24.2155H16.1114V25.1077C16.1114 25.2719 15.9782 25.4051 15.814 25.4051Z" fill="#151515"/>
<path d="M12.2451 24.5129H13.4347V25.1078H12.2451V24.5129Z" fill="#151515"/>
<path d="M12.543 19.457H13.1378V20.0518H12.543V19.457Z" fill="#151515"/>
<path d="M13.7324 19.457H14.3272V20.0518H13.7324V19.457Z" fill="#151515"/>
<path d="M11.3525 19.457H11.9474V20.0518H11.3525V19.457Z" fill="#151515"/>
<path d="M22.6543 17.97H23.2491V18.5648H22.6543V17.97Z" fill="#151515"/>
<path d="M21.4648 17.97H22.0597V18.5648H21.4648V17.97Z" fill="#151515"/>
<path d="M20.2754 17.97H20.8702V18.5648H20.2754V17.97Z" fill="#151515"/>
<path d="M19.0859 17.97H19.6808V18.5648H19.0859V17.97Z" fill="#151515"/>
<path d="M17.3008 17.97H18.4904V18.5648H17.3008V17.97Z" fill="#151515"/>
</g>
<defs>
<linearGradient id="paint0_linear_4903_950" x1="17" y1="34" x2="17" y2="-34.7969" gradientUnits="userSpaceOnUse">
<stop stop-color="#0D52FF" stop-opacity="0"/>
<stop offset="1" stop-color="#1F99FF"/>
</linearGradient>
<clipPath id="clip0_4903_950">
<rect width="18" height="18" fill="white" transform="translate(8 8)"/>
</clipPath>
</defs>
</svg>
