<svg xmlns="http://www.w3.org/2000/svg" width="21" height="21" viewBox="0 0 21 21" fill="none">
  <path d="M4.93154 6.46065L14.831 16.3601C15.1713 16.7004 15.7282 16.7004 16.0685 16.3601C16.4088 16.0198 16.4088 15.463 16.0685 15.1227L6.16897 5.22321C5.82868 4.88292 5.27183 4.88292 4.93154 5.22321C4.59124 5.56351 4.59124 6.12035 4.93154 6.46065Z" fill="#7A7A7A"/>
  <path d="M14.831 5.22308L4.93153 15.1226C4.59123 15.4629 4.59123 16.0197 4.93153 16.36C5.27182 16.7003 5.82867 16.7003 6.16897 16.36L16.0685 6.46052C16.4088 6.12022 16.4088 5.56337 16.0685 5.22308C15.7282 4.88278 15.1713 4.88278 14.831 5.22308Z" fill="#7A7A7A"/>
</svg>
