<svg xmlns="http://www.w3.org/2000/svg" width="112" height="26" viewBox="0 0 112 26" fill="none">
  <path d="M24.15 10.2695C24.2459 10.9576 24.2858 11.6921 24.2858 12.4188C24.2858 18.8281 19.0453 24.039 12.4547 24.2014C12.4547 24.2014 16.0815 22.601 20.0039 17.5911C23.8624 12.7204 24.15 10.2695 24.15 10.2695Z" fill="#196FB0"/>
  <path d="M5.59999 25.8628C4.98487 25.9556 4.42567 25.8783 3.99429 25.6231C1.94921 24.4403 3.38716 20.8529 3.51497 20.4818C4.65734 17.2192 7.6211 13.0211 8.02852 10.1837C8.49186 7.1298 7.42938 6.37986 6.56661 5.95463C6.05534 5.65311 3.47503 4.9109 1.42996 9.00851C-0.687018 13.1138 1.20628 17.5516 1.20628 17.5516C0.423395 16.0131 0 14.2735 0 12.4335C0 5.96237 5.48016 0.681866 12.1346 0.666403C14.2277 0.681866 16.1849 1.2076 17.9024 2.07351C17.9024 2.07351 22.4319 -1.01903 24.1974 0.349418C25.4276 1.34676 25.3957 3.35691 23.8299 7.57048C21.7289 12.9206 16.784 18.0619 14.3395 20.505C12.1027 22.7162 8.19628 25.5226 5.59999 25.8628ZM22.9512 1.55551C21.8088 0.364881 18.6773 2.51419 18.6773 2.51419C20.1152 3.40329 21.3455 4.57073 22.2881 5.95463C22.2881 5.96237 24.0536 2.68428 22.9512 1.55551Z" fill="#196FB0"/>
  <path d="M40.0313 19.4004L33.0972 6.68237H36.6761L41.661 15.6043H41.7089L46.3742 6.68237L49.9691 6.65918L43.2507 19.4004H40.0313Z" fill="#196FB0"/>
  <path d="M58.9955 6.65869L67.4874 15.1863H67.5673L67.4794 6.65869H70.7787V19.3845H67.2877L58.5242 10.6558L58.5002 10.6944L58.5162 19.3845H55.185L55.161 6.65869H58.9955Z" fill="#196FB0"/>
  <path d="M88.2256 6.63574C89.2322 6.63574 90.055 6.76717 90.758 6.99138C91.477 7.20013 92.0681 7.50165 92.5155 7.89595C92.9069 8.28252 93.2504 8.70001 93.4422 9.19481C93.6099 9.69735 93.7537 10.1922 93.7298 10.7256C93.7298 11.2282 93.6179 11.7152 93.4661 12.2255C93.2584 12.7203 92.9149 13.1455 92.5235 13.5398C92.0761 13.9419 91.485 14.2356 90.782 14.4599C90.1029 14.6918 89.2402 14.8155 88.2496 14.8155L82.6256 14.831L82.6416 19.377H79.1027L79.1186 6.65894L88.2256 6.63574ZM87.259 12.643C87.7064 12.643 88.0659 12.6198 88.4174 12.5579C88.8328 12.5038 89.1523 12.3879 89.4079 12.2719C89.7195 12.1327 89.9432 11.9549 90.1109 11.6688C90.2787 11.4524 90.3506 11.1122 90.3506 10.7179C90.3426 10.3081 90.2787 9.97568 90.1109 9.73601C89.9512 9.47314 89.7195 9.27986 89.4079 9.14069C89.1523 9.01699 88.8088 8.89329 88.4333 8.87783C88.0659 8.83144 87.6824 8.80825 87.251 8.80825H82.6256V12.6507L87.259 12.643Z" fill="#196FB0"/>
  <path d="M97.325 9.32625L97.333 6.63574H112V9.32625H106.32V19.3615L102.797 19.377L102.789 9.32625H97.325Z" fill="#196FB0"/>
</svg>
