<svg xmlns="http://www.w3.org/2000/svg" width="26" height="26" viewBox="0 0 26 26" fill="none">
  <rect width="24.8889" height="24.8889" transform="translate(0.78125 0.174194)" fill="#8FD3FF"/>
  <path fill-rule="evenodd" clip-rule="evenodd" d="M13.2256 2.53528C13.4245 2.53528 13.6152 2.6143 13.7559 2.75495L21.0152 10.0142C21.3081 10.3071 21.3081 10.782 21.0152 11.0749C20.7223 11.3678 20.2474 11.3678 19.9545 11.0749L13.9756 5.09594L13.9756 21.9519C13.9756 22.3662 13.6398 22.7019 13.2256 22.7019C12.8114 22.7019 12.4756 22.3662 12.4756 21.9519L12.4756 5.09594L6.49664 11.0749C6.20375 11.3678 5.72887 11.3678 5.43598 11.0749C5.14309 10.782 5.14309 10.3071 5.43598 10.0142L12.6952 2.75495C12.8359 2.6143 13.0267 2.53528 13.2256 2.53528Z" fill="white"/>
</svg>