<svg width="20" height="20" viewBox="0 0 20 20" fill="none" xmlns="http://www.w3.org/2000/svg">
<g clip-path="url(#clip0_3002_976)">
<path d="M19.0625 16.5625V18.4375C19.062 18.6031 18.996 18.7618 18.8789 18.8789C18.7618 18.996 18.6031 19.062 18.4375 19.0625H1.5625C1.39689 19.062 1.23821 18.996 1.1211 18.8789C1.004 18.7618 0.937995 18.6031 0.9375 18.4375V16.5625H19.0625Z" fill="#ACABB1"/>
<path d="M2.1875 6.5625H17.8125C17.9783 6.5625 18.1372 6.62835 18.2544 6.74556C18.3717 6.86277 18.4375 7.02174 18.4375 7.1875V16.5625H1.5625V7.1875C1.5625 7.02174 1.62835 6.86277 1.74556 6.74556C1.86277 6.62835 2.02174 6.5625 2.1875 6.5625Z" fill="#FDCFE6"/>
<path d="M11.875 16.5625L11.5625 17.8125H8.4375L8.125 16.5625H11.875Z" fill="#57565C"/>
<path d="M16.875 2.1875V15H3.125V2.1875L4.0625 3.125L5.3125 2.1875L6.5625 3.125L7.8125 2.1875L9.0625 3.125L10.3125 2.1875L11.5625 3.125L12.8125 2.1875L14.0625 3.125L15 2.1875L15.9375 3.125L16.875 2.1875Z" fill="white"/>
<path d="M19.0625 16.2501H18.75V7.18756C18.7493 6.93915 18.6502 6.70112 18.4746 6.52547C18.2989 6.34981 18.0609 6.2508 17.8125 6.25006H17.1875V2.18756C17.1877 2.12574 17.1694 2.06528 17.1348 2.01401C17.1003 1.96275 17.0511 1.92305 16.9937 1.90006C16.9368 1.87613 16.8741 1.86959 16.8135 1.88127C16.7529 1.89295 16.6971 1.92232 16.6531 1.96569L15.9375 2.68444L15.2219 1.96569C15.1629 1.90714 15.0831 1.87428 15 1.87428C14.9169 1.87428 14.8371 1.90714 14.7781 1.96569L14.0344 2.71256L13 1.93756C12.9461 1.8965 12.8802 1.87427 12.8125 1.87427C12.7448 1.87427 12.6789 1.8965 12.625 1.93756L11.5625 2.73444L10.5 1.93756C10.4461 1.8965 10.3802 1.87427 10.3125 1.87427C10.2448 1.87427 10.1789 1.8965 10.125 1.93756L9.0625 2.73444L8 1.93756C7.94612 1.8965 7.88024 1.87427 7.8125 1.87427C7.74476 1.87427 7.67888 1.8965 7.625 1.93756L6.5625 2.73444L5.5 1.93756C5.44612 1.8965 5.38024 1.87427 5.3125 1.87427C5.24476 1.87427 5.17888 1.8965 5.125 1.93756L4.09063 2.71256L3.34687 1.96569C3.30293 1.92232 3.24713 1.89295 3.1865 1.88127C3.12588 1.86959 3.06316 1.87613 3.00625 1.90006C2.94886 1.92305 2.89971 1.96275 2.86516 2.01401C2.83061 2.06528 2.81226 2.12574 2.8125 2.18756V6.25006H2.1875C1.93909 6.2508 1.70106 6.34981 1.52541 6.52547C1.34975 6.70112 1.25074 6.93915 1.25 7.18756V16.2501H0.9375C0.85462 16.2501 0.775134 16.283 0.716529 16.3416C0.657924 16.4002 0.625 16.4797 0.625 16.5626V18.4376C0.625742 18.686 0.724752 18.924 0.900407 19.0997C1.07606 19.2753 1.31409 19.3743 1.5625 19.3751H18.4375C18.6859 19.3743 18.9239 19.2753 19.0996 19.0997C19.2752 18.924 19.3743 18.686 19.375 18.4376V16.5626C19.375 16.4797 19.3421 16.4002 19.2835 16.3416C19.2249 16.283 19.1454 16.2501 19.0625 16.2501ZM3.4375 2.94069L3.84063 3.34694C3.89398 3.40023 3.96481 3.43243 4.04005 3.4376C4.11529 3.44277 4.18986 3.42056 4.25 3.37506L5.3125 2.57819L6.375 3.37506C6.42888 3.41612 6.49476 3.43835 6.5625 3.43835C6.63024 3.43835 6.69612 3.41612 6.75 3.37506L7.8125 2.57819L8.875 3.37506C8.92888 3.41612 8.99476 3.43835 9.0625 3.43835C9.13024 3.43835 9.19612 3.41612 9.25 3.37506L10.3125 2.57819L11.375 3.37506C11.4289 3.41612 11.4948 3.43835 11.5625 3.43835C11.6302 3.43835 11.6961 3.41612 11.75 3.37506L12.8125 2.57819L13.875 3.37506C13.9351 3.42056 14.0097 3.44277 14.085 3.4376C14.1602 3.43243 14.231 3.40023 14.2844 3.34694L15 2.62818L15.7156 3.34694C15.7746 3.40548 15.8544 3.43834 15.9375 3.43834C16.0206 3.43834 16.1004 3.40548 16.1594 3.34694L16.5625 2.94069V14.6876H3.4375V2.94069ZM1.875 7.18756C1.875 7.10468 1.90792 7.02519 1.96653 6.96659C2.02513 6.90798 2.10462 6.87506 2.1875 6.87506H2.8125V14.6876H2.5V15.3126H17.8125V14.6876H17.1875V6.87506H17.8125C17.8954 6.87506 17.9749 6.90798 18.0335 6.96659C18.0921 7.02519 18.125 7.10468 18.125 7.18756V16.2501H1.875V7.18756ZM11.475 16.8751L11.3188 17.5001H8.68125L8.525 16.8751H11.475ZM18.75 18.4376C18.75 18.5204 18.7171 18.5999 18.6585 18.6585C18.5999 18.7171 18.5204 18.7501 18.4375 18.7501H1.5625C1.47962 18.7501 1.40013 18.7171 1.34153 18.6585C1.28292 18.5999 1.25 18.5204 1.25 18.4376V16.8751H7.88125L8.13438 17.8876C8.15112 17.9553 8.19007 18.0155 8.24501 18.0585C8.29995 18.1016 8.36771 18.125 8.4375 18.1251H11.5625C11.6323 18.125 11.7001 18.1016 11.755 18.0585C11.8099 18.0155 11.8489 17.9553 11.8656 17.8876L12.1187 16.8751H18.75V18.4376Z" fill="black"/>
<path d="M7.1875 5H8.4375V5.625H7.1875V5Z" fill="black"/>
<path d="M7.1875 6.5625H8.4375V7.1875H7.1875V6.5625Z" fill="black"/>
<path d="M7.1875 8.125H8.4375V8.75H7.1875V8.125Z" fill="black"/>
<path d="M9.375 5H15.625V5.625H9.375V5Z" fill="black"/>
<path d="M9.375 6.5625H15.625V7.1875H9.375V6.5625Z" fill="black"/>
<path d="M9.375 8.125H15.625V8.75H9.375V8.125Z" fill="black"/>
<path d="M4.375 9.6875H15.625V10.3125H4.375V9.6875Z" fill="black"/>
<path d="M4.375 11.25H15.625V11.875H4.375V11.25Z" fill="black"/>
<path d="M4.375 12.8125H15.625V13.4375H4.375V12.8125Z" fill="black"/>
</g>
<defs>
<clipPath id="clip0_3002_976">
<rect width="20" height="20" fill="white"/>
</clipPath>
</defs>
</svg>
