<svg xmlns="http://www.w3.org/2000/svg" width="22" height="22" viewBox="0 0 22 22" fill="none">
  <path fill-rule="evenodd" clip-rule="evenodd" d="M14.2082 0.916656H4.12484C3.1165 0.916656 2.2915 1.74166 2.2915 2.74999V14.6667C2.2915 15.1708 2.704 15.5833 3.20817 15.5833C3.71234 15.5833 4.12484 15.1708 4.12484 14.6667V3.66666C4.12484 3.16249 4.53734 2.74999 5.0415 2.74999H14.2082C14.7123 2.74999 15.1248 2.33749 15.1248 1.83332C15.1248 1.32916 14.7123 0.916656 14.2082 0.916656ZM17.8748 4.58332H7.7915C6.78317 4.58332 5.95817 5.40832 5.95817 6.41666V19.25C5.95817 20.2583 6.78317 21.0833 7.7915 21.0833H17.8748C18.8832 21.0833 19.7082 20.2583 19.7082 19.25V6.41666C19.7082 5.40832 18.8832 4.58332 17.8748 4.58332ZM8.70817 19.25H16.9582C17.4623 19.25 17.8748 18.8375 17.8748 18.3333V7.33332C17.8748 6.82916 17.4623 6.41666 16.9582 6.41666H8.70817C8.204 6.41666 7.7915 6.82916 7.7915 7.33332V18.3333C7.7915 18.8375 8.204 19.25 8.70817 19.25Z" fill="#787878"/>
</svg>
