<svg width="16" height="16" viewBox="0 0 16 16" fill="none" xmlns="http://www.w3.org/2000/svg">
<path fill-rule="evenodd" clip-rule="evenodd" d="M7.33331 1.5H7.31454C6.39854 1.5 5.68553 1.5 5.11066 1.53922C4.52737 1.57902 4.04986 1.66086 3.61124 1.84254C2.50861 2.29926 1.63258 3.1753 1.17586 4.27792C0.994172 4.71655 0.91233 5.19406 0.872533 5.77734C0.83331 6.35221 0.833311 7.06523 0.833313 7.98123V8V8.01877C0.833311 8.93477 0.83331 9.64779 0.872533 10.2227C0.91233 10.8059 0.994172 11.2835 1.17586 11.7221C1.63258 12.8247 2.50861 13.7007 3.61124 14.1575C4.04986 14.3391 4.52737 14.421 5.11065 14.4608C5.68553 14.5 6.39853 14.5 7.31454 14.5H7.33331H8.66665H8.68542C9.60142 14.5 10.3144 14.5 10.8893 14.4608C11.4726 14.421 11.9501 14.3391 12.3887 14.1575C13.4914 13.7007 14.3674 12.8247 14.8241 11.7221C15.0058 11.2835 15.0876 10.8059 15.1274 10.2227C15.1667 9.64779 15.1666 8.93478 15.1666 8.01878V8V7.98122C15.1666 7.06522 15.1667 6.35221 15.1274 5.77734C15.0876 5.19406 15.0058 4.71655 14.8241 4.27792C14.3674 3.1753 13.4914 2.29926 12.3887 1.84254C11.9501 1.66086 11.4726 1.57902 10.8893 1.53922C10.3144 1.5 9.60142 1.5 8.68542 1.5H8.66665H7.33331ZM3.99392 2.76642C4.29038 2.64362 4.64636 2.57322 5.17873 2.5369C5.71559 2.50027 6.39459 2.5 7.33331 2.5H8.66665C9.60537 2.5 10.2844 2.50027 10.8212 2.5369C11.3536 2.57322 11.7096 2.64362 12.006 2.76642C12.8636 3.12165 13.545 3.80301 13.9002 4.66061C14.023 4.95707 14.0934 5.31304 14.1297 5.84541C14.1664 6.38227 14.1666 7.06128 14.1666 8C14.1666 8.93872 14.1664 9.61773 14.1297 10.1546C14.0934 10.687 14.023 11.0429 13.9002 11.3394C13.545 12.197 12.8636 12.8783 12.006 13.2336C11.7096 13.3564 11.3536 13.4268 10.8212 13.4631C10.2844 13.4997 9.60537 13.5 8.66665 13.5H7.33331C6.39459 13.5 5.71559 13.4997 5.17873 13.4631C4.64636 13.4268 4.29038 13.3564 3.99392 13.2336C3.13632 12.8783 2.45496 12.197 2.09973 11.3394C1.97694 11.0429 1.90654 10.687 1.87021 10.1546C1.83358 9.61773 1.83331 8.93872 1.83331 8C1.83331 7.06128 1.83358 6.38227 1.87021 5.84541C1.90654 5.31304 1.97694 4.95707 2.09973 4.66061C2.45496 3.80301 3.13632 3.12165 3.99392 2.76642ZM4.27734 4.91913C4.04757 4.76596 3.73714 4.82804 3.58396 5.05781C3.43079 5.28757 3.49287 5.59801 3.72264 5.75118L4.3893 6.19563C6.57576 7.65326 9.42422 7.65326 11.6107 6.19563L12.2773 5.75118C12.5071 5.59801 12.5692 5.28757 12.416 5.05781C12.2628 4.82804 11.9524 4.76596 11.7226 4.91913L11.056 5.36358C9.20542 6.59728 6.79456 6.59728 4.94401 5.36358L4.27734 4.91913Z" fill="#196FB0"/>
</svg>
