<svg width="22" height="20" viewBox="0 0 22 20" fill="none" xmlns="http://www.w3.org/2000/svg">
<path d="M21.0688 16.7859V18.9286C21.0683 19.1179 20.9928 19.2993 20.859 19.4331C20.7252 19.5669 20.5438 19.6423 20.3546 19.6429H1.06972C0.880464 19.6423 0.699119 19.5669 0.565293 19.4331C0.431467 19.2993 0.356034 19.1179 0.355469 18.9286V16.7859H21.0688Z" fill="white"/>
<path d="M1.78457 5.35791H19.6409C19.8303 5.35791 20.012 5.43316 20.146 5.56711C20.2799 5.70106 20.3552 5.88273 20.3552 6.07216V16.786H1.07031V6.07216C1.07031 5.88273 1.14556 5.70106 1.27951 5.56711C1.41346 5.43316 1.59513 5.35791 1.78457 5.35791Z" fill="white"/>
<path d="M12.8558 16.7859L12.4987 18.2144H8.92744L8.57031 16.7859H12.8558Z" fill="#57565C"/>
<path d="M18.569 0.358154V15.0003H2.85547V0.358154L3.92685 1.42953L5.35536 0.358154L6.78386 1.42953L8.21237 0.358154L9.64088 1.42953L11.0694 0.358154L12.4979 1.42953L13.9264 0.358154L15.3549 1.42953L16.4263 0.358154L17.4977 1.42953L18.569 0.358154Z" fill="white"/>
<path d="M21.0705 16.4287H20.7133V6.07206C20.7125 5.78817 20.5993 5.51615 20.3986 5.31542C20.1979 5.11468 19.9259 5.00153 19.642 5.00068H18.9277V0.358032C18.928 0.287385 18.907 0.218286 18.8675 0.159701C18.8281 0.101115 18.7719 0.0557445 18.7063 0.0294757C18.6413 0.00212716 18.5696 -0.0053448 18.5003 0.0080025C18.431 0.0213498 18.3672 0.0549183 18.317 0.104472L17.4992 0.925864L16.6814 0.104472C16.614 0.037564 16.5228 1.8732e-05 16.4278 1.8732e-05C16.3328 1.8732e-05 16.2417 0.037564 16.1743 0.104472L15.3243 0.958005L14.1422 0.0723309C14.0806 0.0254108 14.0054 0 13.9279 0C13.8505 0 13.7752 0.0254108 13.7137 0.0723309L12.4994 0.983004L11.2852 0.0723309C11.2236 0.0254108 11.1483 0 11.0709 0C10.9935 0 10.9182 0.0254108 10.8567 0.0723309L9.64242 0.983004L8.42819 0.0723309C8.36661 0.0254108 8.29133 0 8.21391 0C8.1365 0 8.06122 0.0254108 7.99964 0.0723309L6.78541 0.983004L5.57118 0.0723309C5.5096 0.0254108 5.43432 0 5.3569 0C5.27948 0 5.2042 0.0254108 5.14262 0.0723309L3.96054 0.958005L3.11057 0.104472C3.06035 0.0549183 2.99658 0.0213498 2.9273 0.0080025C2.85802 -0.0053448 2.78634 0.00212716 2.72131 0.0294757C2.65572 0.0557445 2.59955 0.101115 2.56007 0.159701C2.52058 0.218286 2.49962 0.287385 2.49989 0.358032V5.00068H1.78563C1.50175 5.00153 1.22973 5.11468 1.02899 5.31542C0.828251 5.51615 0.715101 5.78817 0.714253 6.07206V16.4287H0.357127C0.262411 16.4287 0.171574 16.4664 0.1046 16.5333C0.0376257 16.6003 0 16.6911 0 16.7859V18.9286C0.000847851 19.2125 0.113997 19.4845 0.314737 19.6853C0.515476 19.886 0.787493 19.9992 1.07138 20H20.3562C20.6401 19.9992 20.9121 19.886 21.1129 19.6853C21.3136 19.4845 21.4268 19.2125 21.4276 18.9286V16.7859C21.4276 16.6911 21.39 16.6003 21.323 16.5333C21.256 16.4664 21.1652 16.4287 21.0705 16.4287ZM3.21414 1.21871L3.67483 1.68297C3.73581 1.74388 3.81676 1.78068 3.90274 1.78659C3.98872 1.79249 4.07394 1.76711 4.14267 1.71511L5.3569 0.804441L6.57113 1.71511C6.63271 1.76203 6.70799 1.78744 6.78541 1.78744C6.86282 1.78744 6.9381 1.76203 6.99968 1.71511L8.21391 0.804441L9.42814 1.71511C9.48972 1.76203 9.565 1.78744 9.64242 1.78744C9.71984 1.78744 9.79512 1.76203 9.8567 1.71511L11.0709 0.804441L12.2852 1.71511C12.3467 1.76203 12.422 1.78744 12.4994 1.78744C12.5769 1.78744 12.6521 1.76203 12.7137 1.71511L13.9279 0.804441L15.1422 1.71511C15.2109 1.76711 15.2961 1.79249 15.3821 1.78659C15.4681 1.78068 15.549 1.74388 15.61 1.68297L16.4278 0.861581L17.2456 1.68297C17.3131 1.74988 17.4042 1.78743 17.4992 1.78743C17.5942 1.78743 17.6853 1.74988 17.7528 1.68297L18.2135 1.21871V14.6431H3.21414V1.21871ZM1.42851 6.07206C1.42851 5.97734 1.46613 5.88651 1.53311 5.81953C1.60008 5.75256 1.69092 5.71493 1.78563 5.71493H2.49989V14.6431H2.14276V15.3574H19.642V14.6431H18.9277V5.71493H19.642C19.7367 5.71493 19.8275 5.75256 19.8945 5.81953C19.9615 5.88651 19.9991 5.97734 19.9991 6.07206V16.4287H1.42851V6.07206ZM12.3994 17.143L12.2209 17.8572H9.20673L9.02816 17.143H12.3994ZM20.7133 18.9286C20.7133 19.0233 20.6757 19.1142 20.6087 19.1811C20.5418 19.2481 20.4509 19.2857 20.3562 19.2857H1.07138C0.976664 19.2857 0.885828 19.2481 0.818853 19.1811C0.751879 19.1142 0.714253 19.0233 0.714253 18.9286V17.143H8.29248L8.58175 18.3001C8.6009 18.3775 8.6454 18.4463 8.70819 18.4955C8.77097 18.5447 8.84841 18.5714 8.92817 18.5715H12.4994C12.5792 18.5714 12.6566 18.5447 12.7194 18.4955C12.7822 18.4463 12.8267 18.3775 12.8458 18.3001L13.1351 17.143H20.7133V18.9286Z" fill="#3470D1"/>
<path d="M7.5 3.57227H8.92851V4.28652H7.5V3.57227Z" fill="#3470D1"/>
<path d="M7.5 5.35791H8.92851V6.07216H7.5V5.35791Z" fill="#3470D1"/>
<path d="M7.5 7.14355H8.92851V7.85781H7.5V7.14355Z" fill="#3470D1"/>
<path d="M10 3.57227H17.1425V4.28652H10V3.57227Z" fill="#3470D1"/>
<path d="M10 5.35791H17.1425V6.07216H10V5.35791Z" fill="#3470D1"/>
<path d="M10 7.14355H17.1425V7.85781H10V7.14355Z" fill="#3470D1"/>
<path d="M4.28516 8.92896H17.1417V9.64321H4.28516V8.92896Z" fill="#3470D1"/>
<path d="M4.28516 10.7148H17.1417V11.4291H4.28516V10.7148Z" fill="#3470D1"/>
<path d="M4.28516 12.5005H17.1417V13.2147H4.28516V12.5005Z" fill="#3470D1"/>
</svg>
