<svg width="17" height="20" viewBox="0 0 17 20" fill="none" xmlns="http://www.w3.org/2000/svg">
<path d="M11.906 19.5238C11.287 19.5238 10.7949 19.0317 10.7949 18.4127V7.14285C10.7949 6.5238 11.287 6.03174 11.906 6.03174C12.5251 6.03174 13.0171 6.5238 13.0171 7.14285V18.4127C13.0171 19.0317 12.5251 19.5238 11.906 19.5238Z" fill="#DDB4F8"/>
<path d="M11.9037 20.0001C11.0307 20.0001 10.3164 19.2858 10.3164 18.4128V7.14297C10.3164 6.26995 11.0307 5.55566 11.9037 5.55566C12.7767 5.55566 13.491 6.26995 13.491 7.14297V18.4128C13.491 19.2858 12.7767 20.0001 11.9037 20.0001ZM11.9037 6.50805C11.5545 6.50805 11.2688 6.79376 11.2688 7.14297V18.4128C11.2688 18.762 11.5545 19.0477 11.9037 19.0477C12.2529 19.0477 12.5386 18.762 12.5386 18.4128V7.14297C12.5386 6.79376 12.2529 6.50805 11.9037 6.50805Z" fill="#444B54"/>
<path d="M5.23769 4.76179V2.06338C5.23769 1.19036 4.52341 0.476074 3.65039 0.476074H10.7932C11.6663 0.476074 12.3805 1.19036 12.3805 2.06338V3.17449C12.3805 4.0475 13.0948 4.76179 13.9679 4.76179" fill="#DDB4F8"/>
<path d="M9.20672 19.5238H2.06386C1.19085 19.5238 0.476562 18.8095 0.476562 17.9365V7.61904C0.476562 6.74602 1.19085 6.03174 2.06386 6.03174H9.20672C10.0797 6.03174 10.794 6.74602 10.794 7.61904V17.9365C10.794 18.8095 10.0797 19.5238 9.20672 19.5238Z" fill="white"/>
<path d="M10.7921 6.03174H0.474609V7.46031H10.7921V6.03174Z" fill="#DDB4F8"/>
<path d="M9.20536 10.4763H2.0625V13.6509H9.20536V10.4763Z" fill="#DDB4F8"/>
<path d="M11.9048 20.0001H1.5873C0.714286 20.0001 0 19.2858 0 18.4128V7.14297C0 6.26995 0.714286 5.55566 1.5873 5.55566H11.9048C12.1746 5.55566 12.381 5.76201 12.381 6.03185C12.381 6.3017 12.1746 6.50805 11.9048 6.50805C11.5556 6.50805 11.2698 6.79376 11.2698 7.14297V18.4128C11.2698 18.762 11.5556 19.0477 11.9048 19.0477C12.1746 19.0477 12.381 19.2541 12.381 19.5239C12.381 19.7938 12.1746 20.0001 11.9048 20.0001ZM1.5873 6.50805C1.2381 6.50805 0.952381 6.79376 0.952381 7.14297V18.4128C0.952381 18.762 1.2381 19.0477 1.5873 19.0477H10.4444C10.3651 18.8573 10.3175 18.635 10.3175 18.4128V7.14297C10.3175 6.92074 10.3651 6.69852 10.4444 6.50805H1.5873Z" fill="#444B54"/>
<path d="M9.20694 9.52391H2.06408C1.79424 9.52391 1.58789 9.31756 1.58789 9.04772C1.58789 8.77788 1.79424 8.57153 2.06408 8.57153H9.20694C9.47678 8.57153 9.68313 8.77788 9.68313 9.04772C9.68313 9.31756 9.47678 9.52391 9.20694 9.52391Z" fill="#444B54"/>
<path d="M8.33219 15.9522C8.68284 15.9522 8.96711 15.668 8.96711 15.3173C8.96711 14.9666 8.68284 14.6824 8.33219 14.6824C7.98153 14.6824 7.69727 14.9666 7.69727 15.3173C7.69727 15.668 7.98153 15.9522 8.33219 15.9522Z" fill="#C987F4"/>
<path d="M8.33414 18.1746C8.6848 18.1746 8.96906 17.8904 8.96906 17.5397C8.96906 17.189 8.6848 16.9048 8.33414 16.9048C7.98348 16.9048 7.69922 17.189 7.69922 17.5397C7.69922 17.8904 7.98348 18.1746 8.33414 18.1746Z" fill="#DDB4F8"/>
<path d="M5.63687 15.9525C5.98753 15.9525 6.27179 15.6682 6.27179 15.3175C6.27179 14.9669 5.98753 14.6826 5.63687 14.6826C5.28622 14.6826 5.00195 14.9669 5.00195 15.3175C5.00195 15.6682 5.28622 15.9525 5.63687 15.9525Z" fill="#DDB4F8"/>
<path d="M5.63687 18.1746C5.98753 18.1746 6.27179 17.8904 6.27179 17.5397C6.27179 17.189 5.98753 16.9048 5.63687 16.9048C5.28622 16.9048 5.00195 17.189 5.00195 17.5397C5.00195 17.8904 5.28622 18.1746 5.63687 18.1746Z" fill="#DDB4F8"/>
<path d="M2.93766 15.9525C3.28831 15.9525 3.57258 15.6682 3.57258 15.3175C3.57258 14.9669 3.28831 14.6826 2.93766 14.6826C2.587 14.6826 2.30273 14.9669 2.30273 15.3175C2.30273 15.6682 2.587 15.9525 2.93766 15.9525Z" fill="#DDB4F8"/>
<path d="M2.93766 18.1746C3.28831 18.1746 3.57258 17.8904 3.57258 17.5397C3.57258 17.189 3.28831 16.9048 2.93766 16.9048C2.587 16.9048 2.30273 17.189 2.30273 17.5397C2.30273 17.8904 2.587 18.1746 2.93766 18.1746Z" fill="#DDB4F8"/>
<path d="M13.9672 5.2381C12.8243 5.2381 11.9037 4.31746 11.9037 3.1746V2.06349C11.9037 1.44444 11.4116 0.952381 10.7926 0.952381C10.5228 0.952381 10.3164 0.746032 10.3164 0.476191C10.3164 0.206349 10.5228 0 10.7926 0C11.9355 0 12.8561 0.920635 12.8561 2.06349V3.1746C12.8561 3.79365 13.3482 4.28571 13.9672 4.28571C14.5862 4.28571 15.0783 3.79365 15.0783 3.1746V2.22222C15.0783 1.95238 15.2847 1.74603 15.5545 1.74603C15.8243 1.74603 16.0307 1.95238 16.0307 2.22222V3.1746C16.0307 4.31746 15.1101 5.2381 13.9672 5.2381Z" fill="#444B54"/>
<path d="M9.20536 8.09512V2.06338C9.20536 1.19036 9.91964 0.476074 10.7927 0.476074H3.6498C2.77679 0.476074 2.0625 1.19036 2.0625 2.06338V8.09512" fill="white"/>
<path d="M5.53883 6.11099C5.3801 6.11099 5.25312 6.03163 5.15788 5.92052L4.47534 5.01575C4.31661 4.8094 4.36423 4.50782 4.57058 4.34909C4.77693 4.19036 5.07852 4.23798 5.23725 4.44433L5.55471 4.85702L6.4436 3.74591C6.60233 3.53956 6.90391 3.50782 7.11026 3.66655C7.31661 3.82528 7.34836 4.12686 7.18963 4.33321L5.91979 5.92052C5.82455 6.0475 5.69756 6.11099 5.53883 6.11099Z" fill="#C987F4"/>
<path d="M2.06213 7.93651C1.79229 7.93651 1.58594 7.73016 1.58594 7.46032V2.06349C1.58594 0.920635 2.50657 0 3.64943 0C3.91927 0 4.12562 0.206349 4.12562 0.476191C4.12562 0.746032 3.91927 0.952381 3.64943 0.952381C3.03038 0.952381 2.53832 1.44444 2.53832 2.06349V7.46032C2.53832 7.73016 2.33197 7.93651 2.06213 7.93651Z" fill="#444B54"/>
<path d="M9.20557 9.52381C8.93573 9.52381 8.72938 9.31746 8.72938 9.04762V2.06349C8.72938 1.65079 8.85637 1.26984 9.04684 0.952381H3.65002C3.38018 0.952381 3.17383 0.746032 3.17383 0.476191C3.17383 0.206349 3.38018 0 3.65002 0H10.7929C11.0627 0 11.2691 0.206349 11.2691 0.476191C11.2691 0.746032 11.0627 0.952381 10.7929 0.952381C10.1738 0.952381 9.68176 1.44444 9.68176 2.06349V9.04762C9.68176 9.31746 9.47542 9.52381 9.20557 9.52381Z" fill="#444B54"/>
</svg>
