<svg width="16" height="16" viewBox="0 0 16 16" fill="none" xmlns="http://www.w3.org/2000/svg">
<g clip-path="url(#clip0_2532_3440)">
<path fill-rule="evenodd" clip-rule="evenodd" d="M8.75417 1.53812C8.25981 1.40136 7.73761 1.40136 7.24325 1.53812C6.98764 1.60883 6.72595 1.7405 6.37007 1.98477C6.00899 2.23262 5.57955 2.57577 4.97935 3.05593L3.64602 4.1226C2.88925 4.72801 2.58693 4.97526 2.37137 5.27263C2.17216 5.54744 2.02395 5.85581 1.9338 6.18304C1.83625 6.53713 1.83204 6.92766 1.83204 7.8968V11.3335C1.83204 12.8983 3.10057 14.1668 4.66538 14.1668C5.12562 14.1668 5.49871 13.7937 5.49871 13.3335V10.6668C5.49871 9.28604 6.618 8.16676 7.99871 8.16676C9.37942 8.16676 10.4987 9.28605 10.4987 10.6668V13.3335C10.4987 13.7937 10.8718 14.1668 11.332 14.1668C12.8969 14.1668 14.1654 12.8983 14.1654 11.3335V7.8968C14.1654 6.92766 14.1612 6.53713 14.0636 6.18304C13.9735 5.85581 13.8253 5.54744 13.6261 5.27263C13.4105 4.97526 13.1082 4.72801 12.3514 4.1226L11.0181 3.05593C10.4179 2.57578 9.98843 2.23262 9.62735 1.98477C9.27147 1.7405 9.00978 1.60883 8.75417 1.53812ZM6.97662 0.574319C7.64545 0.389289 8.35197 0.389289 9.0208 0.574319C9.42453 0.686011 9.78978 0.883358 10.1933 1.16031C10.5881 1.43132 11.0459 1.79756 11.6275 2.26284L11.6428 2.27506L12.9761 3.34173C12.9963 3.35789 13.0163 3.37387 13.036 3.38967C13.7139 3.93178 14.1311 4.26545 14.4357 4.68572C14.7052 5.05752 14.9057 5.47473 15.0277 5.91745C15.1656 6.41788 15.1655 6.9521 15.1654 7.82004C15.1654 7.84534 15.1654 7.87092 15.1654 7.8968V11.3335C15.1654 13.4506 13.4491 15.1668 11.332 15.1668C10.3195 15.1668 9.49871 14.346 9.49871 13.3335V10.6668C9.49871 9.83833 8.82714 9.16676 7.99871 9.16676C7.17028 9.16676 6.49871 9.83833 6.49871 10.6668V13.3335C6.49871 14.346 5.6779 15.1668 4.66538 15.1668C2.54829 15.1668 0.832044 13.4506 0.832044 11.3335V7.8968C0.832044 7.87092 0.832041 7.84534 0.832038 7.82005C0.831923 6.9521 0.831853 6.41789 0.969715 5.91745C1.09168 5.47473 1.2922 5.05752 1.56171 4.68572C1.86637 4.26545 2.28356 3.93178 2.96139 3.38967C2.98114 3.37387 3.00112 3.35789 3.02132 3.34173L4.35466 2.27506L4.36994 2.26283C4.95153 1.79756 5.40933 1.43132 5.80416 1.16031C6.20764 0.883358 6.57289 0.686011 6.97662 0.574319Z" fill="#22272F"/>
</g>
<defs>
<clipPath id="clip0_2532_3440">
<rect width="16" height="16" fill="white"/>
</clipPath>
</defs>
</svg>
