<svg xmlns="http://www.w3.org/2000/svg" width="24" height="24" viewBox="0 0 24 24" fill="none">
  <path d="M11.8891 16.0573C11.2292 16.7651 10.5985 17.6088 9.80285 18.2585C8.35704 19.4416 6.18348 19.1894 4.94145 17.8027C3.6703 16.3773 3.68001 14.2536 5.00937 12.8766C6.32903 11.519 7.6584 10.1808 9.01687 8.87164C10.3851 7.54314 12.578 7.54314 13.9365 8.83285C14.3926 9.25953 14.4508 9.74438 14.1112 10.1614C13.7521 10.5978 13.2573 10.6075 12.743 10.2002C11.8697 9.47286 10.9284 9.51165 10.1231 10.3166C8.90043 11.5384 7.67781 12.7602 6.45518 13.9821C5.6498 14.7966 5.61098 15.9118 6.35814 16.6585C7.10531 17.4052 8.2406 17.3761 9.02658 16.5421C9.51175 16.0282 9.9387 15.6209 10.7344 15.97C11.0934 16.1348 11.5689 16.0379 11.8891 16.0573Z" fill="#565656"/>
  <path d="M11.1804 6.96127C11.8305 6.25338 12.4613 5.36124 13.2861 4.71153C14.7416 3.55758 16.886 3.85819 18.0989 5.24488C19.341 6.66066 19.3216 8.77463 18.0116 10.1322C16.6822 11.4995 15.3432 12.8474 13.9653 14.1759C12.6165 15.4753 10.4235 15.4656 9.08448 14.1953C8.60901 13.7493 8.55079 13.245 8.92922 12.8377C9.29795 12.4304 9.76372 12.4304 10.2586 12.8183C11.1804 13.5553 12.0925 13.5068 12.9367 12.6632C14.1497 11.451 15.3626 10.2486 16.5658 9.03645C17.3712 8.22189 17.4197 7.11642 16.6725 6.36005C15.9351 5.61337 14.7804 5.62306 14.0041 6.45702C13.4995 7.00975 13.0338 7.34915 12.2478 7.01945C11.8888 6.89339 11.4424 6.97097 11.1804 6.96127Z" fill="#565656"/>
</svg>
