<svg width="16" height="16" viewBox="0 0 16 16" fill="none" xmlns="http://www.w3.org/2000/svg">
<path fill-rule="evenodd" clip-rule="evenodd" d="M3.83322 5.86736C3.83322 3.50093 5.65868 1.83398 7.99988 1.83398C10.3411 1.83398 12.1665 3.50093 12.1665 5.86736C12.1665 7.80294 11.3318 9.21279 10.3733 10.1462C9.89203 10.6148 9.38249 10.9599 8.93945 11.1858C8.47927 11.4204 8.14211 11.5007 7.99988 11.5007C7.85766 11.5007 7.52049 11.4204 7.06032 11.1858C6.61728 10.9599 6.10774 10.6148 5.62649 10.1462C4.66799 9.21279 3.83322 7.80294 3.83322 5.86736ZM7.99988 0.833984C5.1559 0.833984 2.83322 2.90041 2.83322 5.86736C2.83322 8.11945 3.81325 9.77625 4.92883 10.8626C5.48462 11.4038 6.07693 11.8069 6.60611 12.0767C7.11816 12.3377 7.62359 12.5007 7.99988 12.5007C8.37617 12.5007 8.8816 12.3377 9.39365 12.0767C9.92284 11.8069 10.5151 11.4038 11.0709 10.8626C12.1865 9.77625 13.1665 8.11945 13.1665 5.86736C13.1665 2.90041 10.8439 0.833984 7.99988 0.833984ZM7.99965 4.50117C7.53942 4.50117 7.16632 4.87427 7.16632 5.33451C7.16632 5.79474 7.53942 6.16784 7.99965 6.16784C8.45989 6.16784 8.83299 5.79474 8.83299 5.33451C8.83299 4.87427 8.45989 4.50117 7.99965 4.50117ZM6.16632 5.33451C6.16632 4.32198 6.98713 3.50117 7.99965 3.50117C9.01218 3.50117 9.83299 4.32198 9.83299 5.33451C9.83299 6.34703 9.01218 7.16784 7.99965 7.16784C6.98713 7.16784 6.16632 6.34703 6.16632 5.33451ZM3.28216 11.1574C3.38011 11.4156 3.25022 11.7043 2.99204 11.8022C2.5568 11.9674 2.2448 12.1424 2.05066 12.3078C1.85393 12.4753 1.83319 12.5825 1.83319 12.6213C1.83319 12.6668 1.86465 12.8057 2.1508 13.0134C2.42584 13.213 2.85601 13.4136 3.43256 13.5906C4.57952 13.9428 6.19441 14.1681 7.99986 14.1681C9.8053 14.1681 11.4202 13.9428 12.5672 13.5906C13.1437 13.4136 13.5739 13.213 13.8489 13.0134C14.1351 12.8057 14.1665 12.6668 14.1665 12.6213C14.1665 12.5825 14.1458 12.4753 13.9491 12.3078C13.7549 12.1424 13.4429 11.9674 13.0077 11.8022C12.7495 11.7043 12.6196 11.4156 12.7176 11.1574C12.8155 10.8992 13.1042 10.7693 13.3624 10.8673C13.8537 11.0537 14.2824 11.2782 14.5974 11.5464C14.9098 11.8124 15.1665 12.1728 15.1665 12.6213C15.1665 13.1411 14.8249 13.5406 14.4363 13.8227C14.0367 14.1128 13.4905 14.3532 12.8606 14.5466C11.5948 14.9352 9.87631 15.1681 7.99986 15.1681C6.1234 15.1681 4.40496 14.9352 3.13907 14.5466C2.50919 14.3532 1.96304 14.1128 1.56338 13.8227C1.17483 13.5406 0.833191 13.1411 0.833191 12.6213C0.833191 12.1728 1.08994 11.8124 1.40231 11.5464C1.71729 11.2782 2.14602 11.0537 2.63731 10.8673C2.89549 10.7693 3.1842 10.8992 3.28216 11.1574Z" fill="#196FB0"/>
</svg>
