<svg xmlns="http://www.w3.org/2000/svg" width="14" height="14" viewBox="0 0 14 14" fill="none">
  <path fill-rule="evenodd" clip-rule="evenodd" d="M6.66699 4.1665C6.94313 4.1665 7.16699 4.39036 7.16699 4.6665V7.06558L8.94434 8.25048C9.17411 8.40366 9.23619 8.71409 9.08302 8.94385C8.92984 9.17362 8.61941 9.23571 8.38964 9.08253L6.38964 7.7492C6.25054 7.65646 6.16699 7.50035 6.16699 7.33317V4.6665C6.16699 4.39036 6.39085 4.1665 6.66699 4.1665Z" fill="#606367"/>
  <path fill-rule="evenodd" clip-rule="evenodd" d="M0.833496 7.00006C0.833496 3.59423 3.59447 0.833252 7.00031 0.833252C10.4061 0.833252 13.1671 3.59423 13.1671 7.00006C13.1671 10.4059 10.4061 13.1669 7.00031 13.1669C3.59447 13.1669 0.833496 10.4059 0.833496 7.00006ZM7.00031 1.83325C4.14676 1.83325 1.8335 4.14651 1.8335 7.00006C1.8335 9.85361 4.14676 12.1669 7.00031 12.1669C9.85386 12.1669 12.1671 9.85361 12.1671 7.00006C12.1671 4.14651 9.85386 1.83325 7.00031 1.83325Z" fill="#606367"/>
</svg>
