<svg xmlns="http://www.w3.org/2000/svg" width="21" height="20" viewBox="0 0 21 20" fill="none">
  <path fill-rule="evenodd" clip-rule="evenodd" d="M16.4722 3.46205C16.0788 3.06262 15.4346 3.06261 15.0412 3.46203L14.8379 3.66849C14.8299 4.45084 15.4634 5.09521 16.2408 5.10614L16.4721 4.87126C16.8571 4.48039 16.8571 3.85293 16.4722 3.46205ZM17.1225 6.34865L17.5409 5.92378C18.5008 4.94904 18.5008 3.38431 17.5409 2.40955C16.56 1.41347 14.9535 1.41345 13.9725 2.4095L8.24938 8.22069L8.20597 8.26476L8.20597 8.26477L8.20596 8.26478C7.7879 8.68917 7.51831 8.96284 7.29633 9.27585C7.09964 9.55321 6.9333 9.85088 6.80016 10.1637C6.64991 10.5168 6.55812 10.8899 6.41577 11.4683L6.40098 11.5284L6.00074 13.154C5.93776 13.4099 6.01361 13.68 6.20057 13.8656C6.38753 14.0512 6.65817 14.1251 6.91353 14.0603L8.46466 13.6665L8.52556 13.6511L8.52557 13.6511L8.52559 13.6511C9.112 13.5023 9.49015 13.4063 9.84711 13.2504C10.1634 13.1122 10.4637 12.9399 10.7426 12.7367C11.0574 12.5073 11.3312 12.2292 11.7556 11.7981L11.7997 11.7534L17.1003 6.37118C17.1078 6.36382 17.1152 6.35631 17.1225 6.34865ZM15.0309 6.33472C14.4076 6.04357 13.9018 5.53826 13.6102 4.91507L9.31811 9.27322C8.84232 9.75633 8.66344 9.94113 8.51988 10.1436C8.3853 10.3333 8.27149 10.537 8.1804 10.7511C8.08323 10.9794 8.01959 11.2286 7.85749 11.887L7.7561 12.2988L8.09559 12.2126C8.76307 12.0432 9.01569 11.9767 9.24654 11.8758C9.46294 11.7813 9.66839 11.6634 9.85925 11.5244C10.0629 11.376 10.2478 11.1915 10.731 10.7008L15.0309 6.33472ZM3.51709 17.5C3.51709 17.0858 3.85288 16.75 4.26709 16.75H17.3982C17.8124 16.75 18.1482 17.0858 18.1482 17.5C18.1482 17.9142 17.8124 18.25 17.3982 18.25H4.26709C3.85288 18.25 3.51709 17.9142 3.51709 17.5Z" fill="#AFAFAF"/>
</svg>
