<svg width="16" height="16" viewBox="0 0 16 16" fill="none" xmlns="http://www.w3.org/2000/svg">
<path fill-rule="evenodd" clip-rule="evenodd" d="M3.39231 0.833984C1.99884 0.833984 0.779703 1.98017 0.959805 3.44897C1.20994 5.48893 1.82621 7.33161 2.76464 8.92147C3.77567 10.6343 5.15648 12.0466 6.84157 13.0922C8.48427 14.1115 10.409 14.7781 12.5515 15.0408C14.0269 15.2217 15.1666 13.9743 15.1666 12.5881C15.1666 11.4079 14.3617 10.409 13.2282 10.1257L12.9844 10.0647C11.4487 9.68078 9.82169 10.0087 8.55453 10.9575L7.08308 12.0592C5.76234 11.1844 4.6587 10.0569 3.80953 8.71384L4.87793 7.44408C5.9262 6.19824 6.31311 4.5251 5.91822 2.94553L5.87493 2.77236C5.59013 1.63316 4.56656 0.833984 3.39231 0.833984ZM12.6732 14.0482C10.9411 13.8358 9.37686 13.3444 8.01153 12.6133L9.15389 11.758C10.1802 10.9895 11.498 10.7239 12.7419 11.0349L12.9857 11.0958C13.6855 11.2708 14.1666 11.8786 14.1666 12.5881C14.1666 13.4762 13.4552 14.1441 12.6732 14.0482ZM4.11276 6.80025L3.28193 7.78767C2.60894 6.47064 2.15441 4.97494 1.95237 3.32726C1.85567 2.53862 2.51143 1.83398 3.39231 1.83398C4.10769 1.83398 4.73128 2.32086 4.90478 3.01489L4.94808 3.18806C5.26516 4.45641 4.95449 5.79988 4.11276 6.80025Z" fill="#196FB0"/>
</svg>
