<svg width="42" height="42" viewBox="0 0 42 42" fill="none" xmlns="http://www.w3.org/2000/svg">
<path d="M32.8848 19.25L13.3373 19.25L21.8773 10.71C22.5598 10.0275 22.5598 8.90752 21.8773 8.22502C21.1948 7.54252 20.0923 7.54252 19.4098 8.22502L7.87727 19.7575C7.19477 20.44 7.19477 21.5425 7.87727 22.225L19.3923 33.775C19.7192 34.1027 20.1631 34.2869 20.626 34.2869C21.0889 34.2869 21.5328 34.1027 21.8598 33.775C22.5423 33.0925 22.5423 31.99 21.8598 31.3075L13.3373 22.75L32.8848 22.75C33.8473 22.75 34.6348 21.9625 34.6348 21C34.6348 20.0375 33.8473 19.25 32.8848 19.25Z" fill="black" fill-opacity="0.54"/>
</svg>
