<svg xmlns="http://www.w3.org/2000/svg" width="22" height="22" viewBox="0 0 22 22" fill="none">
  <path fill-rule="evenodd" clip-rule="evenodd" d="M6.41683 2.75H15.5835C16.0877 2.75 16.5002 3.1625 16.5002 3.66667V5.5C16.5002 6.00417 16.0877 6.41667 15.5835 6.41667H6.41683C5.91266 6.41667 5.50016 6.00417 5.50016 5.5V3.66667C5.50016 3.1625 5.91266 2.75 6.41683 2.75ZM4.5835 7.33333H17.4168C18.9385 7.33333 20.1668 8.56167 20.1668 10.0833V13.75C20.1668 14.7583 19.3418 15.5833 18.3335 15.5833H16.5002V17.4167C16.5002 18.425 15.6752 19.25 14.6668 19.25H7.3335C6.32516 19.25 5.50016 18.425 5.50016 17.4167V15.5833H3.66683C2.6585 15.5833 1.8335 14.7583 1.8335 13.75V10.0833C1.8335 8.56167 3.06183 7.33333 4.5835 7.33333ZM8.25016 17.4167H13.7502C14.2543 17.4167 14.6668 17.0042 14.6668 16.5V12.8333H7.3335V16.5C7.3335 17.0042 7.746 17.4167 8.25016 17.4167ZM17.4168 11C16.9127 11 16.5002 10.5875 16.5002 10.0833C16.5002 9.57917 16.9127 9.16667 17.4168 9.16667C17.921 9.16667 18.3335 9.57917 18.3335 10.0833C18.3335 10.5875 17.921 11 17.4168 11Z" fill="#787878"/>
</svg>
