<svg xmlns="http://www.w3.org/2000/svg" width="24" height="24" viewBox="0 0 24 24" fill="none">
  <path fill-rule="evenodd" clip-rule="evenodd" d="M19.3489 4H6.09326V6.64052H19.3489V4ZM20.6745 7.97138H4.76777C4.03606 7.97138 3.44221 8.56523 3.44287 9.29694V15.9195H6.094V18.5693C6.094 19.3023 6.68785 19.8961 7.42089 19.8961H18.0261C18.7564 19.8961 19.349 19.3043 19.349 18.5732V15.9195H22.0001V9.29164C22.0001 8.55927 21.4062 7.97138 20.6745 7.97138ZM20.6745 10.6225H19.349V9.29694H20.6745V10.6225ZM18.0234 18.5759H7.4189V11.9428H18.0234V18.5759ZM8.74451 13.2736H16.6979V14.5992H8.74451V13.2736ZM16.6979 15.9247H8.74451V17.2503H16.6979V15.9247Z" fill="#565656"/>
</svg>
