<svg width="20" height="20" viewBox="0 0 20 20" fill="none" xmlns="http://www.w3.org/2000/svg">
<path d="M14.2188 0.9375H2.96875C2.62357 0.9375 2.34375 1.21732 2.34375 1.5625V18.4375C2.34375 18.7827 2.62357 19.0625 2.96875 19.0625H14.2188C14.5639 19.0625 14.8438 18.7827 14.8438 18.4375V1.5625C14.8438 1.21732 14.5639 0.9375 14.2188 0.9375Z" fill="white"/>
<path d="M12.9688 2.1875H4.21875C3.87357 2.1875 3.59375 2.46732 3.59375 2.8125V16.25C3.59375 16.5952 3.87357 16.875 4.21875 16.875H12.9688C13.3139 16.875 13.5938 16.5952 13.5938 16.25V2.8125C13.5938 2.46732 13.3139 2.1875 12.9688 2.1875Z" fill="#00B9AC"/>
<path d="M17.6562 10V15.2594C17.6561 15.3191 17.6389 15.3774 17.6065 15.4276C17.5741 15.4777 17.5281 15.5175 17.4737 15.5422C17.4194 15.5669 17.3591 15.5755 17.3001 15.5669C17.241 15.5583 17.1857 15.5329 17.1406 15.4938L16.4031 14.8625C16.3459 14.8141 16.2734 14.7875 16.1984 14.7875C16.1235 14.7875 16.051 14.8141 15.9938 14.8625L14.9437 15.7625C14.8871 15.8109 14.8151 15.8375 14.7406 15.8375C14.6661 15.8375 14.5941 15.8109 14.5375 15.7625L13.4875 14.8625C13.4309 14.8141 13.3589 14.7875 13.2844 14.7875C13.2099 14.7875 13.1379 14.8141 13.0813 14.8625L12.0281 15.7625C11.9715 15.8109 11.8995 15.8375 11.825 15.8375C11.7505 15.8375 11.6785 15.8109 11.6219 15.7625L10.5687 14.8625C10.5121 14.8141 10.4401 14.7875 10.3656 14.7875C10.2911 14.7875 10.2191 14.8141 10.1625 14.8625L9.42187 15.4969C9.37639 15.5354 9.32085 15.5602 9.26177 15.5683C9.20269 15.5763 9.14254 15.5674 9.08839 15.5424C9.03423 15.5175 8.98832 15.4776 8.95606 15.4275C8.92379 15.3773 8.90651 15.319 8.90625 15.2594V10C8.90673 9.8344 8.97274 9.67571 9.08984 9.5586C9.20695 9.4415 9.36564 9.37549 9.53125 9.37501H17.0312C17.1135 9.37457 17.1949 9.39043 17.2709 9.42168C17.347 9.45294 17.4161 9.49896 17.4742 9.55708C17.5323 9.61521 17.5783 9.68428 17.6096 9.76031C17.6408 9.83634 17.6567 9.91781 17.6562 10Z" fill="white"/>
<path d="M17.5875 9.7125L16.3906 12.35H8.90625V10C8.90673 9.83439 8.97274 9.6757 9.08984 9.55859C9.20695 9.44149 9.36564 9.37548 9.53125 9.375H17.0312C17.1459 9.37546 17.2582 9.40712 17.3562 9.46658C17.4542 9.52603 17.5342 9.61105 17.5875 9.7125Z" fill="#333333"/>
<path d="M15.4688 3.75H7.96875C7.62357 3.75 7.34375 4.02982 7.34375 4.375V12.1875C7.34375 12.5327 7.62357 12.8125 7.96875 12.8125H15.4688C15.8139 12.8125 16.0938 12.5327 16.0938 12.1875V4.375C16.0938 4.02982 15.8139 3.75 15.4688 3.75Z" fill="white"/>
<path d="M17.0312 9.05225H16.4062V4.36475C16.406 4.11619 16.3071 3.87789 16.1314 3.70213C15.9556 3.52638 15.7173 3.42752 15.4688 3.42725H15.1562V1.55225C15.156 1.30369 15.0571 1.06539 14.8814 0.889633C14.7056 0.713877 14.4673 0.615017 14.2188 0.614746H2.96875C2.72019 0.615017 2.48189 0.713877 2.30614 0.889633C2.13038 1.06539 2.03152 1.30369 2.03125 1.55225V18.4272C2.03152 18.6758 2.13038 18.9141 2.30614 19.0899C2.48189 19.2656 2.72019 19.3645 2.96875 19.3647H14.2188C14.4673 19.3645 14.7056 19.2656 14.8814 19.0899C15.0571 18.9141 15.156 18.6758 15.1562 18.4272V15.9817L16.2 15.0897L16.9366 15.7203C17.0275 15.797 17.1383 15.8462 17.256 15.8623C17.3738 15.8785 17.4937 15.8608 17.6019 15.8115C17.71 15.7621 17.8019 15.683 17.8668 15.5835C17.9318 15.4839 17.9671 15.368 17.9687 15.2491L17.9688 9.98973C17.9685 9.74118 17.8696 9.50288 17.6939 9.32713C17.5181 9.15137 17.2798 9.05252 17.0312 9.05225ZM15.4688 4.05225C15.5516 4.05233 15.631 4.08528 15.6896 4.14387C15.7482 4.20245 15.7812 4.28189 15.7812 4.36475V12.1772C15.7812 12.2601 15.7482 12.3395 15.6896 12.3981C15.631 12.4567 15.5516 12.4897 15.4688 12.4897H7.96875C7.8859 12.4897 7.80646 12.4567 7.74787 12.3981C7.68928 12.3395 7.65633 12.2601 7.65625 12.1772V4.36475C7.65633 4.28189 7.68928 4.20245 7.74787 4.14387C7.80646 4.08528 7.8859 4.05233 7.96875 4.05225H15.4688ZM14.5312 18.4272C14.5312 18.5101 14.4982 18.5895 14.4396 18.6481C14.381 18.7067 14.3016 18.7397 14.2188 18.7397H2.96875C2.8859 18.7397 2.80646 18.7067 2.74787 18.6481C2.68928 18.5895 2.65633 18.5101 2.65625 18.4272V1.55225C2.65633 1.46939 2.68928 1.38995 2.74787 1.33137C2.80646 1.27278 2.8859 1.23983 2.96875 1.23975H14.2188C14.3016 1.23983 14.381 1.27278 14.4396 1.33137C14.4982 1.38995 14.5312 1.46939 14.5312 1.55225V3.42725H7.96875C7.72019 3.42752 7.48189 3.52638 7.30614 3.70213C7.13038 3.87789 7.03152 4.11619 7.03125 4.36475V12.1772C7.03152 12.4258 7.13038 12.6641 7.30614 12.8399C7.48189 13.0156 7.72019 13.1145 7.96875 13.1147H8.59375V15.2491C8.59402 15.3685 8.62844 15.4853 8.69295 15.5858C8.75746 15.6863 8.84937 15.7662 8.95782 15.8161C9.06628 15.866 9.18675 15.8838 9.30501 15.8675C9.42327 15.8511 9.53439 15.8013 9.62524 15.7238L10.3659 15.0898C12.0232 16.4971 11.6273 16.4972 13.2812 15.0922C13.6762 15.4553 14.0937 15.7932 14.5312 16.1036V18.4272ZM17.3438 15.2461L16.6046 14.6132C16.4906 14.5172 16.3462 14.4647 16.1972 14.4651C16.0481 14.4654 15.904 14.5185 15.7904 14.615L14.7406 15.515C13.0827 14.1011 13.4803 14.1131 11.825 15.5146L10.7733 14.6157C10.6599 14.5187 10.5156 14.4652 10.3664 14.4651C10.2171 14.465 10.0727 14.5181 9.95911 14.615L9.21875 15.2491V13.1147H15.4688C15.7173 13.1145 15.9556 13.0156 16.1314 12.8399C16.3071 12.6641 16.406 12.4258 16.4062 12.1772V9.67725H17.0312C17.1141 9.67733 17.1935 9.71028 17.2521 9.76887C17.3107 9.82745 17.3437 9.90689 17.3438 9.98975V15.2461Z" fill="#333333"/>
<path d="M7.65608 18.1147H9.53108C9.6129 18.1131 9.69084 18.0795 9.74814 18.0211C9.80544 17.9627 9.83754 17.8841 9.83753 17.8022C9.83753 17.7204 9.80543 17.6418 9.74813 17.5834C9.69082 17.525 9.61288 17.4913 9.53106 17.4897H7.65608C7.57425 17.4913 7.49632 17.525 7.43901 17.5834C7.38171 17.6418 7.34961 17.7204 7.34961 17.8022C7.34961 17.8841 7.38171 17.9627 7.43901 18.0211C7.49632 18.0795 7.57425 18.1132 7.65608 18.1147Z" fill="#00B9AC"/>
<path d="M13.4373 7.48975H14.5311C14.6129 7.48815 14.6908 7.45452 14.7481 7.39609C14.8054 7.33765 14.8375 7.25908 14.8375 7.17724C14.8375 7.0954 14.8054 7.01682 14.7481 6.95839C14.6908 6.89996 14.6129 6.86634 14.531 6.86475H13.9061V6.55225C13.9061 6.46937 13.8731 6.38988 13.8145 6.33127C13.7559 6.27267 13.6764 6.23975 13.5936 6.23975C13.5107 6.23975 13.4312 6.27267 13.3726 6.33127C13.314 6.38988 13.2811 6.46937 13.2811 6.55225V6.88054C13.0098 6.92215 12.7641 7.0644 12.5929 7.27898C12.4217 7.49355 12.3376 7.76471 12.3573 8.03849C12.377 8.31227 12.4991 8.5686 12.6992 8.75645C12.8993 8.9443 13.1629 9.04991 13.4373 9.05225H13.7498C13.8741 9.05225 13.9934 9.10163 14.0813 9.18954C14.1692 9.27745 14.2186 9.39668 14.2186 9.521C14.2186 9.64532 14.1692 9.76454 14.0813 9.85245C13.9934 9.94036 13.8741 9.98975 13.7498 9.98975H12.6561C12.5742 9.99134 12.4963 10.025 12.439 10.0834C12.3817 10.1418 12.3496 10.2204 12.3496 10.3023C12.3496 10.3841 12.3817 10.4627 12.439 10.5211C12.4963 10.5795 12.5743 10.6132 12.6561 10.6147H13.2811V10.9272C13.2811 11.0101 13.314 11.0896 13.3726 11.1482C13.4312 11.2068 13.5107 11.2397 13.5936 11.2397C13.6764 11.2397 13.7559 11.2068 13.8145 11.1482C13.8731 11.0896 13.9061 11.0101 13.9061 10.9272V10.599C14.1774 10.5573 14.4231 10.4151 14.5942 10.2005C14.7654 9.98593 14.8495 9.71478 14.8298 9.441C14.8101 9.16722 14.6881 8.9109 14.4879 8.72305C14.2878 8.5352 14.0243 8.42959 13.7498 8.42725H13.4373C13.3142 8.42545 13.1967 8.37527 13.1103 8.28756C13.0238 8.19985 12.9754 8.08164 12.9754 7.9585C12.9754 7.83535 13.0238 7.71715 13.1103 7.62943C13.1967 7.54172 13.3142 7.49154 13.4373 7.48975Z" fill="#00B9AC"/>
<path d="M11.4061 5.30225H8.90607C8.82424 5.30384 8.74631 5.33747 8.68901 5.3959C8.6317 5.45434 8.59961 5.53291 8.59961 5.61476C8.59961 5.6966 8.63171 5.77517 8.68902 5.8336C8.74632 5.89203 8.82426 5.92565 8.90609 5.92725H11.4061C11.4879 5.92565 11.5658 5.89203 11.6231 5.83359C11.6804 5.77516 11.7125 5.69659 11.7125 5.61475C11.7125 5.53291 11.6804 5.45433 11.6231 5.3959C11.5658 5.33747 11.4879 5.30384 11.4061 5.30225Z" fill="#00B9AC"/>
<path d="M11.4061 6.55225H8.90607C8.82424 6.55384 8.74631 6.58747 8.68901 6.6459C8.6317 6.70434 8.59961 6.78291 8.59961 6.86476C8.59961 6.9466 8.63171 7.02517 8.68902 7.0836C8.74632 7.14203 8.82426 7.17565 8.90609 7.17725H11.4061C11.4879 7.17565 11.5658 7.14203 11.6231 7.08359C11.6804 7.02516 11.7125 6.94659 11.7125 6.86475C11.7125 6.78291 11.6804 6.70433 11.6231 6.6459C11.5658 6.58747 11.4879 6.55384 11.4061 6.55225Z" fill="#00B9AC"/>
<path d="M11.4061 7.80225H8.90607C8.82424 7.80384 8.74631 7.83747 8.68901 7.8959C8.6317 7.95434 8.59961 8.03291 8.59961 8.11476C8.59961 8.1966 8.63171 8.27517 8.68902 8.3336C8.74632 8.39203 8.82426 8.42565 8.90609 8.42725H11.4061C11.4879 8.42565 11.5658 8.39203 11.6231 8.33359C11.6804 8.27516 11.7125 8.19659 11.7125 8.11475C11.7125 8.03291 11.6804 7.95433 11.6231 7.8959C11.5658 7.83747 11.4879 7.80384 11.4061 7.80225Z" fill="#00B9AC"/>
</svg>
