<svg xmlns="http://www.w3.org/2000/svg" width="24" height="24" viewBox="0 0 24 24" fill="none">
  <path d="M5.58157 12.953C5.58157 10.9959 5.58157 9.03875 5.58157 7.08165C5.5906 5.78284 6.37639 5 7.69506 5C10.2421 5 12.7801 5 15.3271 5C16.6367 5 17.4316 5.78284 17.4316 7.08165C17.4316 11.0225 17.4316 14.9723 17.4316 18.9132C17.4316 19.9007 16.8264 20.2476 15.9593 19.7584C14.5413 18.9755 13.1323 18.1927 11.7233 17.392C11.4704 17.2497 11.2898 17.2408 11.0279 17.392C9.69113 18.1927 8.34536 18.9755 7.00863 19.7761C6.69251 19.963 6.38542 20.0875 6.03317 19.9007C5.68092 19.705 5.57254 19.3936 5.58157 19.0022C5.5906 16.9828 5.58157 14.9723 5.58157 12.953Z" fill="#565656"/>
</svg>
