<svg xmlns="http://www.w3.org/2000/svg" width="24" height="24" viewBox="0 0 24 24" fill="none">
  <path fill-rule="evenodd" clip-rule="evenodd" d="M15.1866 14.4718H15.9766L20.2166 18.7318C20.6266 19.1418 20.6266 19.8118 20.2166 20.2218C19.8066 20.6318 19.1366 20.6318 18.7266 20.2218L14.4766 15.9718V15.1818L14.2066 14.9018C12.8066 16.1018 10.8966 16.7218 8.86659 16.3818C6.08659 15.9118 3.86659 13.5918 3.52659 10.7918C3.00659 6.56182 6.56659 3.00182 10.7966 3.52182C13.5966 3.86182 15.9166 6.08182 16.3866 8.86182C16.7266 10.8918 16.1066 12.8018 14.9066 14.2018L15.1866 14.4718ZM5.47662 9.97186C5.47662 12.4619 7.48662 14.4719 9.97662 14.4719C12.4666 14.4719 14.4766 12.4619 14.4766 9.97186C14.4766 7.48186 12.4666 5.47187 9.97662 5.47187C7.48662 5.47187 5.47662 7.48186 5.47662 9.97186Z" fill="#0095D9"/>
</svg>
