<svg width="20" height="20" viewBox="0 0 20 20" fill="none" xmlns="http://www.w3.org/2000/svg">
<g clip-path="url(#clip0_2491_755)">
<path fill-rule="evenodd" clip-rule="evenodd" d="M9.99937 0.916649L9.83549 0.916637C7.82073 0.916417 6.62826 0.916287 5.63628 1.22906C3.53592 1.8913 1.89069 3.53653 1.22845 5.63689C0.915677 6.62887 0.915807 7.82134 0.916027 9.8361L0.916039 9.99998L0.916027 10.1639C0.915807 12.1786 0.915677 13.3711 1.22845 14.3631C1.89069 16.4634 3.53592 18.1087 5.63628 18.7709C6.62826 19.0837 7.82073 19.0835 9.83548 19.0833L9.99937 19.0833L10.1633 19.0833C12.178 19.0835 13.3705 19.0837 14.3625 18.7709C16.4628 18.1087 18.1081 16.4634 18.7703 14.3631C19.0831 13.3711 19.0829 12.1786 19.0827 10.1639L19.0827 9.99998L19.0827 9.83609C19.0829 7.82134 19.0831 6.62887 18.7703 5.63689C18.1081 3.53653 16.4628 1.8913 14.3625 1.22906C13.3705 0.916287 12.178 0.916417 10.1632 0.916637L9.99937 0.916649ZM6.08733 2.65964C6.83024 2.4254 7.77148 2.41665 9.99937 2.41665C12.2273 2.41665 13.1685 2.4254 13.9114 2.65964C15.545 3.17471 16.8246 4.45433 17.3397 6.08794C17.574 6.83085 17.5827 7.77209 17.5827 9.99998C17.5827 12.2279 17.574 13.1691 17.3397 13.912C16.8246 15.5456 15.545 16.8253 13.9114 17.3403C13.1685 17.5746 12.2273 17.5833 9.99937 17.5833C7.77148 17.5833 6.83024 17.5746 6.08733 17.3403C4.45372 16.8253 3.1741 15.5456 2.65902 13.912C2.42479 13.1691 2.41604 12.2279 2.41604 9.99998C2.41604 7.77209 2.42479 6.83085 2.65902 6.08794C3.1741 4.45433 4.45372 3.17471 6.08733 2.65964ZM14.6957 8.03033C14.9886 7.73744 14.9886 7.26256 14.6957 6.96967C14.4028 6.67678 13.9279 6.67678 13.635 6.96967L9.16537 11.4393L7.61236 9.88634C7.31947 9.59344 6.84459 9.59344 6.5517 9.88634C6.25881 10.1792 6.25881 10.6541 6.5517 10.947L8.63503 13.0303C8.92793 13.3232 9.4028 13.3232 9.69569 13.0303L14.6957 8.03033Z" fill="#2E2E2E"/>
</g>
<defs>
<clipPath id="clip0_2491_755">
<rect width="20" height="20" fill="white"/>
</clipPath>
</defs>
</svg>
