<svg xmlns="http://www.w3.org/2000/svg" width="22" height="22" viewBox="0 0 22 22" fill="none">
  <path d="M16.5 14.7767C15.8033 14.7767 15.18 15.0517 14.7033 15.4825L8.1675 11.6783C8.21333 11.4675 8.25 11.2567 8.25 11.0367C8.25 10.8167 8.21333 10.6058 8.1675 10.395L14.63 6.62749C15.125 7.08583 15.7758 7.36999 16.5 7.36999C18.0217 7.36999 19.25 6.14166 19.25 4.61999C19.25 3.09833 18.0217 1.87 16.5 1.87C14.9783 1.87 13.75 3.09833 13.75 4.61999C13.75 4.83999 13.7867 5.05083 13.8325 5.26166L7.37 9.02916C6.875 8.57083 6.22417 8.28666 5.5 8.28666C3.97833 8.28666 2.75 9.51499 2.75 11.0367C2.75 12.5583 3.97833 13.7867 5.5 13.7867C6.22417 13.7867 6.875 13.5025 7.37 13.0442L13.8967 16.8575C13.8508 17.05 13.8233 17.2517 13.8233 17.4533C13.8233 18.9292 15.0242 20.13 16.5 20.13C17.9758 20.13 19.1767 18.9292 19.1767 17.4533C19.1767 15.9775 17.9758 14.7767 16.5 14.7767Z" fill="#787878"/>
</svg>
