<svg width="24" height="24" viewBox="0 0 24 24" fill="none" xmlns="http://www.w3.org/2000/svg">
<path d="M4.53516 16.2163H5.93638V17.3539C5.93638 18.9661 6.78767 19.8098 8.42243 19.8098H19.459C21.0862 19.8098 21.945 18.9661 21.945 17.3539V9.66221C21.945 8.05005 21.0862 7.2063 19.459 7.2063H18.0578V6.07628C18.0578 4.46411 17.2065 3.62036 15.5792 3.62036H4.53516C2.90039 3.62036 2.05664 4.46411 2.05664 6.07628V13.7604C2.05664 15.3801 2.90039 16.2163 4.53516 16.2163ZM4.63309 14.7172C3.94001 14.7172 3.5558 14.3556 3.5558 13.6248V6.21188C3.5558 5.48113 3.94001 5.12706 4.63309 5.12706H15.4813C16.1669 5.12706 16.5586 5.48113 16.5586 6.21188V7.2063H8.42243C6.78767 7.2063 5.93638 8.05005 5.93638 9.66221V14.7172H4.63309ZM8.52037 18.3031C7.81975 18.3031 7.44308 17.9415 7.44308 17.2183V9.79782C7.44308 9.0746 7.81975 8.713 8.52037 8.713H19.361C20.0541 8.713 20.4383 9.0746 20.4383 9.79782V17.2183C20.4383 17.9415 20.0541 18.3031 19.361 18.3031H8.52037Z" fill="#959595"/>
</svg>
