<svg width="24" height="24" viewBox="0 0 24 24" fill="none" xmlns="http://www.w3.org/2000/svg">
<path d="M7.71345 19.9906C8.12026 19.9906 8.38393 19.7796 9.02427 19.1544L11.9322 16.2766C11.9623 16.2389 12.0301 16.2389 12.0603 16.2766L14.9757 19.1544C15.6161 19.7796 15.8722 19.9906 16.2866 19.9906C16.8892 19.9906 17.2659 19.5762 17.2659 18.8982V5.74477C17.2659 4.24561 16.4824 3.45459 14.9983 3.45459H8.99414C7.51004 3.45459 6.72656 4.24561 6.72656 5.74477V18.8982C6.72656 19.5762 7.10324 19.9906 7.71345 19.9906ZM8.42913 17.5121C8.33119 17.61 8.21066 17.5799 8.21066 17.4367V5.8427C8.21066 5.24003 8.512 4.94622 9.11468 4.94622H14.8778C15.4805 4.94622 15.7818 5.24003 15.7818 5.8427V17.4367C15.7818 17.5799 15.6688 17.61 15.5633 17.5121L12.4972 14.5439C12.1808 14.2275 11.8192 14.2275 11.4953 14.5439L8.42913 17.5121Z" fill="#959595"/>
</svg>
