<svg width="24" height="24" viewBox="0 0 24 24" fill="none" xmlns="http://www.w3.org/2000/svg">
<path d="M5.75391 17.7228H6.52985V18.4234C6.52985 19.5459 7.06473 20.0431 8.14955 20.0431H15.8488C16.9261 20.0431 17.4685 19.5459 17.4685 18.4234V17.7228H18.2444C19.7812 17.7228 20.6175 16.9167 20.6175 15.3724V8.45665C20.6175 6.91982 19.7812 6.1062 18.2444 6.1062H17.5589V5.69939C17.5589 4.1701 16.7905 3.46948 15.3139 3.46948H8.68443C7.26814 3.46948 6.43945 4.1701 6.43945 5.69939V6.1062H5.75391C4.27734 6.1062 3.38086 6.91982 3.38086 8.45665V15.3724C3.38086 16.9167 4.21708 17.7228 5.75391 17.7228ZM7.84068 5.59392C7.84068 5.03645 8.12695 4.75017 8.68443 4.75017H15.3139C15.8714 4.75017 16.1576 5.03645 16.1576 5.59392V6.1062H7.84068V5.59392ZM15.8488 10.8975H8.14955C7.1024 10.8975 6.52985 11.3947 6.52985 12.5172V16.3668H5.75391C5.13616 16.3668 4.81222 16.0429 4.81222 15.4327V8.40391C4.81222 7.78617 5.13616 7.46223 5.75391 7.46223H18.2444C18.8622 7.46223 19.1786 7.78617 19.1786 8.40391V15.4327C19.1786 16.0429 18.8622 16.3668 18.2444 16.3668H17.4685V12.5172C17.4685 11.3947 16.9261 10.8975 15.8488 10.8975ZM15.5399 9.19493C15.5399 9.74487 15.9844 10.1743 16.5268 10.1667C17.0541 10.1667 17.4986 9.73734 17.4986 9.19493C17.4986 8.66758 17.0541 8.21558 16.5268 8.21558C15.9919 8.21558 15.5399 8.66758 15.5399 9.19493ZM8.45843 18.7248C8.09682 18.7248 7.91602 18.5515 7.91602 18.1824V12.7583C7.91602 12.3891 8.09682 12.2159 8.45843 12.2159H15.5474C15.909 12.2159 16.0823 12.3891 16.0823 12.7583V18.1824C16.0823 18.5515 15.909 18.7248 15.5474 18.7248H8.45843ZM9.72405 14.152C10.1083 14.152 10.4171 13.8506 10.4171 13.4664C10.4171 13.0822 10.1083 12.7733 9.72405 12.7733C9.33984 12.7733 9.03097 13.0822 9.03097 13.4664C9.03097 13.8506 9.33984 14.152 9.72405 14.152ZM14.2743 14.152C14.666 14.152 14.9749 13.8506 14.9749 13.4664C14.9749 13.0822 14.666 12.7733 14.2743 12.7733C13.8976 12.7733 13.5887 13.0822 13.5887 13.4664C13.5887 13.8506 13.8976 14.152 14.2743 14.152ZM9.72405 16.1559C10.1083 16.1559 10.4171 15.8545 10.4171 15.4703C10.4171 15.0861 10.1083 14.7848 9.72405 14.7848C9.33984 14.7848 9.03097 15.0861 9.03097 15.4703C9.03097 15.8545 9.33984 16.1559 9.72405 16.1559ZM14.2743 16.1559C14.666 16.1559 14.9749 15.8545 14.9749 15.4703C14.9749 15.0861 14.666 14.7848 14.2743 14.7848C13.8976 14.7848 13.5887 15.0861 13.5887 15.4703C13.5887 15.8621 13.8976 16.1559 14.2743 16.1559ZM9.72405 18.1673C10.1083 18.1673 10.4171 17.8584 10.4171 17.4742C10.4171 17.09 10.1083 16.7887 9.72405 16.7887C9.33984 16.7887 9.03097 17.09 9.03097 17.4742C9.03097 17.8584 9.33984 18.1673 9.72405 18.1673ZM14.2743 18.1673C14.666 18.1673 14.9749 17.8584 14.9749 17.4742C14.9749 17.09 14.666 16.7887 14.2743 16.7887C13.8976 16.7887 13.5887 17.09 13.5887 17.4742C13.5887 17.8584 13.8976 18.1673 14.2743 18.1673Z" fill="#959595"/>
</svg>
