<svg width="24" height="24" viewBox="0 0 24 24" fill="none" xmlns="http://www.w3.org/2000/svg">
<path d="M15.5778 20.111C16.1881 20.111 16.5497 19.6816 16.5497 19.0111V17.1654H16.851C19.0282 17.1654 20.339 15.8621 20.339 13.6171V7.7636C20.339 5.52616 19.0658 4.21533 16.7983 4.21533H7.19308C4.93304 4.21533 3.65234 5.52616 3.65234 7.7636V13.6171C3.65234 15.8546 4.93304 17.1654 7.19308 17.1654H11.7282L14.3122 19.4405C14.832 19.9 15.1484 20.111 15.5778 20.111ZM15.2087 18.4235L12.8206 16.0655C12.4967 15.734 12.2782 15.6587 11.8186 15.6587H7.24581C5.83705 15.6587 5.15151 14.943 5.15151 13.5719V7.8088C5.15151 6.43771 5.83705 5.72203 7.24581 5.72203H16.7531C18.1694 5.72203 18.8398 6.43771 18.8398 7.8088V13.5719C18.8398 14.943 18.1694 15.6587 16.7531 15.6587H15.8265C15.397 15.6587 15.2087 15.832 15.2087 16.2764V18.4235Z" fill="#959595"/>
</svg>
