<svg width="24" height="24" viewBox="0 0 24 24" fill="none" xmlns="http://www.w3.org/2000/svg">
<path d="M12.279 17.3463C12.7913 17.3463 13.0625 17.1354 13.2282 16.5929L14.0569 14.2726H18.3435L19.1722 16.5929C19.3379 17.1354 19.6091 17.3463 20.1214 17.3463C20.6562 17.3463 21.0103 17.0224 21.0103 16.5176C21.0103 16.3293 20.9727 16.1711 20.9049 15.9601L17.5826 6.99529C17.3491 6.33988 16.9121 6.03101 16.2115 6.03101C15.5335 6.03101 15.0965 6.33988 14.863 6.98776L11.5257 16.0053C11.4579 16.2012 11.4277 16.3669 11.4277 16.5327C11.4277 17.0374 11.7517 17.3463 12.279 17.3463ZM14.4939 12.8563L16.1814 7.97464H16.2341L17.9216 12.8563H14.4939ZM3.77372 17.3463C4.17299 17.3463 4.4216 17.1354 4.56473 16.6532L5.09961 15.0637H8.03013L8.55748 16.6607C8.70061 17.1504 8.94922 17.3463 9.37109 17.3463C9.83064 17.3463 10.147 17.045 10.147 16.608C10.147 16.4347 10.1094 16.2615 10.034 16.0581L7.75893 9.96348C7.53292 9.35327 7.14872 9.067 6.55357 9.067C5.98103 9.067 5.59682 9.35327 5.37835 9.96348L3.0957 16.0581C3.0279 16.2464 2.99023 16.4423 2.99023 16.608C2.99023 17.06 3.29157 17.3463 3.77372 17.3463ZM5.46875 13.8658L6.4707 10.7168H6.62891L7.65346 13.8658H5.46875Z" fill="#959595"/>
</svg>
