<svg width="24" height="24" viewBox="0 0 24 24" fill="none" xmlns="http://www.w3.org/2000/svg">
<path d="M16.9996 8.8C18.3251 8.8 19.3996 7.72548 19.3996 6.4C19.3996 5.07452 18.3251 4 16.9996 4C15.6741 4 14.5996 5.07452 14.5996 6.4C14.5996 7.72548 15.6741 8.8 16.9996 8.8Z" stroke="#959595" stroke-width="1.5" stroke-linecap="round" stroke-linejoin="round"/>
<path d="M7.4 14.4001C8.72548 14.4001 9.8 13.3256 9.8 12.0001C9.8 10.6746 8.72548 9.6001 7.4 9.6001C6.07452 9.6001 5 10.6746 5 12.0001C5 13.3256 6.07452 14.4001 7.4 14.4001Z" stroke="#959595" stroke-width="1.5" stroke-linecap="round" stroke-linejoin="round"/>
<path d="M16.9996 20C18.3251 20 19.3996 18.9254 19.3996 17.6C19.3996 16.2745 18.3251 15.2 16.9996 15.2C15.6741 15.2 14.5996 16.2745 14.5996 17.6C14.5996 18.9254 15.6741 20 16.9996 20Z" stroke="#959595" stroke-width="1.5" stroke-linecap="round" stroke-linejoin="round"/>
<path d="M9.47266 13.208L14.9367 16.392" stroke="#959595" stroke-width="1.5" stroke-linecap="round" stroke-linejoin="round"/>
<path d="M14.9287 7.60791L9.47266 10.7919" stroke="#959595" stroke-width="1.5" stroke-linecap="round" stroke-linejoin="round"/>
</svg>
