<svg width="24" height="24" viewBox="0 0 24 24" fill="none" xmlns="http://www.w3.org/2000/svg">
<path d="M5.54297 14.4535H6.09291C6.03265 13.9789 5.99498 13.4666 6.07031 13.0221H5.63337C3.8404 13.0221 2.56724 11.7641 2.56724 9.95602C2.56724 8.16305 3.8404 6.88989 5.63337 6.88989H12.2854C14.0784 6.88989 15.3516 8.16305 15.3516 9.95602C15.3516 11.7641 14.0784 13.0221 12.2854 13.0221H9.98019C9.61858 13.2632 9.64872 14.1672 10.1158 14.4535H12.3758C14.99 14.4535 16.8583 12.6078 16.8583 9.95602C16.8583 7.31177 14.99 5.46606 12.3758 5.46606H5.54297C2.92885 5.46606 1.06055 7.31177 1.06055 9.95602C1.06055 12.6078 2.92885 14.4535 5.54297 14.4535ZM11.615 18.0168H18.4403C21.0619 18.0168 22.9302 16.1711 22.9302 13.5269C22.9302 10.8751 21.0619 9.0294 18.4403 9.0294H17.8979C17.9581 9.50401 17.9958 10.0163 17.9205 10.4608H18.3574C20.1504 10.4608 21.4235 11.7189 21.4235 13.5269C21.4235 15.3199 20.1504 16.593 18.3574 16.593H11.7054C9.91239 16.593 8.63923 15.3199 8.63923 13.5269C8.63923 11.7189 9.91239 10.4608 11.7054 10.4608H14.0106C14.3722 10.2197 14.3421 9.31567 13.875 9.0294H11.615C8.9933 9.0294 7.13253 10.8751 7.13253 13.5269C7.13253 16.1711 8.9933 18.0168 11.615 18.0168Z" fill="#959595"/>
</svg>
