<svg width="20" height="20" viewBox="0 0 20 20" fill="none" xmlns="http://www.w3.org/2000/svg">
<path fill-rule="evenodd" clip-rule="evenodd" d="M4.08301 5.00002C4.08301 3.57328 5.23961 2.41669 6.66634 2.41669C8.09308 2.41669 9.24967 3.57328 9.24967 5.00002C9.24967 6.42676 8.09308 7.58335 6.66634 7.58335C5.23961 7.58335 4.08301 6.42676 4.08301 5.00002ZM6.66634 0.916687C4.41118 0.916687 2.58301 2.74486 2.58301 5.00002C2.58301 7.25518 4.41118 9.08335 6.66634 9.08335C8.9215 9.08335 10.7497 7.25518 10.7497 5.00002C10.7497 2.74486 8.9215 0.916687 6.66634 0.916687ZM12.4997 0.916687C12.0855 0.916687 11.7497 1.25247 11.7497 1.66669C11.7497 2.0809 12.0855 2.41669 12.4997 2.41669C13.9264 2.41669 15.083 3.57328 15.083 5.00002C15.083 6.42676 13.9264 7.58335 12.4997 7.58335C12.0855 7.58335 11.7497 7.91914 11.7497 8.33335C11.7497 8.74757 12.0855 9.08335 12.4997 9.08335C14.7548 9.08335 16.583 7.25518 16.583 5.00002C16.583 2.74486 14.7548 0.916687 12.4997 0.916687ZM0.0830078 15.6667C0.0830078 13.0433 2.20966 10.9167 4.83301 10.9167H8.49967C11.123 10.9167 13.2497 13.0433 13.2497 15.6667C13.2497 17.5537 11.72 19.0834 9.83301 19.0834H3.49968C1.6127 19.0834 0.0830078 17.5537 0.0830078 15.6667ZM4.83301 12.4167C3.03808 12.4167 1.58301 13.8718 1.58301 15.6667C1.58301 16.7252 2.44113 17.5834 3.49968 17.5834H9.83301C10.8916 17.5834 11.7497 16.7252 11.7497 15.6667C11.7497 13.8718 10.2946 12.4167 8.49967 12.4167H4.83301ZM14.1663 10.9167C13.7521 10.9167 13.4163 11.2525 13.4163 11.6667C13.4163 12.0809 13.7521 12.4167 14.1663 12.4167H15.1663C16.9613 12.4167 18.4163 13.8718 18.4163 15.6667C18.4163 16.7252 17.5582 17.5834 16.4997 17.5834H14.1663C13.7521 17.5834 13.4163 17.9191 13.4163 18.3334C13.4163 18.7476 13.7521 19.0834 14.1663 19.0834H16.4997C18.3866 19.0834 19.9163 17.5537 19.9163 15.6667C19.9163 13.0433 17.7897 10.9167 15.1663 10.9167H14.1663Z" fill="#22272F"/>
</svg>
