<svg width="47" height="54" viewBox="0 0 47 54" fill="none" xmlns="http://www.w3.org/2000/svg">
<g clip-path="url(#clip0_2537_6052)">
<path d="M0.00011876 17.8072C0.0471599 15.1376 0.176523 12.468 0.47053 9.81051C0.494051 9.58152 0.541092 9.35253 0.594014 9.12956C0.711617 8.6535 0.970343 8.32206 1.44663 8.14128C5.8391 6.4841 10.2198 4.79679 14.6182 3.15166C17.4112 2.10311 20.2278 1.11483 23.0327 0.0903917C23.3561 -0.0301306 23.6442 -0.0301306 23.9676 0.0903917C27.8955 1.52461 31.8294 2.93472 35.7514 4.39304C38.9737 5.59223 42.1725 6.85169 45.3948 8.05691C46.0887 8.31604 46.4474 8.76799 46.5121 9.47908C46.6591 11.088 46.8531 12.697 46.9119 14.306C46.9942 16.4995 47.0354 18.7051 46.9707 20.8986C46.812 26.2799 46.0005 31.5467 44.1012 36.6026C42.0079 42.1768 38.6915 46.7988 33.8286 50.1614C31.1531 52.0114 28.2072 53.2407 25.026 53.8614C23.5031 54.1567 22.0213 53.9397 20.5512 53.53C13.8655 51.6619 8.84386 47.5641 5.28637 41.5199C2.94607 37.5427 1.58776 33.2099 0.811579 28.6602C0.205924 25.0686 -0.00576139 21.4469 0.00011876 17.8072ZM43.7072 18.1024C43.7366 18.1024 43.7602 18.0964 43.7896 18.0964C43.6602 15.7703 43.525 13.4443 43.4015 11.1242C43.3897 10.8952 43.3074 10.7988 43.1016 10.7205C36.8745 8.41245 30.6474 6.11048 24.4321 3.77837C23.8441 3.55541 23.3443 3.56746 22.7739 3.77837C16.4822 6.11048 10.1904 8.42451 3.89866 10.7385C3.72813 10.7988 3.65169 10.8832 3.63993 11.076C3.58113 12.1185 3.46352 13.161 3.44 14.2035C3.36944 17.8373 3.22832 21.471 3.65169 25.0988C3.96922 27.8226 4.44551 30.5162 5.23933 33.1436C6.41536 37.0485 8.21468 40.61 10.9019 43.6592C13.9949 47.1604 17.7523 49.5226 22.2976 50.4747C22.821 50.5832 23.3737 50.6736 23.897 50.6073C25.7669 50.3663 27.531 49.7275 29.2362 48.9079C33.8345 46.7024 37.2038 43.1892 39.5735 38.6274C41.6257 34.6743 42.7135 30.4198 43.278 26.0087C43.6132 23.3813 43.7072 20.7419 43.7072 18.1024Z" fill="#8FD3FF"/>
<path d="M16.6935 22.7907C16.6935 22.628 16.6935 22.5074 16.6935 22.393C16.7288 20.7177 16.7817 19.0424 16.7876 17.3611C16.7876 15.1556 18.8397 12.7813 21.18 12.709C22.7265 12.6608 24.2789 12.6246 25.8195 12.715C27.7952 12.8355 29.13 13.9925 29.9179 15.8124C30.112 16.2584 30.206 16.7766 30.2296 17.2708C30.2942 18.9761 30.3119 20.6815 30.3472 22.3869C30.3472 22.5074 30.3472 22.6219 30.3472 22.7545C30.7176 22.7846 31.0704 22.7967 31.4174 22.8509C32.3817 23.0016 33.3402 24.0321 33.346 25.0264C33.3637 28.642 33.3637 32.2517 33.3402 35.8673C33.3343 36.8436 32.2465 37.8921 31.288 37.9162C26.137 38.0608 20.9801 38.0488 15.8291 37.9283C15.3646 37.9162 14.9941 37.7595 14.6531 37.4643C14.1003 36.9701 13.677 36.4278 13.6828 35.6022C13.7005 32.1311 13.724 28.6541 13.6711 25.183C13.6534 24.0742 14.9353 22.7425 16.0702 22.7967C16.2583 22.7967 16.4524 22.7907 16.6935 22.7907ZM27.0131 22.7726C27.019 22.6882 27.0308 22.6159 27.0308 22.5496C27.0131 21.0853 26.9955 19.6149 26.9661 18.1506C26.9602 17.8191 26.9249 17.4877 26.8661 17.1623C26.7662 16.5958 26.2899 16.1318 25.7254 16.1137C24.3141 16.0716 22.9029 16.0475 21.4976 16.0655C20.7273 16.0776 20.2568 16.5657 20.1275 17.3431C20.0922 17.5721 20.0628 17.8011 20.0569 18.03C20.0393 19.5486 20.0216 21.0612 20.0099 22.5798C20.0099 22.64 20.0216 22.6943 20.0334 22.7666C22.3619 22.7726 24.667 22.7726 27.0131 22.7726ZM22.4913 32.095C22.4972 32.095 22.4972 32.095 22.5031 32.095C22.5031 32.6072 22.5031 33.1194 22.5031 33.6317C22.5031 33.6799 22.5089 33.7341 22.5089 33.7823C22.5501 34.4994 22.6677 34.6139 23.3616 34.6199C23.4321 34.6199 23.4968 34.6199 23.5674 34.6199C24.4023 34.6199 24.5141 34.5175 24.5317 33.6558C24.5493 32.7699 24.567 31.8901 24.5376 31.0043C24.5199 30.474 24.567 30.01 25.0256 29.6845C25.055 29.6604 25.0786 29.6243 25.1021 29.5942C25.6783 28.859 25.7195 27.8466 25.1962 27.0752C24.7081 26.3521 23.6614 26.0086 22.8088 26.2918C22.0562 26.5449 21.4446 27.4669 21.4682 28.3347C21.4799 28.9433 21.7386 29.4435 22.1679 29.8412C22.4266 30.0762 22.5207 30.3354 22.5031 30.6789C22.4737 31.1489 22.4913 31.625 22.4913 32.095Z" fill="#ECA1D2"/>
</g>
<defs>
<clipPath id="clip0_2537_6052">
<rect width="47" height="54" fill="white"/>
</clipPath>
</defs>
</svg>
