<svg width="54" height="54" viewBox="0 0 54 54" fill="none" xmlns="http://www.w3.org/2000/svg">
<path d="M49.0037 11.5059C50.0837 9.68347 49.8412 7.28902 48.2759 5.72376C46.7109 4.1586 44.3162 3.91599 42.4938 4.99602C17.5567 -11.9328 -11.927 17.5782 4.99587 42.494C3.91594 44.3165 4.15834 46.7108 5.72371 48.2762C7.29235 49.8449 9.68712 50.0816 11.5058 49.0039C36.443 65.9328 65.9268 36.4221 49.0037 11.5059ZM26.9998 50.7545C22.0056 50.7545 17.3675 49.204 13.5387 46.561C14.1576 44.8758 13.793 42.908 12.4423 41.5573C11.0918 40.2065 9.12377 39.8419 7.43857 40.4609C-7.16042 18.626 18.6437 -7.15541 40.4608 7.43894C39.8419 9.12414 40.2065 11.0921 41.5571 12.4428C42.9018 13.7874 44.8646 14.162 46.5609 13.539C57.4265 28.8953 45.9468 50.937 26.9998 50.7545Z" fill="#8FD3FF"/>
<path d="M26.9999 22.249C24.3802 22.249 22.249 24.3804 22.249 26.9999C22.4878 33.294 31.513 33.2922 31.7508 26.9998C31.7508 24.3803 29.6195 22.249 26.9999 22.249Z" fill="#CF148F" fill-opacity="0.4"/>
<path d="M42.1341 22.3325C40.5934 17.3475 36.6526 13.4066 31.6677 11.866C30.6187 6.73812 23.3794 6.74182 22.3323 11.866C17.3474 13.4066 13.4066 17.3475 11.866 22.3325C6.7382 23.3813 6.74179 30.6208 11.8659 31.6677C13.4066 36.6527 17.3474 40.5936 22.3323 42.1341C23.3815 47.2619 30.6206 47.2584 31.6677 42.1341C36.6526 40.5936 40.5935 36.6527 42.1341 31.6677C47.2619 30.6188 47.2583 23.3795 42.1341 22.3325ZM31.1627 38.9658C29.3537 35.6862 24.6488 35.6819 22.8374 38.9658C19.1947 37.695 16.3052 34.8054 15.0343 31.1628C18.314 29.3538 18.3185 24.6489 15.0344 22.8376C16.3052 19.1949 19.1949 16.3053 22.8374 15.0345C24.6466 18.3141 29.3512 18.3184 31.1627 15.0345C34.8054 16.3053 37.695 19.1949 38.9658 22.8374C35.6861 24.6466 35.6819 29.3515 38.9658 31.1628C37.695 34.8055 34.8054 37.695 31.1627 38.9658Z" fill="#ECA1D2"/>
</svg>
