<svg width="60" height="60" viewBox="0 0 60 60" fill="none" xmlns="http://www.w3.org/2000/svg">
<path d="M30 1.19201e-06C13.4315 -2.56454e-07 7.88585e-06 13.4315 6.43738e-06 30C4.98891e-06 46.5685 13.4315 60 30 60C46.5685 60 60 46.5685 60 30C60 13.4315 46.5685 2.64048e-06 30 1.19201e-06Z" fill="url(#paint0_linear_3952_775)"/>
<path d="M39.5938 11.6875H19.3438C18.7224 11.6875 18.2188 12.1912 18.2188 12.8125V43.1875C18.2188 43.8088 18.7224 44.3125 19.3438 44.3125H39.5938C40.2151 44.3125 40.7188 43.8088 40.7188 43.1875V12.8125C40.7188 12.1912 40.2151 11.6875 39.5938 11.6875Z" fill="white"/>
<path d="M37.3438 13.9375H21.5938C20.9724 13.9375 20.4688 14.4412 20.4688 15.0625V39.25C20.4688 39.8713 20.9724 40.375 21.5938 40.375H37.3438C37.9651 40.375 38.4688 39.8713 38.4688 39.25V15.0625C38.4688 14.4412 37.9651 13.9375 37.3438 13.9375Z" fill="#1F99FF"/>
<path d="M45.7812 28V37.4669C45.781 37.5743 45.75 37.6794 45.6917 37.7697C45.6335 37.8599 45.5505 37.9315 45.4527 37.976C45.3549 38.0204 45.2464 38.0358 45.1401 38.0204C45.0338 38.0049 44.9342 37.9592 44.8531 37.8888L43.5256 36.7525C43.4227 36.6653 43.2921 36.6175 43.1572 36.6175C43.0223 36.6175 42.8917 36.6653 42.7887 36.7525L40.8988 38.3725C40.7969 38.4596 40.6672 38.5075 40.5331 38.5075C40.3991 38.5075 40.2694 38.4596 40.1675 38.3725L38.2775 36.7525C38.1756 36.6654 38.0459 36.6175 37.9119 36.6175C37.7778 36.6175 37.6481 36.6654 37.5463 36.7525L35.6506 38.3725C35.5487 38.4596 35.4191 38.5075 35.285 38.5075C35.1509 38.5075 35.0213 38.4596 34.9194 38.3725L33.0237 36.7525C32.9219 36.6654 32.7922 36.6175 32.6581 36.6175C32.5241 36.6175 32.3944 36.6654 32.2925 36.7525L30.9594 37.8944C30.8775 37.9638 30.7775 38.0084 30.6712 38.0229C30.5648 38.0374 30.4566 38.0213 30.3591 37.9764C30.2616 37.9315 30.179 37.8597 30.1209 37.7694C30.0628 37.6792 30.0317 37.5742 30.0312 37.4669V28C30.0321 27.7019 30.1509 27.4163 30.3617 27.2055C30.5725 26.9947 30.8581 26.8759 31.1562 26.875H44.6562C44.8042 26.8742 44.9509 26.9028 45.0877 26.959C45.2246 27.0153 45.3489 27.0981 45.4535 27.2027C45.5581 27.3074 45.641 27.4317 45.6972 27.5686C45.7535 27.7054 45.782 27.8521 45.7812 28Z" fill="white"/>
<path d="M45.6575 27.4825L43.5031 32.23H30.0312V28C30.0321 27.7019 30.1509 27.4163 30.3617 27.2055C30.5725 26.9947 30.8581 26.8759 31.1562 26.875H44.6562C44.8626 26.8758 45.0648 26.9328 45.2412 27.0398C45.4176 27.1469 45.5615 27.2999 45.6575 27.4825Z" fill="#333333"/>
<path d="M41.8438 16.75H28.3438C27.7224 16.75 27.2188 17.2537 27.2188 17.875V31.9375C27.2188 32.5588 27.7224 33.0625 28.3438 33.0625H41.8438C42.4651 33.0625 42.9688 32.5588 42.9688 31.9375V17.875C42.9688 17.2537 42.4651 16.75 41.8438 16.75Z" fill="white"/>
<path d="M44.6562 26.2941H43.5312V17.8566C43.5308 17.4092 43.3528 16.9802 43.0365 16.6639C42.7201 16.3475 42.2912 16.1696 41.8438 16.1691H41.2812V12.7941C41.2808 12.3467 41.1028 11.9177 40.7865 11.6014C40.4701 11.285 40.0412 11.1071 39.5938 11.1066H19.3438C18.8963 11.1071 18.4674 11.285 18.151 11.6014C17.8347 11.9177 17.6567 12.3467 17.6562 12.7941V43.1691C17.6567 43.6165 17.8347 44.0454 18.151 44.3618C18.4674 44.6781 18.8963 44.8561 19.3438 44.8566H39.5938C40.0412 44.8561 40.4701 44.6781 40.7865 44.3618C41.1028 44.0454 41.2808 43.6165 41.2812 43.1691V38.7671L43.1599 37.1615L44.486 38.2966C44.6495 38.4346 44.8489 38.5232 45.0609 38.5522C45.2729 38.5813 45.4887 38.5495 45.6834 38.4606C45.878 38.3718 46.0434 38.2295 46.1603 38.0503C46.2772 37.8711 46.3408 37.6624 46.3437 37.4484L46.3438 27.9815C46.3433 27.5341 46.1653 27.1052 45.8489 26.7889C45.5326 26.4725 45.1036 26.2946 44.6562 26.2941ZM41.8438 17.2941C41.9929 17.2942 42.1359 17.3535 42.2413 17.459C42.3468 17.5644 42.4061 17.7074 42.4062 17.8566V31.9191C42.4061 32.0682 42.3468 32.2112 42.2413 32.3167C42.1359 32.4221 41.9929 32.4814 41.8438 32.4816H28.3438C28.1946 32.4814 28.0516 32.4221 27.9462 32.3167C27.8407 32.2112 27.7814 32.0682 27.7812 31.9191V17.8566C27.7814 17.7074 27.8407 17.5644 27.9462 17.459C28.0516 17.3535 28.1946 17.2942 28.3438 17.2941H41.8438ZM40.1562 43.1691C40.1561 43.3182 40.0968 43.4612 39.9913 43.5667C39.8859 43.6721 39.7429 43.7314 39.5938 43.7316H19.3438C19.1946 43.7314 19.0516 43.6721 18.9462 43.5667C18.8407 43.4612 18.7814 43.3182 18.7812 43.1691V12.7941C18.7814 12.6449 18.8407 12.5019 18.9462 12.3965C19.0516 12.291 19.1946 12.2317 19.3438 12.2316H39.5938C39.7429 12.2317 39.8859 12.291 39.9913 12.3965C40.0968 12.5019 40.1561 12.6449 40.1562 12.7941V16.1691H28.3438C27.8963 16.1696 27.4674 16.3475 27.151 16.6639C26.8347 16.9802 26.6567 17.4092 26.6562 17.8566V31.9191C26.6567 32.3665 26.8347 32.7954 27.151 33.1118C27.4674 33.4281 27.8963 33.6061 28.3438 33.6066H29.4688V37.4485C29.4692 37.6634 29.5312 37.8737 29.6473 38.0545C29.7634 38.2353 29.9289 38.3791 30.1241 38.469C30.3193 38.5588 30.5361 38.5909 30.749 38.5615C30.9619 38.5321 31.1619 38.4424 31.3254 38.303L32.6586 37.1617C35.6418 39.6948 34.9292 39.695 37.9062 37.1659C38.6171 37.8196 39.3686 38.4277 40.1562 38.9865V43.1691ZM45.2188 37.443L43.8883 36.3037C43.683 36.131 43.4232 36.0366 43.1549 36.0372C42.8866 36.0378 42.6272 36.1334 42.4227 36.307L40.5331 37.9269C37.5488 35.382 38.2646 35.4036 35.2849 37.9264L33.392 36.3084C33.1879 36.1336 32.9281 36.0375 32.6594 36.0372C32.3908 36.037 32.1308 36.1326 31.9264 36.307L30.5938 37.4485V33.6066H41.8438C42.2912 33.6061 42.7201 33.4281 43.0365 33.1118C43.3528 32.7954 43.5308 32.3665 43.5312 31.9191V27.4191H44.6562C44.8054 27.4192 44.9484 27.4785 45.0538 27.584C45.1593 27.6894 45.2186 27.8324 45.2188 27.9816V37.443Z" fill="#333333"/>
<path d="M27.7811 42.6066H31.1561C31.3034 42.6037 31.4437 42.5432 31.5468 42.438C31.65 42.3328 31.7078 42.1914 31.7078 42.0441C31.7078 41.8967 31.65 41.7553 31.5468 41.6501C31.4437 41.545 31.3034 41.4844 31.1561 41.4816H27.7811C27.6338 41.4844 27.4936 41.545 27.3904 41.6501C27.2873 41.7553 27.2295 41.8968 27.2295 42.0441C27.2295 42.1914 27.2873 42.3328 27.3904 42.438C27.4936 42.5432 27.6338 42.6037 27.7811 42.6066Z" fill="#1F99FF"/>
<path d="M38.1874 23.4816H40.1561C40.3034 23.4787 40.4437 23.4182 40.5468 23.313C40.65 23.2078 40.7077 23.0664 40.7077 22.9191C40.7077 22.7717 40.65 22.6303 40.5468 22.5251C40.4437 22.42 40.3034 22.3594 40.1561 22.3566H39.0311V21.7941C39.0311 21.6449 38.9719 21.5018 38.8664 21.3963C38.7609 21.2908 38.6178 21.2316 38.4686 21.2316C38.3194 21.2316 38.1764 21.2908 38.0709 21.3963C37.9654 21.5018 37.9061 21.6449 37.9061 21.7941V22.385C37.4177 22.4599 36.9755 22.716 36.6674 23.1022C36.3592 23.4884 36.2079 23.9765 36.2433 24.4693C36.2788 24.9621 36.4985 25.4235 36.8588 25.7616C37.219 26.0998 37.6934 26.2899 38.1874 26.2941H38.7499C38.9736 26.2941 39.1883 26.383 39.3465 26.5412C39.5047 26.6994 39.5936 26.914 39.5936 27.1378C39.5936 27.3616 39.5047 27.5762 39.3465 27.7344C39.1883 27.8927 38.9736 27.9816 38.7499 27.9816H36.7811C36.6338 27.9844 36.4936 28.045 36.3904 28.1502C36.2873 28.2553 36.2295 28.3968 36.2295 28.5441C36.2295 28.6914 36.2873 28.8328 36.3904 28.938C36.4936 29.0432 36.6339 29.1037 36.7812 29.1066H37.9061V29.6691C37.9061 29.8183 37.9654 29.9613 38.0709 30.0668C38.1764 30.1723 38.3194 30.2316 38.4686 30.2316C38.6178 30.2316 38.7609 30.1723 38.8664 30.0668C38.9719 29.9613 39.0311 29.8183 39.0311 29.6691V29.0781C39.5195 29.0032 39.9617 28.7472 40.2698 28.3609C40.578 27.9747 40.7293 27.4866 40.6939 26.9938C40.6584 26.501 40.4387 26.0396 40.0785 25.7015C39.7182 25.3634 39.2439 25.1733 38.7498 25.1691H38.1874C37.9657 25.1658 37.7543 25.0755 37.5987 24.9176C37.4431 24.7597 37.3559 24.547 37.3559 24.3253C37.3559 24.1037 37.4431 23.8909 37.5987 23.733C37.7543 23.5751 37.9657 23.4848 38.1874 23.4816Z" fill="#1F99FF"/>
<path d="M34.5311 19.5441H30.0311C29.8838 19.5469 29.7435 19.6075 29.6404 19.7127C29.5373 19.8178 29.4795 19.9593 29.4795 20.1066C29.4795 20.2539 29.5373 20.3953 29.6404 20.5005C29.7436 20.6057 29.8839 20.6662 30.0311 20.6691H34.5311C34.6784 20.6662 34.8187 20.6057 34.9218 20.5005C35.025 20.3953 35.0828 20.2539 35.0828 20.1066C35.0828 19.9593 35.025 19.8178 34.9218 19.7126C34.8187 19.6075 34.6784 19.5469 34.5311 19.5441Z" fill="#1F99FF"/>
<path d="M34.5311 21.7941H30.0311C29.8838 21.7969 29.7435 21.8575 29.6404 21.9627C29.5373 22.0678 29.4795 22.2093 29.4795 22.3566C29.4795 22.5039 29.5373 22.6453 29.6404 22.7505C29.7436 22.8557 29.8839 22.9162 30.0311 22.9191H34.5311C34.6784 22.9162 34.8187 22.8557 34.9218 22.7505C35.025 22.6453 35.0828 22.5039 35.0828 22.3566C35.0828 22.2093 35.025 22.0678 34.9218 21.9626C34.8187 21.8575 34.6784 21.7969 34.5311 21.7941Z" fill="#1F99FF"/>
<path d="M34.5311 24.0441H30.0311C29.8838 24.0469 29.7435 24.1075 29.6404 24.2127C29.5373 24.3178 29.4795 24.4593 29.4795 24.6066C29.4795 24.7539 29.5373 24.8953 29.6404 25.0005C29.7436 25.1057 29.8839 25.1662 30.0311 25.1691H34.5311C34.6784 25.1662 34.8187 25.1057 34.9218 25.0005C35.025 24.8953 35.0828 24.7539 35.0828 24.6066C35.0828 24.4593 35.025 24.3178 34.9218 24.2126C34.8187 24.1075 34.6784 24.0469 34.5311 24.0441Z" fill="#1F99FF"/>
<defs>
<linearGradient id="paint0_linear_3952_775" x1="29.9999" y1="60" x2="29.9999" y2="-61.4062" gradientUnits="userSpaceOnUse">
<stop stop-color="white" stop-opacity="0"/>
<stop offset="1" stop-color="white"/>
</linearGradient>
</defs>
</svg>
