<svg width="58" height="58" viewBox="0 0 58 58" fill="none" xmlns="http://www.w3.org/2000/svg">
<g clip-path="url(#clip0_4916_1021)">
<path d="M22.9145 35.5849L27.7482 21.0836C27.9272 20.5463 27.6369 19.9656 27.0996 19.7865C26.5625 19.6075 25.9817 19.8978 25.8026 20.435L20.9689 34.9363C20.7899 35.4736 21.0802 36.0543 21.6174 36.2334C21.7249 36.2692 21.8343 36.2862 21.9418 36.2862C22.3711 36.2863 22.7712 36.0146 22.9145 35.5849Z" fill="#ECA1D2"/>
<path d="M30.1592 31.0861C31.8554 31.0861 33.2354 29.7062 33.2354 28.01C33.2354 26.3138 31.8554 24.9338 30.1592 24.9338C28.463 24.9338 27.083 26.3138 27.083 28.01C27.083 29.7062 28.463 31.0861 30.1592 31.0861ZM30.1592 26.9846C30.7246 26.9846 31.1846 27.4446 31.1846 28.01C31.1846 28.5754 30.7246 29.0354 30.1592 29.0354C29.5938 29.0354 29.1338 28.5754 29.1338 28.01C29.1338 27.4446 29.5938 26.9846 30.1592 26.9846Z" fill="#ECA1D2"/>
<path d="M18.5586 24.9338C16.8624 24.9338 15.4824 26.3138 15.4824 28.01C15.4824 29.7062 16.8624 31.0862 18.5586 31.0862C20.2548 31.0862 21.6348 29.7062 21.6348 28.01C21.6348 26.3138 20.2549 24.9338 18.5586 24.9338ZM18.5586 29.0354C17.9932 29.0354 17.5332 28.5754 17.5332 28.01C17.5332 27.4446 17.9932 26.9846 18.5586 26.9846C19.124 26.9846 19.584 27.4446 19.584 28.01C19.584 28.5754 19.1241 29.0354 18.5586 29.0354Z" fill="#ECA1D2"/>
<path d="M43.7949 24.7151L40.2192 19.9475L40.3587 18.9711C40.4043 18.6516 40.2969 18.3292 40.0687 18.101L37.8935 15.9258L40.0686 13.7506C40.4691 13.3503 40.4691 12.701 40.0686 12.3005C39.6682 11.9001 39.019 11.9001 38.6185 12.3005L36.4434 14.4757L34.2682 12.3005C34.04 12.0723 33.7176 11.9652 33.3981 12.0105L23.2472 13.4606C23.0276 13.492 22.8241 13.5938 22.6672 13.7506L10.0995 26.3184C8.63351 27.7843 8.63351 30.1696 10.0995 31.6355L20.7337 42.2698C20.9512 42.4873 21.1893 42.6718 21.4414 42.8247V43.2405C21.4414 45.3136 23.128 47.0002 25.2012 47.0002H40.2402C42.3133 47.0002 44 45.3136 44 43.2405V25.3303C44 25.1085 43.928 24.8925 43.7949 24.7151ZM11.5496 30.1854C10.8832 29.519 10.8832 28.4348 11.5496 27.7685L23.8756 15.4425L33.1805 14.1132L34.9932 15.9259L33.5431 17.376L32.818 16.6509C32.4176 16.2505 31.7684 16.2505 31.3679 16.6509C30.9675 17.0513 30.9675 17.7006 31.3679 18.101L34.2682 21.0013C34.4684 21.2015 34.7309 21.3017 34.9932 21.3017C35.2556 21.3017 35.5181 21.2015 35.7182 21.0013C36.1187 20.6009 36.1187 19.9517 35.7182 19.5512L34.9932 18.8261L36.4433 17.376L38.2559 19.1887L36.9266 28.4936L24.6007 40.8196C24.2779 41.1424 23.8487 41.3202 23.3922 41.3202C22.9357 41.3202 22.5066 41.1424 22.1838 40.8196L11.5496 30.1854ZM41.9492 43.2405C41.9492 44.1828 41.1825 44.9494 40.2402 44.9494H25.2012C24.3013 44.9494 23.5622 44.2503 23.4973 43.3666C24.4247 43.3409 25.3445 42.976 26.0507 42.2698L38.6185 29.702C38.7753 29.5451 38.8771 29.3416 38.9085 29.122L39.809 22.8186L41.9492 25.6721V43.2405Z" fill="#ECA1D2"/>
</g>
<circle cx="29" cy="29" r="27.5" stroke="#8FD3FF" stroke-width="3"/>
<defs>
<clipPath id="clip0_4916_1021">
<rect width="35" height="35" fill="white" transform="translate(9 12)"/>
</clipPath>
</defs>
</svg>
