<svg width="62" height="62" viewBox="0 0 62 62" fill="none" xmlns="http://www.w3.org/2000/svg">
<path d="M42.944 19.373C46.5502 19.373 49.8323 20.8538 52.2106 23.2393C54.5889 25.6205 56.0647 28.9065 56.0647 32.5204V38.5693C56.0647 42.2854 54.4837 46.3571 51.9616 49.3903C49.6172 52.2151 46.4451 54.1667 42.944 54.1667C39.4434 54.1667 36.2717 52.2151 33.9264 49.3903C31.4067 46.3571 29.8232 42.2854 29.8232 38.5693V32.5204C29.8232 28.907 31.2986 25.6205 33.6784 23.2393C36.0567 20.8538 39.3378 19.373 42.944 19.373ZM50.8417 24.6009C48.817 22.5709 46.0207 21.3125 42.944 21.3125C39.8682 21.3125 37.0719 22.5709 35.0463 24.6009C33.0206 26.6333 31.7627 29.4369 31.7627 32.5204V38.5693C31.7627 41.8529 33.1693 45.4595 35.4095 48.1585C37.4105 50.5653 40.0658 52.2272 42.944 52.2272C45.8221 52.2272 48.4775 50.5649 50.4794 48.1585C52.7196 45.4595 54.1282 41.8529 54.1282 38.5693V32.5204C54.1282 29.4369 52.8698 26.6329 50.8417 24.6009Z" fill="#ECA1D2"/>
<path d="M24.8579 33.3254H27.8242C28.9087 33.3254 29.8925 33.7691 30.6065 34.4807C30.6254 34.5025 30.6447 34.5214 30.6612 34.5432C31.3417 35.2499 31.7622 36.2099 31.7622 37.2629V39.8616C31.7622 40.9413 31.32 41.9221 30.6065 42.639H30.604L30.6016 42.6409L30.5992 42.6438C29.8848 43.3554 28.9039 43.7971 27.8242 43.7971H25.5007C25.0565 43.7971 24.653 43.6155 24.3614 43.3239C24.3353 43.2982 24.311 43.2721 24.2902 43.2425C24.0393 42.9587 23.8887 42.5886 23.8887 42.1847V34.2942C23.8882 33.7594 24.3227 33.3254 24.8579 33.3254ZM27.8242 35.2639H25.8252V41.8606H27.8242C28.3759 41.8606 28.8748 41.6354 29.2357 41.275L29.2405 41.2731C29.6014 40.9117 29.8232 40.4133 29.8232 39.8616V37.2629C29.8232 36.733 29.6154 36.2506 29.2788 35.8902C29.2643 35.8781 29.2497 35.8665 29.2357 35.8515C28.8748 35.4891 28.3735 35.2639 27.8242 35.2639Z" fill="#ECA1D2"/>
<path d="M25.8257 34.2943C25.8257 34.8295 25.3936 35.264 24.8584 35.264C24.3232 35.264 23.8887 34.83 23.8887 34.2943V31.4074C23.8887 26.8175 25.7327 21.9839 29.4653 18.5139C32.6176 15.5834 37.1058 13.6318 42.945 13.6318C48.7841 13.6318 53.2709 15.5834 56.4232 18.5139C60.1562 21.9839 62.0003 26.8175 62.0003 31.4074V34.2943C62.0003 34.8295 61.5677 35.264 61.0325 35.264C60.4977 35.264 60.0637 34.83 60.0637 34.2943V31.4074C60.0637 27.3164 58.4251 23.0127 55.1076 19.9302C52.2919 17.3126 48.2489 15.5689 42.9454 15.5689C37.644 15.5689 33.6004 17.3126 30.7823 19.9302C27.4643 23.0127 25.8262 27.3164 25.8262 31.4069L25.8257 34.2943Z" fill="#ECA1D2"/>
<path d="M60.0625 35.2639H58.0635C57.5118 35.2639 57.0133 35.4862 56.652 35.8466L56.65 35.8495L56.652 35.8514C56.2897 36.2147 56.0654 36.7141 56.0654 37.2629V39.8616C56.0654 40.4104 56.2897 40.9098 56.652 41.2731C57.0153 41.6354 57.5147 41.8606 58.0635 41.8606H60.0625V35.2639ZM58.0635 33.3254H61.0322C61.5674 33.3254 62 33.7594 62 34.2942V42.1851C62 42.5862 61.8484 42.9543 61.6028 43.2382C61.579 43.2692 61.5553 43.2977 61.5272 43.3244C61.2356 43.616 60.8317 43.7976 60.387 43.7976H58.0635C56.9794 43.7976 55.9952 43.3559 55.2812 42.6414C54.5697 41.9299 54.125 40.9432 54.125 39.8621V37.2629C54.125 36.1789 54.5697 35.1946 55.2812 34.4807L55.2841 34.4836C56.0005 33.7691 56.9843 33.3245 58.0635 33.3245V33.3254Z" fill="#ECA1D2"/>
<path d="M30.4756 34.7311C29.9713 34.5573 29.7064 34.0055 29.8807 33.5013C30.0575 32.998 30.6068 32.7321 31.1106 32.907C31.127 32.9138 37.1047 35.0707 39.0015 28.1829C39.1425 27.667 39.6724 27.3638 40.1858 27.5047C40.5123 27.5929 40.7535 27.8414 40.8518 28.1398C40.8596 28.1611 43.1516 35.7319 55.0048 34.5834C55.5347 34.533 56.0074 34.922 56.0578 35.4529C56.1082 35.9828 55.7163 36.4555 55.1855 36.5059C45.9794 37.3991 41.7978 33.418 40.0763 30.8217C37.048 37.1012 30.4969 34.7389 30.4756 34.7311Z" fill="#ECA1D2"/>
<path d="M57.8563 42.8274C57.8563 42.2927 58.2903 41.8606 58.826 41.8606C59.3607 41.8606 59.7947 42.2931 59.7947 42.8274C59.7947 47.7874 58.3862 51.4004 56.4279 54.0039C53.4921 57.9065 49.3327 59.5059 46.8198 59.9869C46.2967 60.0871 45.7886 59.7428 45.6883 59.2177C45.588 58.6917 45.9314 58.1855 46.4575 58.0852C48.6638 57.6653 52.3136 56.263 54.8832 52.8462C56.6114 50.5464 57.8563 47.3176 57.8563 42.8274Z" fill="#ECA1D2"/>
<path d="M40.257 56.0703H45.6336C46.1727 56.0703 46.6677 56.2946 47.0261 56.6501L47.0281 56.6549C47.3865 57.0105 47.6079 57.5055 47.6079 58.0475V60.0247C47.6079 60.5668 47.3865 61.0589 47.0281 61.4173L47.0261 61.4222C46.6677 61.7777 46.1727 62 45.6336 62H40.257C39.713 62 39.218 61.7777 38.8605 61.4222C38.8368 61.3975 38.815 61.3718 38.7932 61.3476C38.4755 60.9964 38.2793 60.5338 38.2793 60.0252V58.048C38.2793 57.506 38.5016 57.011 38.8601 56.6554L38.8649 56.6506C39.2214 56.2946 39.715 56.0703 40.257 56.0703ZM45.6336 58.0097H40.257C40.2459 58.0097 40.2362 58.0117 40.2284 58.0194C40.2216 58.0262 40.2187 58.0354 40.2187 58.048V60.0252C40.2187 60.033 40.2187 60.0393 40.2216 60.0441L40.2313 60.0519C40.2381 60.0587 40.2473 60.063 40.257 60.063H45.6336C45.6432 60.063 45.6525 60.0582 45.6592 60.0533C45.667 60.0465 45.6689 60.0373 45.6689 60.0247V58.0475C45.6689 58.0354 45.667 58.0257 45.6592 58.018C45.6525 58.0112 45.6432 58.0083 45.6336 58.0083V58.0097Z" fill="#ECA1D2"/>
<path d="M38.1025 38.7056C38.8402 38.7056 39.4404 39.3023 39.4404 40.0424C39.4404 40.7811 38.8407 41.3784 38.1025 41.3784C37.3643 41.3784 36.7676 40.7816 36.7676 40.0424C36.7676 39.3028 37.3648 38.7056 38.1025 38.7056ZM47.7842 38.7056C48.5219 38.7056 49.122 39.3023 49.122 40.0424C49.122 40.7811 48.5224 41.3784 47.7842 41.3784C47.046 41.3784 46.4473 40.7816 46.4473 40.0424C46.4478 39.3028 47.0465 38.7056 47.7842 38.7056Z" fill="#ECA1D2"/>
<path d="M44.7183 46.2427C45.1319 45.9012 45.7398 45.9589 46.0813 46.3696C46.4209 46.7823 46.3632 47.3912 45.9525 47.7326C45.5185 48.093 45.0375 48.3875 44.5221 48.5881C44.0208 48.7857 43.4899 48.8966 42.943 48.8966C42.3962 48.8966 41.8692 48.7857 41.3649 48.5881C40.8486 48.3875 40.3686 48.0935 39.9346 47.7326C39.5229 47.3912 39.4662 46.7818 39.8048 46.3696C40.1463 45.9579 40.7556 45.9012 41.1688 46.2427C41.4507 46.4762 41.7534 46.6656 42.0692 46.7867C42.3482 46.8976 42.6418 46.9586 42.9435 46.9586C43.2463 46.9586 43.5379 46.8971 43.8178 46.7867C44.1336 46.6656 44.4373 46.4762 44.7183 46.2427Z" fill="#ECA1D2"/>
<path d="M20.9604 23.512C21.4951 23.512 21.9301 23.9465 21.9301 24.4813C21.9301 25.016 21.4956 25.451 20.9604 25.451H18.2067V32.8929C18.2067 33.2867 18.0827 33.6592 17.8604 33.9716L17.8628 33.9745C17.6429 34.285 17.33 34.5263 16.9531 34.6595C16.5758 34.7936 16.1815 34.8033 15.8187 34.7001C15.4535 34.595 15.1212 34.3805 14.8684 34.0671L7.91663 25.451H2.78661C2.02227 25.451 1.32719 25.1381 0.821016 24.6319H0.818594L0.816172 24.6295L0.81375 24.6271C0.31 24.1204 0 23.4253 0 22.6639V2.78661C0 2.02227 0.312906 1.32719 0.816656 0.821016L0.818594 0.819078L0.821016 0.816656L0.823438 0.814234C1.32767 0.310484 2.02227 0 2.78661 0H34.2395C35.0058 0 35.7028 0.312906 36.2075 0.816656C36.7122 1.32041 37.0242 2.01791 37.0242 2.78661V9.66473C37.0242 10.1995 36.5916 10.634 36.0574 10.634C35.5221 10.634 35.0876 10.1995 35.0876 9.66473V2.78661C35.0876 2.55266 34.9922 2.34002 34.8387 2.18744C34.6837 2.03195 34.4715 1.93653 34.24 1.93653H2.78661C2.55023 1.93653 2.33759 2.03195 2.18744 2.18259L2.18259 2.18744C2.03195 2.33808 1.93653 2.55072 1.93653 2.78661V22.6639C1.93653 22.9003 2.03195 23.11 2.18259 23.2631L2.18744 23.2655C2.33808 23.4181 2.55072 23.5116 2.78661 23.5116H7.94036C8.18642 23.5116 8.4228 23.5595 8.64706 23.6501C8.68291 23.6617 8.71633 23.6763 8.74975 23.6932C8.99823 23.8128 9.21766 23.9867 9.40172 24.2139L16.2677 32.7258V25.389C16.2677 24.9114 16.4513 24.4745 16.7502 24.1398C16.7715 24.1136 16.7957 24.0875 16.8194 24.0633C17.1585 23.7242 17.6288 23.5116 18.1447 23.5116L20.9604 23.512Z" fill="#8FD3FF"/>
<path d="M8.98877 61.0332C8.98877 61.568 8.55671 62.0001 8.02148 62.0001C7.48624 62.0001 7.05176 61.5675 7.05176 61.0332V51.9265C7.05176 51.3918 7.48624 50.9568 8.02148 50.9568H14.4002C14.935 50.9568 15.3694 51.3918 15.3694 51.9265V61.0332C15.3694 61.568 14.935 62.0001 14.4002 62.0001C13.8655 62.0001 13.4329 61.5675 13.4329 61.0332V52.8943H8.98877V61.0332Z" fill="#8FD3FF"/>
<path d="M4 41.0818L6.09929 37.8191C6.28819 37.526 6.56041 37.3129 6.87332 37.1957C7.1838 37.0814 7.52771 37.0649 7.86193 37.1628C8.19615 37.2611 8.47611 37.4616 8.67374 37.7266C8.87427 37.9944 8.98907 38.3209 8.98907 38.6667V45.0552C8.98907 45.1196 9.01522 45.1772 9.05833 45.2198L9.07965 45.2416C9.11791 45.2726 9.17071 45.2901 9.22544 45.2901H11.2128H13.1973C13.2617 45.2901 13.3213 45.2634 13.3644 45.2198L13.3857 45.199C13.4148 45.1603 13.4337 45.1099 13.4337 45.0552V38.6667C13.4337 38.3204 13.5461 37.9959 13.7466 37.7266H13.7442C13.9428 37.4616 14.2242 37.2611 14.5608 37.1628C14.8951 37.0644 15.239 37.0814 15.5519 37.1957C15.8623 37.3129 16.1346 37.526 16.3235 37.8191L18.4228 41.0818L18.494 41.1961C18.695 41.4892 18.8786 41.7619 18.9309 42.2322L19.5136 47.4533C19.5518 47.8045 19.5063 48.1479 19.3847 48.4705C19.2607 48.795 19.0621 49.0818 18.7972 49.3162C18.7807 49.3303 18.7638 49.3472 18.7449 49.3617L15.0408 52.6473C14.8568 52.81 14.6301 52.8914 14.401 52.8914V52.8933H11.2128H8.02225C7.74519 52.8933 7.49429 52.779 7.31749 52.5925L3.62752 49.3162C3.36014 49.0769 3.16204 48.7902 3.03755 48.4705C2.91597 48.1479 2.87044 47.8045 2.90871 47.4533L3.49141 42.2322C3.54372 41.7619 3.72779 41.4926 3.92589 41.1961H3.92396L4 41.0818ZM7.05205 39.9116L5.62605 42.1271C5.56889 42.2162 5.55 42.2472 5.52821 42.2778L5.52579 42.2758L5.52336 42.2778C5.46621 42.362 5.41341 42.4405 5.41341 42.4434L4.83119 47.6655C4.82635 47.7139 4.82877 47.7546 4.84088 47.7827C4.85057 47.8093 4.8743 47.8403 4.90772 47.8718L8.38263 50.9568H11.2128H14.0406L17.4651 47.9164C17.4792 47.9004 17.4961 47.8858 17.5131 47.8708C17.5489 47.8379 17.5727 47.8064 17.5843 47.7827C17.594 47.7541 17.5964 47.7134 17.5916 47.6655L17.0089 42.4424C17.0089 42.4405 16.9566 42.362 16.8989 42.2778C16.8393 42.1896 16.8078 42.147 16.7962 42.1271L15.3707 39.9116V45.0552C15.3707 45.6161 15.1532 46.13 14.7972 46.5194C14.7783 46.5432 14.7565 46.5669 14.7328 46.5901C14.3409 46.982 13.7965 47.2276 13.1973 47.2276H11.2128H9.22544C8.66163 47.2276 8.14625 47.0082 7.75924 46.6521C7.7355 46.6333 7.71129 46.6115 7.68997 46.5897C7.29618 46.1959 7.05254 45.6538 7.05254 45.0542V39.9116H7.05205Z" fill="#8FD3FF"/>
<path d="M28.3662 6.58887C28.901 6.58887 29.3335 7.02335 29.3335 7.55859C29.3335 8.09334 28.901 8.52782 28.3662 8.52782H7.11183C6.57708 8.52782 6.14453 8.09334 6.14453 7.55859C6.14453 7.02384 6.57708 6.58887 7.11183 6.58887H28.3662Z" fill="#8FD3FF"/>
<path d="M21.1849 15.3799C21.7196 15.3799 22.1522 15.8144 22.1522 16.3491C22.1522 16.8839 21.7196 17.3184 21.1849 17.3184H7.11183C6.57708 17.3184 6.14453 16.8839 6.14453 16.3491C6.14453 15.8144 6.57708 15.3799 7.11183 15.3799H21.1849Z" fill="#8FD3FF"/>
<path d="M28.3662 10.9856C28.901 10.9856 29.3335 11.4181 29.3335 11.9529C29.3335 12.4876 28.901 12.9221 28.3662 12.9221H7.11183C6.57708 12.9221 6.14453 12.4876 6.14453 11.9529C6.14453 11.4181 6.57708 10.9856 7.11183 10.9856H28.3662Z" fill="#8FD3FF"/>
</svg>
