<svg width="63" height="61" viewBox="0 0 63 61" fill="none" xmlns="http://www.w3.org/2000/svg">
<circle cx="33" cy="32" r="27.5" stroke="#8FD3FF" stroke-width="3"/>
<path d="M14.4516 38C10.1505 38.5652 1.23871 39.8087 0 40.2609V51L16 48.7391L14.4516 38Z" fill="white"/>
<path d="M43.3829 43.3344C45.1373 43.2043 47.0831 43.1067 49.0288 42.8139C49.4116 42.7488 49.9858 41.9355 49.9858 41.4475C50.0496 33.5744 50.0496 25.7339 49.9858 17.8608C49.9858 17.4053 49.2521 16.5269 48.9012 16.5595C46.6684 16.592 44.4674 16.8523 42.1389 17.0149C42.1389 22.8709 42.1389 28.5968 42.1389 34.4528C41.4371 34.4528 40.8949 34.4528 40.1931 34.4528C40.1931 28.7595 40.1931 23.0987 40.1931 17.2101C37.1628 17.4704 34.292 17.6981 31.1979 17.9584C31.1979 22.2528 31.1979 26.4496 31.1979 30.744C27.7848 31.0368 24.595 31.2971 21.1819 31.5899C21.1819 27.2629 21.1819 23.1312 21.1819 18.8368C19.7784 18.9344 18.5663 19.032 17.3542 19.1296C16.3653 19.1947 16.2059 19.8779 16.2059 20.7237C16.2378 23.3915 16.2059 26.0267 16.2059 28.6944C16.2059 29.2149 16.2059 29.768 16.2059 30.3861C15.536 30.3861 14.9937 30.3861 14.292 30.3861C14.292 26.7749 14.1963 23.1637 14.3558 19.5525C14.4196 18.056 15.6317 17.2752 17.1309 17.1451C23.1596 16.6245 29.1883 16.0715 35.217 15.5835C39.5551 15.2256 43.8933 14.8677 48.2314 14.5099C50.9427 14.3147 52.0272 15.3883 52.0272 18.1861C52.0272 25.8315 52.0272 33.4768 52.0272 41.1221C52.0272 43.7248 51.166 44.6683 48.7098 44.9285C47.115 45.0912 45.5201 45.1563 43.9571 45.4165C43.5105 45.4816 42.8725 45.9371 42.7449 46.3275C41.3733 50.3616 38.5982 52.6715 34.4834 52.8667C30.4961 53.0619 27.5934 51.0448 25.839 47.3685C25.8071 47.2709 25.7114 47.2059 25.5838 46.9781C23.2234 47.1408 20.7992 47.336 18.3749 47.5312C15.2489 47.7915 14.1963 46.8155 14.1963 43.5947C14.1963 43.0091 14.1963 42.4235 14.1963 41.7728C14.898 41.7728 15.4084 41.7728 16.0464 41.7728C16.0783 42.1957 16.174 42.5861 16.174 43.0091C16.2059 45.6443 16.2059 45.6768 18.8853 45.4816C20.9268 45.3515 23.0001 45.1237 25.0097 44.9611C25.9985 36.3723 32.6333 31.9803 38.5025 35.9819C38.2473 36.4373 37.9921 36.8928 37.6413 37.5109C35.3446 36.5675 32.9204 36.1445 30.7832 37.6085C29.603 38.4219 28.4866 39.5931 27.8167 40.8619C26.3494 43.6597 27.2425 47.2384 29.6349 49.2229C31.9953 51.2075 35.4084 51.4027 37.9602 49.6784C40.5121 47.9541 41.6285 44.7659 40.7354 41.9029C38.662 44.0827 36.5886 46.2299 34.5153 48.4096C32.9842 46.848 31.8039 45.6443 30.4961 44.3104C30.847 43.9525 31.2617 43.5621 31.7401 43.0741C32.5695 43.8549 33.3031 44.5381 34.2282 45.4165C36.5248 42.944 38.7896 40.5365 41.3414 37.8363C42.107 39.8208 42.713 41.48 43.3829 43.3344ZM23.2872 18.6416C23.2872 22.2853 23.2872 25.7989 23.2872 29.3776C25.2968 29.1824 27.1787 29.0197 28.9969 28.8571C28.9969 25.1808 28.9969 21.7323 28.9969 18.1536C27.0193 18.3163 25.1373 18.4789 23.2872 18.6416Z" fill="#ECA1D2"/>
<path d="M12.378 44.9611C9.34769 45.5792 6.50877 46.1323 3.47847 46.7504C3.31898 46.1648 3.19139 45.5792 3 44.7984C6.0303 44.2128 8.90112 43.6272 11.8676 43.0416C12.0271 43.6272 12.1866 44.1803 12.378 44.9611Z" fill="#ECA1D2"/>
<path d="M16.0459 37.4785C16.1097 38.3569 16.1416 38.8774 16.2054 39.4956C13.8768 39.886 11.6758 40.2764 9.3473 40.6342C9.25161 39.951 9.15591 39.4305 9.02832 38.6497C11.3569 38.2593 13.5897 37.8689 16.0459 37.4785Z" fill="#ECA1D2"/>
<path d="M12.3782 35.5589C12.2506 34.7781 12.1549 34.2576 12.0273 33.5744C14.0369 33.2491 15.9189 32.9237 17.9604 32.5659C18.088 33.2165 18.1517 33.7696 18.3112 34.5504C16.3017 34.8757 14.4197 35.2011 12.3782 35.5589Z" fill="#ECA1D2"/>
</svg>
