<svg width="60" height="60" viewBox="0 0 60 60" fill="none" xmlns="http://www.w3.org/2000/svg">
<path d="M8.34268e-07 30C-8.11778e-07 46.5685 13.4315 60 30 60C46.5685 60 60 46.5685 60 30C60 13.4315 46.5685 -1.33438e-06 30 -2.98043e-06C13.4315 -4.62648e-06 2.48031e-06 13.4314 8.34268e-07 30Z" fill="url(#paint0_linear_4920_991)"/>
<g clip-path="url(#clip0_4920_991)">
<path d="M46.3125 39.8125V43.1875C46.3116 43.4856 46.1928 43.7712 45.982 43.982C45.7712 44.1928 45.4856 44.3116 45.1875 44.3125H14.8125C14.5144 44.3116 14.2288 44.1928 14.018 43.982C13.8072 43.7712 13.6884 43.4856 13.6875 43.1875V39.8125H46.3125Z" fill="#ACABB1"/>
<path d="M15.9375 21.8125H44.0625C44.3609 21.8125 44.647 21.931 44.858 22.142C45.069 22.353 45.1875 22.6391 45.1875 22.9375V39.8125H14.8125V22.9375C14.8125 22.6391 14.931 22.353 15.142 22.142C15.353 21.931 15.6391 21.8125 15.9375 21.8125Z" fill="#FDCFE6"/>
<path d="M33.375 39.8125L32.8125 42.0625H27.1875L26.625 39.8125H33.375Z" fill="#57565C"/>
<path d="M42.375 13.9375V37H17.625V13.9375L19.3125 15.625L21.5625 13.9375L23.8125 15.625L26.0625 13.9375L28.3125 15.625L30.5625 13.9375L32.8125 15.625L35.0625 13.9375L37.3125 15.625L39 13.9375L40.6875 15.625L42.375 13.9375Z" fill="white"/>
<path d="M46.3125 39.25H45.75V22.9375C45.7487 22.4903 45.5704 22.0619 45.2543 21.7457C44.9381 21.4295 44.5096 21.2513 44.0625 21.25H42.9375V13.9375C42.9379 13.8262 42.9049 13.7174 42.8427 13.6251C42.7805 13.5328 42.692 13.4613 42.5888 13.42C42.4863 13.3769 42.3734 13.3651 42.2643 13.3861C42.1552 13.4072 42.0547 13.46 41.9756 13.5381L40.6875 14.8318L39.3994 13.5381C39.2932 13.4327 39.1496 13.3736 39 13.3736C38.8504 13.3736 38.7068 13.4327 38.6006 13.5381L37.2619 14.8825L35.4 13.4875C35.303 13.4136 35.1844 13.3735 35.0625 13.3735C34.9406 13.3735 34.822 13.4136 34.725 13.4875L32.8125 14.9218L30.9 13.4875C30.803 13.4136 30.6844 13.3735 30.5625 13.3735C30.4406 13.3735 30.322 13.4136 30.225 13.4875L28.3125 14.9218L26.4 13.4875C26.303 13.4136 26.1844 13.3735 26.0625 13.3735C25.9406 13.3735 25.822 13.4136 25.725 13.4875L23.8125 14.9218L21.9 13.4875C21.803 13.4136 21.6844 13.3735 21.5625 13.3735C21.4406 13.3735 21.322 13.4136 21.225 13.4875L19.3631 14.8825L18.0244 13.5381C17.9453 13.46 17.8448 13.4072 17.7357 13.3861C17.6266 13.3651 17.5137 13.3769 17.4113 13.42C17.308 13.4613 17.2195 13.5328 17.1573 13.6251C17.0951 13.7174 17.0621 13.8262 17.0625 13.9375V21.25H15.9375C15.4904 21.2513 15.0619 21.4295 14.7457 21.7457C14.4296 22.0619 14.2513 22.4903 14.25 22.9375V39.25H13.6875C13.5383 39.25 13.3952 39.3092 13.2898 39.4147C13.1843 39.5202 13.125 39.6633 13.125 39.8125V43.1875C13.1263 43.6346 13.3046 44.0631 13.6207 44.3792C13.9369 44.6954 14.3654 44.8736 14.8125 44.875H45.1875C45.6346 44.8736 46.0631 44.6954 46.3793 44.3792C46.6954 44.0631 46.8737 43.6346 46.875 43.1875V39.8125C46.875 39.6633 46.8157 39.5202 46.7102 39.4147C46.6048 39.3092 46.4617 39.25 46.3125 39.25ZM18.1875 15.2931L18.9131 16.0243C19.0092 16.1203 19.1367 16.1782 19.2721 16.1875C19.4075 16.1968 19.5417 16.1569 19.65 16.075L21.5625 14.6406L23.475 16.075C23.572 16.1489 23.6906 16.1889 23.8125 16.1889C23.9344 16.1889 24.053 16.1489 24.15 16.075L26.0625 14.6406L27.975 16.075C28.072 16.1489 28.1906 16.1889 28.3125 16.1889C28.4344 16.1889 28.553 16.1489 28.65 16.075L30.5625 14.6406L32.475 16.075C32.572 16.1489 32.6906 16.1889 32.8125 16.1889C32.9344 16.1889 33.053 16.1489 33.15 16.075L35.0625 14.6406L36.975 16.075C37.0833 16.1569 37.2175 16.1968 37.3529 16.1875C37.4883 16.1782 37.6158 16.1203 37.7119 16.0243L39 14.7306L40.2881 16.0243C40.3943 16.1297 40.5379 16.1889 40.6875 16.1889C40.8371 16.1889 40.9807 16.1297 41.0869 16.0243L41.8125 15.2931V36.4375H18.1875V15.2931ZM15.375 22.9375C15.375 22.7883 15.4343 22.6452 15.5398 22.5397C15.6452 22.4342 15.7883 22.375 15.9375 22.375H17.0625V36.4375H16.5V37.5625H44.0625V36.4375H42.9375V22.375H44.0625C44.2117 22.375 44.3548 22.4342 44.4602 22.5397C44.5657 22.6452 44.625 22.7883 44.625 22.9375V39.25H15.375V22.9375ZM32.655 40.375L32.3738 41.5H27.6263L27.345 40.375H32.655ZM45.75 43.1875C45.75 43.3366 45.6907 43.4797 45.5852 43.5852C45.4798 43.6907 45.3367 43.75 45.1875 43.75H14.8125C14.6633 43.75 14.5202 43.6907 14.4148 43.5852C14.3093 43.4797 14.25 43.3366 14.25 43.1875V40.375H26.1862L26.6419 42.1975C26.672 42.3194 26.7421 42.4278 26.841 42.5052C26.9399 42.5827 27.0619 42.6249 27.1875 42.625H32.8125C32.9381 42.6249 33.0601 42.5827 33.159 42.5052C33.2579 42.4278 33.328 42.3194 33.3581 42.1975L33.8137 40.375H45.75V43.1875Z" fill="black"/>
<path d="M24.9375 19H27.1875V20.125H24.9375V19Z" fill="black"/>
<path d="M24.9375 21.8125H27.1875V22.9375H24.9375V21.8125Z" fill="black"/>
<path d="M24.9375 24.625H27.1875V25.75H24.9375V24.625Z" fill="black"/>
<path d="M28.875 19H40.125V20.125H28.875V19Z" fill="black"/>
<path d="M28.875 21.8125H40.125V22.9375H28.875V21.8125Z" fill="black"/>
<path d="M28.875 24.625H40.125V25.75H28.875V24.625Z" fill="black"/>
<path d="M19.875 27.4375H40.125V28.5625H19.875V27.4375Z" fill="black"/>
<path d="M19.875 30.25H40.125V31.375H19.875V30.25Z" fill="black"/>
<path d="M19.875 33.0625H40.125V34.1875H19.875V33.0625Z" fill="black"/>
</g>
<defs>
<linearGradient id="paint0_linear_4920_991" x1="60" y1="30.0001" x2="-61.4062" y2="30.0001" gradientUnits="userSpaceOnUse">
<stop stop-color="white" stop-opacity="0"/>
<stop offset="1" stop-color="white"/>
</linearGradient>
<clipPath id="clip0_4920_991">
<rect width="36" height="36" fill="white" transform="translate(12 10)"/>
</clipPath>
</defs>
</svg>
