<svg width="44" height="59" viewBox="0 0 44 59" fill="none" xmlns="http://www.w3.org/2000/svg">
<path d="M4.60938 21.8946C4.60938 31.4257 12.3634 39.1797 21.8946 39.1797C31.4257 39.1797 39.1797 31.4257 39.1797 21.8946C39.1797 12.3634 31.4257 4.60938 21.8946 4.60938C12.3634 4.60938 4.60938 12.3634 4.60938 21.8946ZM21.8946 6.91407C30.155 6.91407 36.875 13.6341 36.875 21.8946C36.875 30.155 30.155 36.875 21.8946 36.875C13.6341 36.875 6.91407 30.155 6.91407 21.8946C6.91407 13.6341 13.6341 6.91407 21.8946 6.91407Z" fill="#8FD3FF"/>
<path d="M11.2226 19.8401L15.6892 24.2411L14.6616 30.4264C14.59 30.8572 14.7678 31.2911 15.1212 31.5477C15.4741 31.8042 15.9418 31.8389 16.3293 31.6381L21.8944 28.7483L27.4589 31.6381C27.8433 31.8375 28.311 31.8065 28.6671 31.5477C29.0204 31.2911 29.1982 30.8572 29.1267 30.4264L28.099 24.2411L32.5657 19.8401C32.8767 19.534 32.9879 19.0785 32.8529 18.663C32.7179 18.248 32.36 17.945 31.9283 17.8798L25.7295 16.9466L22.9247 11.3375C22.7298 10.9472 22.3305 10.7006 21.8944 10.7006C21.4577 10.7006 21.0589 10.9472 20.8635 11.3375L18.0588 16.9466L11.8599 17.8798C11.4283 17.9446 11.0704 18.248 10.9354 18.663C10.8003 19.0785 10.912 19.534 11.2226 19.8401ZM18.9937 19.1365C19.3646 19.0807 19.6851 18.848 19.853 18.5127L21.8944 14.4295L23.9357 18.5127C24.1036 18.848 24.4241 19.0807 24.795 19.1365L29.3067 19.8158L26.0554 23.0185C25.7885 23.2818 25.666 23.6586 25.7273 24.0286L26.4754 28.5304L22.4251 26.4274C22.259 26.341 22.0767 26.2977 21.8944 26.2977C21.7121 26.2977 21.5297 26.341 21.3632 26.4274L17.3129 28.5304L18.061 24.0286C18.1227 23.6586 18.0002 23.2818 17.7329 23.0185L14.482 19.8158L18.9937 19.1365Z" fill="#ECA1D2"/>
<path d="M23.0469 1.15235C23.0469 1.78884 22.531 2.30469 21.8945 2.30469C21.258 2.30469 20.7422 1.78884 20.7422 1.15235C20.7422 0.515855 21.258 0 21.8945 0C22.531 0 23.0469 0.515855 23.0469 1.15235Z" fill="#8FD3FF"/>
<path d="M16.4637 0.679203C6.77003 3.15359 0 11.8777 0 21.8945C0 28.1158 2.61573 33.9779 7.20756 38.1295L0.265129 50.3646C0.0418625 50.7585 0.0697709 51.2465 0.336251 51.612C0.602731 51.9779 1.05827 52.1539 1.50165 52.0617L9.38576 50.4245L12.1568 58.233C12.3071 58.6579 12.692 58.9555 13.1412 58.9955C13.5905 59.0356 14.0213 58.8092 14.2441 58.4171L21.8946 44.9671L29.5446 58.4171C29.7508 58.7795 30.1343 58.9996 30.5457 58.9996C30.5795 58.9996 30.6137 58.9982 30.6474 58.9955C31.0967 58.9555 31.4815 58.6575 31.6323 58.233L34.4029 50.4245L42.287 52.0617C42.73 52.1535 43.1859 51.9775 43.4524 51.612C43.7194 51.2465 43.7468 50.7585 43.5235 50.3646L36.5811 38.1295C41.1729 33.9779 43.7887 28.1158 43.7887 21.8945C43.7887 11.8777 37.0186 3.15359 27.3254 0.679203C26.7083 0.521655 26.0813 0.893917 25.9237 1.5106C25.7662 2.12729 26.1384 2.75477 26.7551 2.91232C35.4274 5.12609 41.4844 12.9319 41.4844 21.8945C41.4844 32.8026 32.6253 41.4844 21.8946 41.4844C11.1561 41.4844 2.30469 32.7954 2.30469 21.8945C2.30469 12.9319 8.36126 5.12609 17.0336 2.91232C17.6502 2.75477 18.0225 2.12729 17.8654 1.5106C17.7079 0.893917 17.0808 0.521655 16.4637 0.679203ZM13.4865 55.0884L11.2219 48.7068C11.0292 48.1639 10.4656 47.8466 9.90162 47.9636L3.52636 49.2875L9.0207 39.6042C12.2243 41.9332 16.0176 43.352 19.9621 43.7031L13.4865 55.0884ZM33.8871 47.9636C33.3235 47.8466 32.7595 48.1639 32.5668 48.7068L30.3026 55.0884L23.8265 43.7031C27.7715 43.352 31.5644 41.9332 34.7684 39.6042L40.2628 49.2875L33.8871 47.9636Z" fill="#8FD3FF"/>
</svg>
