<svg width="60" height="60" viewBox="0 0 60 60" fill="none" xmlns="http://www.w3.org/2000/svg">
<path d="M30 1.19201e-06C13.4315 -2.56454e-07 7.88585e-06 13.4315 6.43738e-06 30C4.98891e-06 46.5685 13.4315 60 30 60C46.5685 60 60 46.5685 60 30C60 13.4315 46.5685 2.64048e-06 30 1.19201e-06Z" fill="url(#paint0_linear_3952_784)"/>
<path d="M22.5668 43.9519H14.4707V46.2651C14.4724 46.9032 14.9891 47.4197 15.6273 47.4217H27.1931C27.831 47.4197 28.3477 46.9032 28.3497 46.2651V43.9519H22.5668Z" fill="#BDDBFF"/>
<path d="M27.1931 24.2899H15.6273C14.9891 24.2919 14.4724 24.8086 14.4707 25.4465V26.6031H28.3497V25.4465C28.3477 24.8086 27.831 24.2919 27.1931 24.2899Z" fill="#BDDBFF"/>
<path d="M28.3503 43.9519V25.4465C28.3483 24.8086 27.8316 24.2919 27.1937 24.2899H22.5674V13.8807C23.9377 13.8807 23.9377 15.338 25.3143 15.338C26.6905 15.338 26.6846 13.58 28.0612 13.58C29.4374 13.58 29.4315 15.338 30.8021 15.338C32.1727 15.338 32.1784 13.58 33.549 13.58C34.9196 13.58 34.9196 15.338 36.2959 15.338C37.6722 15.338 37.6665 13.58 39.0428 13.58C40.419 13.58 40.419 15.338 41.7956 15.338C43.1719 15.338 43.1659 13.8807 44.5425 13.8807V45.1085H28.3503V43.9519Z" fill="#BDDBFF"/>
<rect x="14.2578" y="26.5483" width="13.5484" height="18.0645" fill="white"/>
<path d="M44.5417 13.3024C43.8352 13.3171 43.1736 13.6526 42.7441 14.2139C42.4064 14.5725 42.2104 14.7597 41.7948 14.7597C41.406 14.7597 41.2117 14.5341 40.8734 14.1029C40.5137 13.4247 39.8089 13.0008 39.0414 13.0008C38.2739 13.0008 37.5691 13.4247 37.2094 14.1029C36.8734 14.533 36.6797 14.758 36.2951 14.758C35.9105 14.758 35.7123 14.5324 35.374 14.0998C35.0162 13.4233 34.3137 13 33.5482 13C32.783 13 32.0802 13.4233 31.7227 14.0998C31.3844 14.5324 31.1898 14.758 30.8013 14.758C30.4128 14.758 30.223 14.533 29.887 14.1018C29.5016 13.4515 28.8154 13.0381 28.0603 13.0017C27.3028 13.0378 26.6143 13.4524 26.2275 14.1046C25.8918 14.5347 25.698 14.7597 25.3135 14.7597C24.8936 14.7597 24.6973 14.5719 24.3579 14.2116C23.9299 13.6523 23.2708 13.3179 22.5666 13.3024C22.2472 13.3024 21.9883 13.5613 21.9883 13.8807V22.5551H23.1449V14.6499C23.2776 14.7583 23.4018 14.8772 23.5159 15.0051C23.9454 15.5662 24.607 15.9016 25.3135 15.9163C26.0677 15.8799 26.7535 15.4671 27.139 14.8176C27.4773 14.385 27.6715 14.1594 28.0603 14.1594C28.4489 14.1594 28.6386 14.3845 28.9744 14.8159C29.3604 15.4656 30.0465 15.8785 30.8013 15.9146C31.5586 15.8785 32.2473 15.4642 32.6339 14.8117C32.9699 14.3816 33.1636 14.1566 33.5482 14.1566C33.9328 14.1566 34.1265 14.3816 34.4625 14.8117C34.8211 15.4894 35.5251 15.9129 36.2917 15.9129C37.0583 15.9129 37.762 15.4894 38.1209 14.8117C38.4592 14.3794 38.6534 14.1538 39.042 14.1538C39.4305 14.1538 39.6251 14.3794 39.9633 14.8106C40.3505 15.4611 41.0386 15.8737 41.7948 15.9095C42.4993 15.8943 43.1589 15.56 43.5873 15.0003C43.703 14.8727 43.8287 14.7544 43.9634 14.6471V44.5302H30.0844V45.6868H44.5417C44.861 45.6868 45.12 45.4278 45.12 45.1085V13.8807C45.12 13.5613 44.861 13.3024 44.5417 13.3024Z" fill="#3470D1"/>
<path d="M35.8682 17.3505H41.6511V18.507H35.8682V17.3505Z" fill="#3470D1"/>
<path d="M35.8682 19.6636H41.6511V20.8202H35.8682V19.6636Z" fill="#3470D1"/>
<path d="M30.085 23.1334H37.0245V24.29H30.085V23.1334Z" fill="#3470D1"/>
<path d="M38.1807 23.1334H41.6504V24.29H38.1807V23.1334Z" fill="#3470D1"/>
<path d="M30.085 25.4465H37.0245V26.6031H30.085V25.4465Z" fill="#3470D1"/>
<path d="M38.1807 25.4465H41.6504V26.6031H38.1807V25.4465Z" fill="#3470D1"/>
<path d="M30.085 27.7598H37.0245V28.9163H30.085V27.7598Z" fill="#3470D1"/>
<path d="M38.1807 27.7598H41.6504V28.9163H38.1807V27.7598Z" fill="#3470D1"/>
<path d="M30.085 30.0729H37.0245V31.2295H30.085V30.0729Z" fill="#3470D1"/>
<path d="M38.1807 30.0729H41.6504V31.2295H38.1807V30.0729Z" fill="#3470D1"/>
<path d="M38.1807 35.8558H41.6504V37.0124H38.1807V35.8558Z" fill="#3470D1"/>
<path d="M27.1933 23.7117H15.6275C14.6691 23.7117 13.8926 24.4885 13.8926 25.4465V46.2651C13.8926 47.2231 14.6691 47.9999 15.6275 47.9999H27.1933C28.1514 47.9999 28.9282 47.2231 28.9282 46.2651V25.4465C28.9282 24.4885 28.1514 23.7117 27.1933 23.7117ZM15.6275 24.8683H27.1933C27.5127 24.8683 27.7716 25.1272 27.7716 25.4465V26.0248H15.0492V25.4465C15.0492 25.1272 15.3081 24.8683 15.6275 24.8683ZM27.7716 27.1814V43.3736H15.0492V27.1814H27.7716ZM27.1933 46.8434H15.6275C15.3081 46.8434 15.0492 46.5844 15.0492 46.2651V44.5302H27.7716V46.2651C27.7716 46.5844 27.5127 46.8434 27.1933 46.8434Z" fill="#3470D1"/>
<path d="M20.2539 45.1085H22.5671V46.2651H20.2539V45.1085Z" fill="#3470D1"/>
<path d="M20.832 35.2775H21.9886V36.4341H20.832V35.2775Z" fill="#3470D1"/>
<path d="M23.1455 35.2775H24.3021V36.4341H23.1455V35.2775Z" fill="#3470D1"/>
<path d="M18.5186 35.2775H19.6751V36.4341H18.5186V35.2775Z" fill="#3470D1"/>
<path d="M40.4941 32.3861H41.6507V33.5427H40.4941V32.3861Z" fill="#3470D1"/>
<path d="M38.1807 32.3861H39.3372V33.5427H38.1807V32.3861Z" fill="#3470D1"/>
<path d="M35.8682 32.3861H37.0247V33.5427H35.8682V32.3861Z" fill="#3470D1"/>
<path d="M33.5547 32.3861H34.7113V33.5427H33.5547V32.3861Z" fill="#3470D1"/>
<path d="M30.085 32.3861H32.3981V33.5427H30.085V32.3861Z" fill="#3470D1"/>
<defs>
<linearGradient id="paint0_linear_3952_784" x1="29.9999" y1="60" x2="29.9999" y2="-61.4062" gradientUnits="userSpaceOnUse">
<stop stop-color="white" stop-opacity="0"/>
<stop offset="1" stop-color="white"/>
</linearGradient>
</defs>
</svg>
