<svg width="60" height="60" viewBox="0 0 60 60" fill="none" xmlns="http://www.w3.org/2000/svg">
<path d="M30 1.19201e-06C13.4315 -2.56454e-07 7.88585e-06 13.4315 6.43738e-06 30C4.98891e-06 46.5685 13.4315 60 30 60C46.5685 60 60 46.5685 60 30C60 13.4315 46.5685 2.64048e-06 30 1.19201e-06Z" fill="url(#paint0_linear_4920_990)"/>
<path d="M39.3069 45.6634C38.3029 45.6634 37.5049 44.8654 37.5049 43.8614V25.5842C37.5049 24.5802 38.3029 23.7822 39.3069 23.7822C40.3108 23.7822 41.1088 24.5802 41.1088 25.5842V43.8614C41.1088 44.8654 40.3108 45.6634 39.3069 45.6634Z" fill="#DDB4F8"/>
<path d="M39.3067 46.4358C37.8908 46.4358 36.7324 45.2773 36.7324 43.8615V25.5843C36.7324 24.1684 37.8908 23.01 39.3067 23.01C40.7225 23.01 41.8809 24.1684 41.8809 25.5843V43.8615C41.8809 45.2773 40.7225 46.4358 39.3067 46.4358ZM39.3067 24.5546C38.7403 24.5546 38.277 25.0179 38.277 25.5843V43.8615C38.277 44.4278 38.7403 44.8912 39.3067 44.8912C39.873 44.8912 40.3364 44.4278 40.3364 43.8615V25.5843C40.3364 25.0179 39.873 24.5546 39.3067 24.5546Z" fill="#444B54"/>
<path d="M28.4952 21.7227V17.3465C28.4952 15.9306 27.3367 14.7722 25.9209 14.7722H37.5051C38.9209 14.7722 40.0793 15.9306 40.0793 17.3465V19.1485C40.0793 20.5643 41.2377 21.7227 42.6536 21.7227" fill="#DDB4F8"/>
<path d="M34.9309 45.6634H23.3467C21.9309 45.6634 20.7725 44.505 20.7725 43.0892V26.3565C20.7725 24.9406 21.9309 23.7822 23.3467 23.7822H34.9309C36.3467 23.7822 37.5051 24.9406 37.5051 26.3565V43.0892C37.5051 44.505 36.3467 45.6634 34.9309 45.6634Z" fill="white"/>
<path d="M37.5051 23.7822H20.7725V26.0991H37.5051V23.7822Z" fill="#DDB4F8"/>
<path d="M34.9308 30.9902H23.3467V36.1387H34.9308V30.9902Z" fill="#DDB4F8"/>
<path d="M39.3069 46.4358H22.5743C21.1584 46.4358 20 45.2773 20 43.8615V25.5843C20 24.1684 21.1584 23.01 22.5743 23.01H39.3069C39.7446 23.01 40.0792 23.3447 40.0792 23.7823C40.0792 24.2199 39.7446 24.5546 39.3069 24.5546C38.7406 24.5546 38.2772 25.0179 38.2772 25.5843V43.8615C38.2772 44.4278 38.7406 44.8912 39.3069 44.8912C39.7446 44.8912 40.0792 45.2259 40.0792 45.6635C40.0792 46.1011 39.7446 46.4358 39.3069 46.4358ZM22.5743 24.5546C22.0079 24.5546 21.5446 25.0179 21.5446 25.5843V43.8615C21.5446 44.4278 22.0079 44.8912 22.5743 44.8912H36.9386C36.8099 44.5823 36.7327 44.2219 36.7327 43.8615V25.5843C36.7327 25.2239 36.8099 24.8635 36.9386 24.5546H22.5743Z" fill="#444B54"/>
<path d="M34.9307 29.4457H23.3465C22.9089 29.4457 22.5742 29.111 22.5742 28.6734C22.5742 28.2358 22.9089 27.9011 23.3465 27.9011H34.9307C35.3683 27.9011 35.7029 28.2358 35.7029 28.6734C35.7029 29.111 35.3683 29.4457 34.9307 29.4457Z" fill="#444B54"/>
<path d="M33.5151 39.8712C34.0837 39.8712 34.5448 39.4102 34.5448 38.8415C34.5448 38.2728 34.0837 37.8118 33.5151 37.8118C32.9464 37.8118 32.4854 38.2728 32.4854 38.8415C32.4854 39.4102 32.9464 39.8712 33.5151 39.8712Z" fill="#C987F4"/>
<path d="M33.5151 43.4752C34.0837 43.4752 34.5448 43.0142 34.5448 42.4455C34.5448 41.8768 34.0837 41.4158 33.5151 41.4158C32.9464 41.4158 32.4854 41.8768 32.4854 42.4455C32.4854 43.0142 32.9464 43.4752 33.5151 43.4752Z" fill="#DDB4F8"/>
<path d="M29.1381 39.8712C29.7068 39.8712 30.1678 39.4102 30.1678 38.8415C30.1678 38.2728 29.7068 37.8118 29.1381 37.8118C28.5694 37.8118 28.1084 38.2728 28.1084 38.8415C28.1084 39.4102 28.5694 39.8712 29.1381 39.8712Z" fill="#DDB4F8"/>
<path d="M29.1381 43.4752C29.7068 43.4752 30.1678 43.0142 30.1678 42.4455C30.1678 41.8768 29.7068 41.4158 29.1381 41.4158C28.5694 41.4158 28.1084 41.8768 28.1084 42.4455C28.1084 43.0142 28.5694 43.4752 29.1381 43.4752Z" fill="#DDB4F8"/>
<path d="M24.7621 39.8712C25.3308 39.8712 25.7918 39.4102 25.7918 38.8415C25.7918 38.2728 25.3308 37.8118 24.7621 37.8118C24.1934 37.8118 23.7324 38.2728 23.7324 38.8415C23.7324 39.4102 24.1934 39.8712 24.7621 39.8712Z" fill="#DDB4F8"/>
<path d="M24.7621 43.4752C25.3308 43.4752 25.7918 43.0142 25.7918 42.4455C25.7918 41.8768 25.3308 41.4158 24.7621 41.4158C24.1934 41.4158 23.7324 41.8768 23.7324 42.4455C23.7324 43.0142 24.1934 43.4752 24.7621 43.4752Z" fill="#DDB4F8"/>
<path d="M42.6532 22.495C40.7997 22.495 39.3067 21.002 39.3067 19.1485V17.3465C39.3067 16.3426 38.5087 15.5446 37.5047 15.5446C37.0671 15.5446 36.7324 15.2099 36.7324 14.7723C36.7324 14.3347 37.0671 14 37.5047 14C39.3582 14 40.8512 15.4931 40.8512 17.3465V19.1485C40.8512 20.1525 41.6493 20.9505 42.6532 20.9505C43.6572 20.9505 44.4552 20.1525 44.4552 19.1485V17.604C44.4552 17.1663 44.7898 16.8317 45.2275 16.8317C45.6651 16.8317 45.9997 17.1663 45.9997 17.604V19.1485C45.9997 21.002 44.5067 22.495 42.6532 22.495Z" fill="#444B54"/>
<path d="M34.9308 27.1287V17.3465C34.9308 15.9306 36.0893 14.7722 37.5051 14.7722H25.9209C24.5051 14.7722 23.3467 15.9306 23.3467 17.3465V27.1287" fill="white"/>
<path d="M28.9844 23.9109C28.727 23.9109 28.5211 23.7821 28.3666 23.6019L27.2597 22.1346C27.0023 21.8 27.0795 21.3109 27.4141 21.0534C27.7488 20.796 28.2379 20.8732 28.4953 21.2079L29.0102 21.8772L30.4518 20.0752C30.7092 19.7406 31.1983 19.6891 31.5329 19.9465C31.8676 20.2039 31.9191 20.693 31.6617 21.0277L29.6022 23.6019C29.4478 23.8079 29.2419 23.9109 28.9844 23.9109Z" fill="#C987F4"/>
<path d="M23.3465 26.8713C22.9089 26.8713 22.5742 26.5366 22.5742 26.099V17.3465C22.5742 15.4931 24.0673 14 25.9208 14C26.3584 14 26.693 14.3347 26.693 14.7723C26.693 15.2099 26.3584 15.5446 25.9208 15.5446C24.9168 15.5446 24.1188 16.3426 24.1188 17.3465V26.099C24.1188 26.5366 23.7841 26.8713 23.3465 26.8713Z" fill="#444B54"/>
<path d="M34.9306 29.4455C34.493 29.4455 34.1583 29.1109 34.1583 28.6733V17.3465C34.1583 16.6772 34.3643 16.0594 34.6732 15.5446H25.9207C25.4831 15.5446 25.1484 15.2099 25.1484 14.7723C25.1484 14.3347 25.4831 14 25.9207 14H37.5049C37.9425 14 38.2771 14.3347 38.2771 14.7723C38.2771 15.2099 37.9425 15.5446 37.5049 15.5446C36.5009 15.5446 35.7029 16.3426 35.7029 17.3465V28.6733C35.7029 29.1109 35.3682 29.4455 34.9306 29.4455Z" fill="#444B54"/>
<defs>
<linearGradient id="paint0_linear_4920_990" x1="29.9999" y1="60" x2="29.9999" y2="-61.4062" gradientUnits="userSpaceOnUse">
<stop stop-color="white" stop-opacity="0"/>
<stop offset="1" stop-color="white"/>
</linearGradient>
</defs>
</svg>
