<svg width="60" height="60" viewBox="0 0 60 60" fill="none" xmlns="http://www.w3.org/2000/svg">
<path d="M30 1.19201e-06C13.4315 -2.56454e-07 7.88585e-06 13.4315 6.43738e-06 30C4.98891e-06 46.5685 13.4315 60 30 60C46.5685 60 60 46.5685 60 30C60 13.4315 46.5685 2.64048e-06 30 1.19201e-06Z" fill="url(#paint0_linear_3952_771)"/>
<path d="M46.1875 40.439V43.814C46.1866 44.1121 46.0678 44.3977 45.857 44.6085C45.6462 44.8193 45.3606 44.9381 45.0625 44.939H14.6875C14.3894 44.9381 14.1038 44.8193 13.893 44.6085C13.6822 44.3977 13.5634 44.1121 13.5625 43.814V40.439H46.1875Z" fill="white"/>
<path d="M15.8125 22.439H43.9375C44.2359 22.439 44.522 22.5575 44.733 22.7685C44.944 22.9794 45.0625 23.2656 45.0625 23.564V40.439H14.6875V23.564C14.6875 23.2656 14.806 22.9794 15.017 22.7685C15.228 22.5575 15.5141 22.439 15.8125 22.439Z" fill="white"/>
<path d="M33.25 40.439L32.6875 42.689H27.0625L26.5 40.439H33.25Z" fill="#57565C"/>
<path d="M42.25 14.564V37.6265H17.5V14.564L19.1875 16.2515L21.4375 14.564L23.6875 16.2515L25.9375 14.564L28.1875 16.2515L30.4375 14.564L32.6875 16.2515L34.9375 14.564L37.1875 16.2515L38.875 14.564L40.5625 16.2515L42.25 14.564Z" fill="white"/>
<path d="M46.1875 39.8764H45.625V23.5639C45.6237 23.1168 45.4454 22.6883 45.1293 22.3722C44.8131 22.056 44.3846 21.8778 43.9375 21.8764H42.8125V14.5639C42.8129 14.4527 42.7799 14.3438 42.7177 14.2515C42.6555 14.1593 42.567 14.0878 42.4638 14.0464C42.3613 14.0034 42.2484 13.9916 42.1393 14.0126C42.0302 14.0336 41.9297 14.0865 41.8506 14.1646L40.5625 15.4583L39.2744 14.1646C39.1682 14.0592 39.0246 14 38.875 14C38.7254 14 38.5818 14.0592 38.4756 14.1646L37.1369 15.5089L35.275 14.1139C35.178 14.04 35.0594 14 34.9375 14C34.8156 14 34.697 14.04 34.6 14.1139L32.6875 15.5483L30.775 14.1139C30.678 14.04 30.5594 14 30.4375 14C30.3156 14 30.197 14.04 30.1 14.1139L28.1875 15.5483L26.275 14.1139C26.178 14.04 26.0594 14 25.9375 14C25.8156 14 25.697 14.04 25.6 14.1139L23.6875 15.5483L21.775 14.1139C21.678 14.04 21.5594 14 21.4375 14C21.3156 14 21.197 14.04 21.1 14.1139L19.2381 15.5089L17.8994 14.1646C17.8203 14.0865 17.7198 14.0336 17.6107 14.0126C17.5016 13.9916 17.3887 14.0034 17.2863 14.0464C17.183 14.0878 17.0945 14.1593 17.0323 14.2515C16.9701 14.3438 16.9371 14.4527 16.9375 14.5639V21.8764H15.8125C15.3654 21.8778 14.9369 22.056 14.6207 22.3722C14.3046 22.6883 14.1263 23.1168 14.125 23.5639V39.8764H13.5625C13.4133 39.8764 13.2702 39.9357 13.1648 40.0412C13.0593 40.1467 13 40.2897 13 40.4389V43.8139C13.0013 44.2611 13.1796 44.6895 13.4957 45.0057C13.8119 45.3219 14.2404 45.5001 14.6875 45.5014H45.0625C45.5096 45.5001 45.9381 45.3219 46.2543 45.0057C46.5704 44.6895 46.7487 44.2611 46.75 43.8139V40.4389C46.75 40.2897 46.6907 40.1467 46.5852 40.0412C46.4798 39.9357 46.3367 39.8764 46.1875 39.8764ZM18.0625 15.9196L18.7881 16.6508C18.8842 16.7467 19.0117 16.8047 19.1471 16.814C19.2825 16.8233 19.4167 16.7833 19.525 16.7014L21.4375 15.2671L23.35 16.7014C23.447 16.7753 23.5656 16.8154 23.6875 16.8154C23.8094 16.8154 23.928 16.7753 24.025 16.7014L25.9375 15.2671L27.85 16.7014C27.947 16.7753 28.0656 16.8154 28.1875 16.8154C28.3094 16.8154 28.428 16.7753 28.525 16.7014L30.4375 15.2671L32.35 16.7014C32.447 16.7753 32.5656 16.8154 32.6875 16.8154C32.8094 16.8154 32.928 16.7753 33.025 16.7014L34.9375 15.2671L36.85 16.7014C36.9583 16.7833 37.0925 16.8233 37.2279 16.814C37.3633 16.8047 37.4908 16.7467 37.5869 16.6508L38.875 15.3571L40.1631 16.6508C40.2693 16.7562 40.4129 16.8153 40.5625 16.8153C40.7121 16.8153 40.8557 16.7562 40.9619 16.6508L41.6875 15.9196V37.0639H18.0625V15.9196ZM15.25 23.5639C15.25 23.4147 15.3093 23.2717 15.4148 23.1662C15.5202 23.0607 15.6633 23.0014 15.8125 23.0014H16.9375V37.0639H16.375V38.1889H43.9375V37.0639H42.8125V23.0014H43.9375C44.0867 23.0014 44.2298 23.0607 44.3352 23.1662C44.4407 23.2717 44.5 23.4147 44.5 23.5639V39.8764H15.25V23.5639ZM32.53 41.0014L32.2488 42.1264H27.5013L27.22 41.0014H32.53ZM45.625 43.8139C45.625 43.9631 45.5657 44.1062 45.4602 44.2117C45.3548 44.3172 45.2117 44.3764 45.0625 44.3764H14.6875C14.5383 44.3764 14.3952 44.3172 14.2898 44.2117C14.1843 44.1062 14.125 43.9631 14.125 43.8139V41.0014H26.0612L26.5169 42.8239C26.547 42.9459 26.6171 43.0542 26.716 43.1317C26.8149 43.2092 26.9369 43.2513 27.0625 43.2514H32.6875C32.8131 43.2513 32.9351 43.2092 33.034 43.1317C33.1329 43.0542 33.203 42.9459 33.2331 42.8239L33.6887 41.0014H45.625V43.8139Z" fill="#3470D1"/>
<path d="M24.8125 19.6265H27.0625V20.7515H24.8125V19.6265Z" fill="#3470D1"/>
<path d="M24.8125 22.439H27.0625V23.564H24.8125V22.439Z" fill="#3470D1"/>
<path d="M24.8125 25.2515H27.0625V26.3765H24.8125V25.2515Z" fill="#3470D1"/>
<path d="M28.75 19.6265H40V20.7515H28.75V19.6265Z" fill="#3470D1"/>
<path d="M28.75 22.439H40V23.564H28.75V22.439Z" fill="#3470D1"/>
<path d="M28.75 25.2515H40V26.3765H28.75V25.2515Z" fill="#3470D1"/>
<path d="M19.75 28.064H40V29.189H19.75V28.064Z" fill="#3470D1"/>
<path d="M19.75 30.8765H40V32.0015H19.75V30.8765Z" fill="#3470D1"/>
<path d="M19.75 33.689H40V34.814H19.75V33.689Z" fill="#3470D1"/>
<defs>
<linearGradient id="paint0_linear_3952_771" x1="29.9999" y1="60" x2="29.9999" y2="-61.4062" gradientUnits="userSpaceOnUse">
<stop stop-color="white" stop-opacity="0"/>
<stop offset="1" stop-color="white"/>
</linearGradient>
</defs>
</svg>
