<svg xmlns="http://www.w3.org/2000/svg" width="80" height="19" viewBox="0 0 80 19" fill="none">
  <path d="M17.1495 7.29248C17.2176 7.78109 17.246 8.30264 17.246 8.8187C17.246 13.3699 13.5247 17.0702 8.84473 17.1855C8.84473 17.1855 11.4201 16.049 14.2054 12.4915C16.9453 9.03281 17.1495 7.29248 17.1495 7.29248Z" fill="#E1E3ED"/>
  <path d="M3.97655 18.3651C3.53975 18.431 3.14266 18.3761 2.83634 18.195C1.38413 17.355 2.40521 14.8076 2.49598 14.5441C3.30717 12.2273 5.41173 9.24624 5.70104 7.23141C6.03006 5.06286 5.27559 4.53033 4.66294 4.22838C4.29989 4.01427 2.46761 3.48723 1.01541 6.39693C-0.48785 9.31212 0.856574 12.4634 0.856574 12.4634C0.300652 11.3709 0 10.1356 0 8.829C0 4.23387 3.89146 0.484192 8.6168 0.473212C10.103 0.484192 11.4928 0.857512 12.7125 1.47239C12.7125 1.47239 15.9289 -0.72361 17.1825 0.248121C18.0561 0.956332 18.0334 2.38373 16.9216 5.37579C15.4297 9.17487 11.9183 12.8257 10.1825 14.5606C8.5941 16.1307 5.82017 18.1236 3.97655 18.3651ZM16.2976 1.10456C15.4864 0.259102 13.2627 1.78532 13.2627 1.78532C14.2838 2.41667 15.1574 3.24567 15.8268 4.22838C15.8268 4.23387 17.0804 1.9061 16.2976 1.10456Z" fill="#E1E3ED"/>
  <path d="M28.4258 13.776L23.502 4.74499H26.0433L29.5831 11.0805H29.6171L32.9299 4.74499L35.4826 4.72852L30.7119 13.776H28.4258Z" fill="#E1E3ED"/>
  <path d="M41.8918 4.72852L47.9219 10.784H47.9786L47.9162 4.72852H50.259V13.7651H47.7801L41.5571 7.56685L41.5401 7.5943L41.5515 13.7651H39.186L39.1689 4.72852H41.8918Z" fill="#E1E3ED"/>
  <path d="M62.6481 4.71191C63.3629 4.71191 63.9472 4.80524 64.4464 4.96445C64.9569 5.11268 65.3767 5.32679 65.6943 5.60679C65.9723 5.88129 66.2162 6.17775 66.3524 6.52911C66.4715 6.88596 66.5736 7.23732 66.5566 7.61613C66.5566 7.97298 66.4772 8.31885 66.3694 8.68119C66.2219 9.03255 65.978 9.3345 65.7 9.61449C65.3823 9.89997 64.9626 10.1086 64.4634 10.2678C63.9812 10.4325 63.3685 10.5203 62.6651 10.5203L58.6716 10.5313L58.6829 13.7594H56.1699L56.1813 4.72838L62.6481 4.71191ZM61.9617 8.97765C62.2794 8.97765 62.5347 8.96118 62.7843 8.91726C63.0792 8.87883 63.3061 8.79648 63.4877 8.71413C63.7089 8.61531 63.8677 8.48904 63.9869 8.28591C64.106 8.13219 64.1571 7.89063 64.1571 7.61064C64.1514 7.31967 64.106 7.0836 63.9869 6.91341C63.8734 6.72675 63.7089 6.5895 63.4877 6.49068C63.3061 6.40284 63.0622 6.315 62.7956 6.30402C62.5347 6.27108 62.2624 6.25461 61.9561 6.25461H58.6716V8.98314L61.9617 8.97765Z" fill="#E1E3ED"/>
  <path d="M69.1094 6.62244L69.115 4.71191H79.5301V6.62244H75.4968V13.7485L72.9952 13.7594L72.9895 6.62244H69.1094Z" fill="#E1E3ED"/>
</svg>
