<svg width="362" height="87" viewBox="0 0 362 87" fill="none" xmlns="http://www.w3.org/2000/svg">
<path d="M6.632 70.592H3.432V68.544H11.992V70.592H8.792V80H6.632V70.592ZM15.8874 68.544H18.3674L22.6714 80H20.2874L19.3274 77.264H14.9434L13.9834 80H11.5994L15.8874 68.544ZM18.6234 75.28L17.6154 72.4L17.1994 71.024H17.0714L16.6554 72.4L15.6314 75.28H18.6234ZM17.1354 83.552C16.7834 83.552 16.4954 83.44 16.2714 83.2C16.0314 82.976 15.9194 82.688 15.9194 82.336C15.9194 82.016 16.0314 81.728 16.2714 81.488C16.4954 81.264 16.7834 81.136 17.1354 81.136C17.4554 81.136 17.7434 81.264 17.9834 81.488C18.2074 81.728 18.3354 82.016 18.3354 82.336C18.3354 82.688 18.2074 82.976 17.9834 83.2C17.7434 83.44 17.4554 83.552 17.1354 83.552ZM14.3994 67.424L16.2234 65.408H18.0474L19.8714 67.424V67.552H17.8714L17.2314 66.608H17.0394L16.3994 67.552H14.3994V67.424ZM24.2183 68.544H28.2503C28.9703 68.544 29.6263 68.704 30.2343 69.008C30.8263 69.312 31.2903 69.744 31.6423 70.288C31.9783 70.832 32.1543 71.456 32.1543 72.16C32.1543 72.864 31.9783 73.504 31.6423 74.048C31.2903 74.608 30.8263 75.04 30.2343 75.344C29.6263 75.648 28.9703 75.792 28.2503 75.792H26.3783V80H24.2183V68.544ZM28.3143 73.744C28.8423 73.744 29.2583 73.6 29.5623 73.28C29.8663 72.976 30.0263 72.608 30.0263 72.16C30.0263 71.728 29.8663 71.36 29.5623 71.056C29.2583 70.752 28.8423 70.592 28.3143 70.592H26.3783V73.744H28.3143ZM37.6059 74.928H36.4219V73.168H37.6059V68.544H41.4619C42.6459 68.544 43.6859 68.784 44.5819 69.264C45.4779 69.744 46.1659 70.416 46.6459 71.28C47.1259 72.144 47.3659 73.152 47.3659 74.272C47.3659 75.408 47.1259 76.4 46.6459 77.264C46.1659 78.128 45.4779 78.8 44.5819 79.28C43.6859 79.76 42.6459 80 41.4619 80H37.6059V74.928ZM41.3819 77.952C42.6139 77.952 43.5579 77.632 44.2139 76.976C44.8539 76.32 45.1899 75.424 45.1899 74.272C45.1899 73.136 44.8539 72.24 44.2139 71.584C43.5579 70.928 42.6139 70.592 41.3819 70.592H39.7499V73.168H42.6939V74.928H39.7499V77.952H41.3819ZM54.8294 80.256C53.7094 80.256 52.6854 80 51.7734 79.472C50.8614 78.944 50.1414 78.224 49.6294 77.296C49.1014 76.384 48.8454 75.376 48.8454 74.272C48.8454 73.184 49.1014 72.176 49.6294 71.248C50.1414 70.336 50.8614 69.616 51.7734 69.088C52.6854 68.56 53.7094 68.288 54.8294 68.288C55.9494 68.288 56.9574 68.56 57.8694 69.088C58.7814 69.616 59.5014 70.336 60.0294 71.248C60.5414 72.176 60.8134 73.184 60.8134 74.272C60.8134 75.376 60.5414 76.384 60.0294 77.296C59.5014 78.224 58.7814 78.944 57.8694 79.472C56.9574 80 55.9494 80.256 54.8294 80.256ZM54.8294 78.208C55.5334 78.208 56.1734 78.048 56.7654 77.712C57.3414 77.392 57.8054 76.928 58.1414 76.32C58.4774 75.728 58.6534 75.04 58.6534 74.272C58.6534 73.504 58.4774 72.832 58.1414 72.224C57.8054 71.632 57.3414 71.168 56.7654 70.832C56.1734 70.512 55.5334 70.336 54.8294 70.336C54.1254 70.336 53.4694 70.512 52.8934 70.832C52.3174 71.168 51.8534 71.632 51.5174 72.224C51.1814 72.832 51.0214 73.504 51.0214 74.272C51.0214 75.04 51.1814 75.728 51.5174 76.32C51.8534 76.928 52.3174 77.392 52.8934 77.712C53.4694 78.048 54.1254 78.208 54.8294 78.208ZM65.7624 68.544H68.2424L72.5464 80H70.1624L69.2024 77.264H64.8184L63.8584 80H61.4744L65.7624 68.544ZM68.4984 75.28L67.4904 72.4L67.0744 71.024H66.9464L66.5304 72.4L65.5064 75.28H68.4984ZM64.7384 65.472H67.1864L67.8584 67.648H66.1624L64.7384 65.472ZM74.0933 68.544H76.6053L81.2133 76.224H81.3413L81.2133 74.016V68.544H83.3573V80H81.0853L76.2213 71.888H76.0933L76.2213 74.096V80H74.0933V68.544ZM89.7339 68.544H94.2139C94.8539 68.544 95.4299 68.688 95.9739 68.944C96.5179 69.216 96.9339 69.584 97.2539 70.032C97.5579 70.496 97.7179 70.992 97.7179 71.536C97.7179 72.112 97.5739 72.624 97.2859 73.04C96.9979 73.456 96.6299 73.776 96.1819 74V74.128C96.7739 74.352 97.2539 74.688 97.6059 75.152C97.9579 75.616 98.1339 76.176 98.1339 76.816C98.1339 77.456 97.9579 78.016 97.6219 78.496C97.2859 78.976 96.8379 79.36 96.2619 79.616C95.6859 79.872 95.0619 80 94.3739 80H89.7339V68.544ZM94.0539 73.216C94.5179 73.216 94.8859 73.088 95.1739 72.832C95.4619 72.576 95.6059 72.24 95.6059 71.84C95.6059 71.456 95.4619 71.136 95.1899 70.88C94.9179 70.624 94.5659 70.48 94.1179 70.48H91.8939V73.216H94.0539ZM94.2939 78.032C94.8059 78.032 95.2219 77.904 95.5099 77.632C95.7979 77.36 95.9579 77.008 95.9579 76.56C95.9579 76.128 95.7979 75.776 95.5099 75.488C95.2059 75.216 94.7739 75.072 94.2299 75.072H91.8939V78.032H94.2939ZM104.333 80.256C103.437 80.256 102.653 80.064 101.981 79.68C101.309 79.296 100.797 78.752 100.429 78.016C100.061 77.296 99.8853 76.432 99.8853 75.44V68.544H102.029V75.568C102.029 76.368 102.221 77.008 102.621 77.488C103.021 77.968 103.597 78.208 104.333 78.208C105.069 78.208 105.629 77.968 106.029 77.488C106.429 77.008 106.637 76.368 106.637 75.568V68.544H108.957C109.341 68.544 109.549 68.352 109.549 67.952V66.656H111.117V67.904C111.117 68.64 110.925 69.168 110.573 69.52C110.221 69.872 109.677 70.048 108.957 70.048H108.781V75.44C108.781 76.4 108.589 77.232 108.237 77.952C107.869 78.688 107.357 79.248 106.685 79.648C106.013 80.064 105.229 80.256 104.333 80.256ZM116.083 80.256C115.187 80.256 114.403 80.064 113.731 79.68C113.059 79.296 112.547 78.752 112.179 78.016C111.811 77.296 111.635 76.432 111.635 75.44V68.544H113.779V75.568C113.779 76.368 113.971 77.008 114.371 77.488C114.771 77.968 115.347 78.208 116.083 78.208C116.819 78.208 117.379 77.968 117.779 77.488C118.179 77.008 118.387 76.368 118.387 75.568V68.544H120.531V75.44C120.531 76.4 120.339 77.232 119.987 77.952C119.619 78.688 119.107 79.248 118.435 79.648C117.763 80.064 116.979 80.256 116.083 80.256ZM132.127 80.256C131.007 80.256 129.999 80 129.087 79.472C128.159 78.944 127.439 78.224 126.911 77.312C126.383 76.4 126.127 75.392 126.127 74.272C126.127 73.168 126.383 72.16 126.911 71.248C127.439 70.336 128.159 69.616 129.087 69.088C129.999 68.56 131.007 68.288 132.127 68.288C133.855 68.288 135.279 68.912 136.415 70.16L134.895 71.632C134.159 70.768 133.231 70.336 132.143 70.336C131.423 70.336 130.767 70.512 130.191 70.832C129.599 71.152 129.135 71.616 128.799 72.208C128.463 72.816 128.303 73.504 128.303 74.272C128.303 75.056 128.463 75.744 128.799 76.336C129.135 76.944 129.599 77.408 130.191 77.728C130.767 78.048 131.423 78.208 132.143 78.208C133.343 78.208 134.351 77.712 135.167 76.704L136.703 78.16C136.127 78.848 135.455 79.376 134.687 79.728C133.919 80.08 133.055 80.256 132.127 80.256ZM138.703 68.544H140.863V73.12H145.679V68.544H147.839V80H145.679V75.168H140.863V80H138.703V68.544ZM150.468 68.544H152.628V80H150.468V68.544ZM151.364 65.472H153.812L152.372 67.648H150.692L151.364 65.472ZM155.234 68.544H157.746L162.354 76.224H162.482L162.354 74.016V68.544H164.498V80H162.226L157.362 71.888H157.234L157.362 74.096V80H155.234V68.544ZM167.125 68.544H169.285V73.12H174.101V68.544H176.261V80H174.101V75.168H169.285V80H167.125V68.544ZM181.552 68.544H183.888L186.256 75.456L186.672 76.912H186.8L187.248 75.456L189.712 68.544H192.048L187.872 80H185.6L181.552 68.544ZM193.578 68.544H195.738V80H193.578V68.544ZM198.343 68.544H205.607V70.592H200.503V73.248H205.095V75.296H200.503V77.952H205.607V80H198.343V68.544ZM199.463 65.504C199.463 65.056 199.591 64.688 199.879 64.416C200.167 64.144 200.535 64 200.999 64C201.351 64 201.687 64.08 202.007 64.224C202.023 64.24 202.103 64.272 202.231 64.32C202.359 64.368 202.487 64.384 202.647 64.384C202.775 64.384 202.871 64.352 202.967 64.288C203.047 64.224 203.095 64.128 203.127 64H204.487C204.487 64.464 204.343 64.832 204.055 65.104C203.767 65.376 203.399 65.504 202.951 65.504C202.727 65.504 202.551 65.488 202.423 65.456C202.279 65.424 202.103 65.36 201.911 65.28C201.815 65.248 201.703 65.2 201.607 65.168C201.511 65.136 201.399 65.12 201.303 65.12C201.175 65.12 201.063 65.168 200.983 65.232C200.887 65.296 200.839 65.392 200.823 65.504H199.463ZM199.239 67.84L201.063 65.824H202.887L204.711 67.84V67.968H202.711L202.071 67.04H201.879L201.239 67.968H199.239V67.84ZM207.828 68.544H210.34L214.948 76.224H215.076L214.948 74.016V68.544H217.092V80H214.82L209.956 71.888H209.828L209.956 74.096V80H207.828V68.544ZM225.788 70.592H222.588V68.544H231.148V70.592H227.948V80H225.788V70.592ZM232.875 68.544H235.035V73.12H239.851V68.544H242.011V80H239.851V75.168H235.035V80H232.875V68.544ZM249.892 80.256C248.772 80.256 247.748 80 246.836 79.472C245.924 78.944 245.204 78.224 244.692 77.296C244.164 76.384 243.908 75.376 243.908 74.272C243.908 73.184 244.164 72.176 244.692 71.248C245.204 70.336 245.924 69.616 246.836 69.088C247.748 68.56 248.772 68.288 249.892 68.288C251.012 68.288 252.02 68.56 252.932 69.088C253.844 69.616 254.564 70.336 255.092 71.248C255.604 72.176 255.876 73.184 255.876 74.272C255.876 75.376 255.604 76.384 255.092 77.296C254.564 78.224 253.844 78.944 252.932 79.472C252.02 80 251.012 80.256 249.892 80.256ZM249.892 78.208C250.596 78.208 251.236 78.048 251.828 77.712C252.404 77.392 252.868 76.928 253.204 76.32C253.54 75.728 253.716 75.04 253.716 74.272C253.716 73.504 253.54 72.832 253.204 72.224C252.868 71.632 252.404 71.168 251.828 70.832C251.236 70.512 250.596 70.336 249.892 70.336C249.188 70.336 248.532 70.512 247.956 70.832C247.38 71.168 246.916 71.632 246.58 72.224C246.244 72.832 246.084 73.504 246.084 74.272C246.084 75.04 246.244 75.728 246.58 76.32C246.916 76.928 247.38 77.392 247.956 77.712C248.532 78.048 249.188 78.208 249.892 78.208ZM247.156 67.424L248.98 65.408H250.804L252.628 67.424V67.552H250.628L249.988 66.608H249.796L249.156 67.552H247.156V67.424ZM257.921 68.544H260.433L265.041 76.224H265.169L265.041 74.016V68.544H267.185V80H264.913L260.049 71.888H259.921L260.049 74.096V80H257.921V68.544ZM275.128 80.256C274.024 80.256 273.016 80 272.088 79.488C271.16 78.976 270.44 78.256 269.896 77.344C269.352 76.432 269.08 75.408 269.08 74.272C269.08 73.152 269.352 72.128 269.896 71.216C270.44 70.304 271.16 69.584 272.088 69.072C273.016 68.56 274.024 68.288 275.128 68.288C276.024 68.288 276.84 68.448 277.576 68.768C278.312 69.088 278.952 69.52 279.496 70.096L278.008 71.552C277.624 71.152 277.192 70.848 276.728 70.64C276.264 70.448 275.72 70.336 275.112 70.336C274.408 70.336 273.752 70.512 273.176 70.832C272.584 71.152 272.12 71.616 271.768 72.224C271.416 72.832 271.256 73.504 271.256 74.272C271.256 75.04 271.432 75.728 271.784 76.336C272.136 76.944 272.6 77.408 273.192 77.728C273.784 78.048 274.44 78.208 275.144 78.208C276.2 78.208 277.08 77.904 277.768 77.264C277.976 77.072 278.168 76.832 278.328 76.528C278.488 76.24 278.6 75.904 278.68 75.552H275.08V73.712H280.696C280.76 74.016 280.808 74.352 280.808 74.72C280.808 75.488 280.68 76.192 280.456 76.832C280.232 77.488 279.88 78.064 279.416 78.544C278.904 79.104 278.28 79.536 277.56 79.824C276.824 80.112 276.024 80.256 275.128 80.256ZM285.537 68.544H287.873L290.241 75.456L290.657 76.912H290.785L291.233 75.456L293.697 68.544H296.033L291.857 80H289.585L285.537 68.544ZM297.562 68.544H299.722V80H297.562V68.544ZM302.328 68.544H309.592V70.592H304.488V73.248H309.08V75.296H304.488V77.952H309.592V80H302.328V68.544ZM305.96 83.552C305.608 83.552 305.32 83.44 305.096 83.2C304.856 82.976 304.744 82.688 304.744 82.336C304.744 82.016 304.856 81.728 305.096 81.488C305.32 81.264 305.608 81.136 305.96 81.136C306.28 81.136 306.568 81.264 306.808 81.488C307.032 81.728 307.16 82.016 307.16 82.336C307.16 82.688 307.032 82.976 306.808 83.2C306.568 83.44 306.28 83.552 305.96 83.552ZM303.224 67.424L305.048 65.408H306.872L308.696 67.424V67.552H306.696L306.056 66.608H305.864L305.224 67.552H303.224V67.424ZM314.288 70.592H311.088V68.544H319.648V70.592H316.448V80H314.288V70.592ZM325.125 68.544H327.637L332.245 76.224H332.373L332.245 74.016V68.544H334.389V80H332.117L327.253 71.888H327.125L327.253 74.096V80H325.125V68.544ZM340.231 68.544H342.711L347.015 80H344.631L343.671 77.264H339.287L338.327 80H335.943L340.231 68.544ZM342.967 75.28L341.959 72.4L341.543 71.024H341.415L340.999 72.4L339.975 75.28H342.967ZM348.562 68.544H351.346L354.386 76.592H354.514L357.554 68.544H360.354V80H358.21V74.352L358.338 72.448H358.21L355.298 80H353.618L350.69 72.448H350.562L350.69 74.352V80H348.562V68.544Z" fill="#535353"/>
<path d="M44.4179 18.8887C44.5942 20.1543 44.6676 21.5052 44.6676 22.8419C44.6676 34.6304 35.0288 44.2148 22.9069 44.5134C22.9069 44.5134 29.5776 41.5698 36.792 32.3552C43.8889 23.3965 44.4179 18.8887 44.4179 18.8887Z" fill="#196FB0"/>
<path d="M10.3 47.5692C9.16862 47.7398 8.14009 47.5976 7.34665 47.1284C3.58517 44.9527 6.22996 38.3545 6.46505 37.672C8.5662 31.6711 14.0174 23.9495 14.7668 18.7307C15.619 13.1138 13.6648 11.7344 12.0779 10.9523C11.1375 10.3977 6.39159 9.03257 2.6301 16.5693C-1.26362 24.1202 2.21869 32.2825 2.21869 32.2825C0.778745 29.4527 0 26.2532 0 22.8688C0 10.9665 10.0796 1.25415 22.3191 1.22571C26.1688 1.25415 29.7686 2.22112 32.9277 3.81378C32.9277 3.81378 41.2588 -1.87429 44.506 0.642681C46.7688 2.47708 46.71 6.17432 43.8301 13.9243C39.9658 23.7647 30.8706 33.2211 26.3745 37.7146C22.2604 41.7816 15.0753 46.9435 10.3 47.5692ZM42.2139 2.86103C40.1127 0.671122 34.3529 4.62433 34.3529 4.62433C36.9977 6.25964 39.2605 8.40689 40.9943 10.9523C40.9943 10.9665 44.2415 4.93717 42.2139 2.86103Z" fill="#196FB0"/>
<path d="M73.6283 35.6826L60.8745 12.2905H67.4571L76.6257 28.7005H76.7139L85.2948 12.2905L91.9068 12.2478L79.5497 35.6826H73.6283Z" fill="#196FB0"/>
<path d="M108.51 12.2478L124.129 27.9326H124.276L124.114 12.2478H130.183V35.6542H123.762L107.643 19.5996L107.599 19.6707L107.628 35.6542H101.501L101.457 12.2478H108.51Z" fill="#196FB0"/>
<path d="M162.273 12.2048C164.124 12.2048 165.638 12.4466 166.931 12.859C168.253 13.2429 169.34 13.7975 170.163 14.5227C170.883 15.2337 171.515 16.0016 171.868 16.9117C172.176 17.836 172.441 18.7461 172.397 19.7273C172.397 20.6516 172.191 21.5475 171.912 22.486C171.53 23.3961 170.898 24.1782 170.178 24.9034C169.355 25.6429 168.268 26.1832 166.975 26.5956C165.726 27.0222 164.139 27.2498 162.317 27.2498L151.973 27.2782L152.002 35.6397H145.493L145.523 12.2475L162.273 12.2048ZM160.495 23.2539C161.318 23.2539 161.979 23.2112 162.626 23.0975C163.39 22.9979 163.977 22.7846 164.448 22.5713C165.021 22.3154 165.432 21.9883 165.741 21.4622C166.049 21.064 166.181 20.4383 166.181 19.7131C166.167 18.9594 166.049 18.3479 165.741 17.9071C165.447 17.4236 165.021 17.0681 164.448 16.8122C163.977 16.5846 163.346 16.3571 162.655 16.3287C161.979 16.2434 161.274 16.2007 160.48 16.2007H151.973V23.2681L160.495 23.2539Z" fill="#196FB0"/>
<path d="M179.008 17.1534L179.023 12.2048H206V17.1534H195.553V35.6112L189.073 35.6397L189.059 17.1534H179.008Z" fill="#196FB0"/>
</svg>
