<svg xmlns="http://www.w3.org/2000/svg" width="164" height="38" viewBox="0 0 164 38" fill="none">
  <path d="M35.3626 15.0371C35.5029 16.0447 35.5614 17.1202 35.5614 18.1843C35.5614 27.5693 27.8878 35.1996 18.2373 35.4374C18.2373 35.4374 23.548 33.0939 29.2915 25.758C34.9414 18.6258 35.3626 15.0371 35.3626 15.0371Z" fill="#196FB0"/>
  <path d="M8.2 37.8706C7.29929 38.0065 6.48046 37.8933 5.84879 37.5197C2.85421 35.7876 4.95977 30.5347 5.14694 29.9913C6.81969 25.2139 11.1595 19.0666 11.7561 14.9118C12.4345 10.4401 10.8788 9.34195 9.61541 8.7193C8.86677 8.27779 5.08845 7.19098 2.09387 13.1911C-1.00599 19.2025 1.76633 25.7007 1.76633 25.7007C0.619972 23.4478 0 20.9006 0 18.2062C0 8.73063 8.02454 0.998448 17.7686 0.975806C20.8334 0.998448 23.6993 1.76827 26.2143 3.03621C26.2143 3.03621 32.8468 -1.49215 35.432 0.511649C37.2334 1.97205 37.1866 4.91548 34.8939 11.0854C31.8174 18.9194 24.5766 26.4478 20.9972 30.0252C17.7218 33.263 12.0017 37.3725 8.2 37.8706ZM33.6072 2.27771C31.9344 0.534291 27.3489 3.6815 27.3489 3.6815C29.4545 4.98341 31.2559 6.69286 32.6363 8.7193C32.6363 8.73062 35.2214 3.93056 33.6072 2.27771Z" fill="#196FB0"/>
  <path d="M58.6174 28.4078L48.4639 9.78494H53.7044L61.0037 22.8493H61.0739L67.9053 9.78494L73.1692 9.75098L63.3315 28.4078H58.6174Z" fill="#196FB0"/>
  <path d="M86.3864 9.75098L98.821 22.2379H98.938L98.8093 9.75098H103.64V28.3852H98.5285L85.6963 15.6039L85.6612 15.6605L85.6846 28.3852H80.8067L80.7716 9.75098H86.3864Z" fill="#196FB0"/>
  <path d="M129.188 9.7168C130.662 9.7168 131.866 9.90925 132.896 10.2376C133.949 10.5432 134.814 10.9847 135.469 11.5621C136.043 12.1281 136.546 12.7395 136.826 13.464C137.072 14.1999 137.282 14.9244 137.247 15.7056C137.247 16.4414 137.084 17.1546 136.861 17.9018C136.557 18.6263 136.054 19.249 135.481 19.8264C134.826 20.4151 133.96 20.8452 132.931 21.1736C131.937 21.5132 130.673 21.6943 129.223 21.6943L120.988 21.717L121.011 28.3736H115.829L115.852 9.75076L129.188 9.7168ZM127.772 18.5131C128.427 18.5131 128.954 18.4792 129.468 18.3886C130.077 18.3094 130.545 18.1395 130.919 17.9697C131.375 17.766 131.703 17.5056 131.948 17.0867C132.194 16.7697 132.299 16.2716 132.299 15.6942C132.288 15.0942 132.194 14.6074 131.948 14.2565C131.714 13.8716 131.375 13.5885 130.919 13.3848C130.545 13.2036 130.042 13.0225 129.492 12.9999C128.954 12.9319 128.392 12.898 127.761 12.898H120.988V18.5245L127.772 18.5131Z" fill="#196FB0"/>
  <path d="M142.512 13.6565L142.524 9.7168H164V13.6565H155.683V28.351L150.525 28.3736L150.513 13.6565H142.512Z" fill="#196FB0"/>
</svg>
