<svg id="Layer_1" xmlns="http://www.w3.org/2000/svg" viewBox="0 0 460.1 436.6" width="30" height="30">
	<style>.st0{fill:#fdfefe}.st1{fill:#fff}.st2{fill:#0172b1}.st3{fill:none;stroke:#0180c7;stroke-width:2;stroke-miterlimit:10}</style>
	<title>logo-zalo-vector</title>
	<path class="st1" d="M155.1 212.4c15.1 0 29.3-.1 43.4 0 7.9.1 12.2 3.4 13 9.7.9 7.9-3.7 13.2-12.3 13.3-16.2.2-32.3.1-48.5.1-4.7 0-9.3.2-14-.1-5.8-.3-11.5-1.5-14.3-7.5s-.8-11.4 3-16.3c15.4-19.6 30.9-39.3 46.4-58.9.9-1.2 1.8-2.4 2.7-3.5-1-1.7-2.4-.9-3.6-1-10.8-.1-21.7 0-32.5-.1-2.5 0-5-.3-7.4-.8-5.7-1.3-9.2-7-7.9-12.6.9-3.8 3.9-6.9 7.7-7.8 2.4-.6 4.9-.9 7.4-.9 17.8-.1 35.7-.1 53.5 0 3.2-.1 6.3.3 9.4 1.1 6.8 2.3 9.7 8.6 7 15.2-2.4 5.7-6.2 10.6-10 15.5-13.1 16.7-26.2 33.3-39.3 49.8-1.1 1.3-2.1 2.6-3.7 4.8z"/>
	<path class="st1" d="M271.1 159.8c2.4-3.1 4.9-6 9-6.8 7.9-1.6 15.3 3.5 15.4 11.5.3 20 .2 40 0 60 0 5.2-3.4 9.8-8.3 11.3-5 1.9-10.7.4-14-3.9-1.7-2.1-2.4-2.5-4.8-.6-9.1 7.4-19.4 8.7-30.5 5.1-17.8-5.8-25.1-19.7-27.1-36.6-2.1-18.3 4-33.9 20.4-43.5 13.6-8.1 27.4-7.4 39.9 3.5zm-35.4 36.5c.2 4.4 1.6 8.6 4.2 12.1 5.4 7.2 15.7 8.7 23 3.3 1.2-.9 2.3-2 3.3-3.3 5.6-7.6 5.6-20.1 0-27.7-2.8-3.9-7.2-6.2-11.9-6.3-11-.7-18.7 7.8-18.6 21.9zM340.4 196.9c-.8-25.7 16.1-44.9 40.1-45.6 25.5-.8 44.1 16.3 44.9 41.3.8 25.3-14.7 43.2-38.6 45.6-26.1 2.6-46.8-16.3-46.4-41.3zm25.1-2.4c-.2 5 1.3 9.9 4.3 14 5.5 7.2 15.8 8.6 23 3 1.1-.8 2-1.8 2.9-2.8 5.8-7.6 5.8-20.4.1-28-2.8-3.8-7.2-6.2-11.9-6.3-10.8-.6-18.4 7.6-18.4 20.1zM331.6 177c0 15.5.1 31 0 46.5.1 7.1-5.5 13-12.6 13.2-1.2 0-2.5-.1-3.7-.4-5-1.3-8.8-6.6-8.8-12.9v-79.5c0-4.7-.1-9.3 0-14 .1-7.7 5-12.7 12.4-12.7 7.6-.1 12.7 4.9 12.7 12.9.1 15.6 0 31.3 0 46.9z"/>
</svg>