<svg width="60" height="60" viewBox="0 0 60 60" fill="none" xmlns="http://www.w3.org/2000/svg">
<path d="M30 1.19201e-06C13.4315 -2.56454e-07 7.88585e-06 13.4315 6.43738e-06 30C4.98891e-06 46.5685 13.4315 60 30 60C46.5685 60 60 46.5685 60 30C60 13.4315 46.5685 2.64048e-06 30 1.19201e-06Z" fill="url(#paint0_linear_3952_774)"/>
<path d="M22.5668 41.9519H14.4707V44.2651C14.4724 44.9032 14.9891 45.4197 15.6273 45.4217H27.1931C27.831 45.4197 28.3477 44.9032 28.3497 44.2651V41.9519H22.5668Z" fill="#BDDBFF"/>
<path d="M27.1931 22.2899H15.6273C14.9891 22.2919 14.4724 22.8086 14.4707 23.4465V24.6031H28.3497V23.4465C28.3477 22.8086 27.831 22.2919 27.1931 22.2899Z" fill="#BDDBFF"/>
<path d="M28.3503 41.9519V23.4465C28.3483 22.8086 27.8316 22.2919 27.1937 22.2899H22.5674V11.8807C23.9377 11.8807 23.9377 13.338 25.3143 13.338C26.6905 13.338 26.6846 11.58 28.0612 11.58C29.4374 11.58 29.4315 13.338 30.8021 13.338C32.1727 13.338 32.1784 11.58 33.549 11.58C34.9196 11.58 34.9196 13.338 36.2959 13.338C37.6722 13.338 37.6665 11.58 39.0428 11.58C40.419 11.58 40.419 13.338 41.7956 13.338C43.1719 13.338 43.1659 11.8807 44.5425 11.8807V43.1085H28.3503V41.9519Z" fill="#BDDBFF"/>
<rect x="14.2578" y="24.5483" width="13.5484" height="18.0645" fill="white"/>
<path d="M44.5417 11.3024C43.8352 11.3171 43.1736 11.6526 42.7441 12.2139C42.4064 12.5725 42.2104 12.7597 41.7948 12.7597C41.406 12.7597 41.2117 12.5341 40.8734 12.1029C40.5137 11.4247 39.8089 11.0008 39.0414 11.0008C38.2739 11.0008 37.5691 11.4247 37.2094 12.1029C36.8734 12.533 36.6797 12.758 36.2951 12.758C35.9105 12.758 35.7123 12.5324 35.374 12.0998C35.0162 11.4233 34.3137 11 33.5482 11C32.783 11 32.0802 11.4233 31.7227 12.0998C31.3844 12.5324 31.1898 12.758 30.8013 12.758C30.4128 12.758 30.223 12.533 29.887 12.1018C29.5016 11.4515 28.8154 11.0381 28.0603 11.0017C27.3028 11.0378 26.6143 11.4524 26.2275 12.1046C25.8918 12.5347 25.698 12.7597 25.3135 12.7597C24.8936 12.7597 24.6973 12.5719 24.3579 12.2116C23.9299 11.6523 23.2708 11.3179 22.5666 11.3024C22.2472 11.3024 21.9883 11.5613 21.9883 11.8807V20.5551H23.1449V12.6499C23.2776 12.7583 23.4018 12.8772 23.5159 13.0051C23.9454 13.5662 24.607 13.9016 25.3135 13.9163C26.0677 13.8799 26.7535 13.4671 27.139 12.8176C27.4773 12.385 27.6715 12.1594 28.0603 12.1594C28.4489 12.1594 28.6386 12.3845 28.9744 12.8159C29.3604 13.4656 30.0465 13.8785 30.8013 13.9146C31.5586 13.8785 32.2473 13.4642 32.6339 12.8117C32.9699 12.3816 33.1636 12.1566 33.5482 12.1566C33.9328 12.1566 34.1265 12.3816 34.4625 12.8117C34.8211 13.4894 35.5251 13.9129 36.2917 13.9129C37.0583 13.9129 37.762 13.4894 38.1209 12.8117C38.4592 12.3794 38.6534 12.1538 39.042 12.1538C39.4305 12.1538 39.6251 12.3794 39.9633 12.8106C40.3505 13.4611 41.0386 13.8737 41.7948 13.9095C42.4993 13.8943 43.1589 13.56 43.5873 13.0003C43.703 12.8727 43.8287 12.7544 43.9634 12.6471V42.5302H30.0844V43.6868H44.5417C44.861 43.6868 45.12 43.4278 45.12 43.1085V11.8807C45.12 11.5613 44.861 11.3024 44.5417 11.3024Z" fill="#3470D1"/>
<path d="M35.8682 15.3505H41.6511V16.507H35.8682V15.3505Z" fill="#3470D1"/>
<path d="M35.8682 17.6636H41.6511V18.8202H35.8682V17.6636Z" fill="#3470D1"/>
<path d="M30.085 21.1334H37.0245V22.29H30.085V21.1334Z" fill="#3470D1"/>
<path d="M38.1807 21.1334H41.6504V22.29H38.1807V21.1334Z" fill="#3470D1"/>
<path d="M30.085 23.4465H37.0245V24.6031H30.085V23.4465Z" fill="#3470D1"/>
<path d="M38.1807 23.4465H41.6504V24.6031H38.1807V23.4465Z" fill="#3470D1"/>
<path d="M30.085 25.7598H37.0245V26.9163H30.085V25.7598Z" fill="#3470D1"/>
<path d="M38.1807 25.7598H41.6504V26.9163H38.1807V25.7598Z" fill="#3470D1"/>
<path d="M30.085 28.0729H37.0245V29.2295H30.085V28.0729Z" fill="#3470D1"/>
<path d="M38.1807 28.0729H41.6504V29.2295H38.1807V28.0729Z" fill="#3470D1"/>
<path d="M38.1807 33.8558H41.6504V35.0124H38.1807V33.8558Z" fill="#3470D1"/>
<path d="M27.1933 21.7117H15.6275C14.6691 21.7117 13.8926 22.4885 13.8926 23.4465V44.2651C13.8926 45.2231 14.6691 45.9999 15.6275 45.9999H27.1933C28.1514 45.9999 28.9282 45.2231 28.9282 44.2651V23.4465C28.9282 22.4885 28.1514 21.7117 27.1933 21.7117ZM15.6275 22.8683H27.1933C27.5127 22.8683 27.7716 23.1272 27.7716 23.4465V24.0248H15.0492V23.4465C15.0492 23.1272 15.3081 22.8683 15.6275 22.8683ZM27.7716 25.1814V41.3736H15.0492V25.1814H27.7716ZM27.1933 44.8434H15.6275C15.3081 44.8434 15.0492 44.5844 15.0492 44.2651V42.5302H27.7716V44.2651C27.7716 44.5844 27.5127 44.8434 27.1933 44.8434Z" fill="#3470D1"/>
<path d="M20.2539 43.1085H22.5671V44.2651H20.2539V43.1085Z" fill="#3470D1"/>
<path d="M20.832 33.2775H21.9886V34.4341H20.832V33.2775Z" fill="#3470D1"/>
<path d="M23.1455 33.2775H24.3021V34.4341H23.1455V33.2775Z" fill="#3470D1"/>
<path d="M18.5186 33.2775H19.6751V34.4341H18.5186V33.2775Z" fill="#3470D1"/>
<path d="M40.4941 30.3861H41.6507V31.5427H40.4941V30.3861Z" fill="#3470D1"/>
<path d="M38.1807 30.3861H39.3372V31.5427H38.1807V30.3861Z" fill="#3470D1"/>
<path d="M35.8682 30.3861H37.0247V31.5427H35.8682V30.3861Z" fill="#3470D1"/>
<path d="M33.5547 30.3861H34.7113V31.5427H33.5547V30.3861Z" fill="#3470D1"/>
<path d="M30.085 30.3861H32.3981V31.5427H30.085V30.3861Z" fill="#3470D1"/>
<defs>
<linearGradient id="paint0_linear_3952_774" x1="29.9999" y1="60" x2="29.9999" y2="-61.4062" gradientUnits="userSpaceOnUse">
<stop stop-color="white" stop-opacity="0"/>
<stop offset="1" stop-color="white"/>
</linearGradient>
</defs>
</svg>
